<svg height="430pt" viewBox="-10 0 430 430.08" width="430pt" xmlns="http://www.w3.org/2000/svg"><path d="m307.238281 241.078125c0-84.132813-68.765625-152.332031-153.597656-152.332031s-153.6015625 68.199218-153.6015625 152.332031c0 84.128906 68.7695315 152.328125 153.6015625 152.328125s153.597656-68.199219 153.597656-152.328125zm0 0" fill="#d9be6f"/><path d="m331.308594 423.253906h-20.828125l-6.652344-122.878906h34.132813zm0 0" fill="#ffce56"/><path d="m331.308594 430.078125h-20.828125c-3.625 0-6.621094-2.832031-6.820313-6.457031l-6.652344-122.878906c-.101562-1.867188.574219-3.703126 1.867188-5.0625 1.289062-1.359376 3.082031-2.132813 4.953125-2.132813h34.132813c1.875 0 3.667968.773437 4.953124 2.132813 1.292969 1.359374 1.964844 3.195312 1.867188 5.0625l-6.652344 122.878906c-.203125 3.625-3.195312 6.457031-6.820312 6.457031zm-14.359375-13.652344h7.890625l5.914062-109.226562h-19.71875zm0 0" fill="#4c241d"/><path d="m215.253906 423.253906h-20.828125l-6.652343-129.707031h34.132812zm0 0" fill="#ffce56"/><path d="m215.253906 430.078125h-20.828125c-3.632812 0-6.632812-2.84375-6.816406-6.476563l-6.652344-129.707031c-.09375-1.867187.578125-3.695312 1.871094-5.046875 1.289063-1.363281 3.074219-2.128906 4.945313-2.128906h34.136718c1.871094 0 3.660156.765625 4.945313 2.128906 1.292969 1.351563 1.964843 3.179688 1.871093 5.046875l-6.652343 129.707031c-.1875 3.632813-3.1875 6.476563-6.820313 6.476563zm-14.339844-13.652344h7.851563l5.953125-116.050781h-19.757812zm0 0" fill="#4c241d"/><path d="m285.664062 225.28125h-4.960937c-16.058594 0-29.628906-11.914062-31.707031-27.84375l-16.847656-129.171875v-11.320313c0-12.597656-10.214844-22.8125-22.816407-22.8125h-61.164062c-11.832031 0-22.851563 7.960938-24.875 19.617188-2.617188 15.078125 8.921875 28.171875 23.519531 28.171875h4.378906c2.925782 11.289063 12.828125 19.695313 24.863282 20.351563l-5.347657 123.007812v41.976562c0 28.109376 17.261719 52.164063 41.75 62.210938l8.613281 93.785156h18.742188l5.191406-88.746094h83.96875l8.148438 88.746094h18.746094l5.984374-121.785156c0-42.078125-34.109374-76.1875-76.1875-76.1875zm0 0" fill="#ffce56"/><path d="m355.867188 430.078125h-18.746094c-3.527344 0-6.472656-2.683594-6.800782-6.199219l-7.574218-82.546875h-71.304688l-4.8125 82.320313c-.207031 3.605468-3.203125 6.425781-6.8125 6.425781h-18.746094c-3.527343 0-6.476562-2.683594-6.800781-6.199219l-8.238281-89.792968c-25.746094-12.277344-42.152344-38.066407-42.152344-66.824219v-41.980469l5.085938-117.230469c-10.09375-2.605469-18.441406-9.699219-22.617188-19.3125-8.921875-.132812-17.296875-4.105469-23.054687-10.945312-5.847657-6.953125-8.300781-16.144531-6.726563-25.210938 2.5-14.410156 16.078125-25.273437 31.601563-25.273437h61.164062c16.347657 0 29.640625 13.292968 29.640625 29.636718v10.882813l16.789063 128.730469c1.632812 12.480468 12.351562 21.894531 24.945312 21.894531h4.960938c45.773437 0 83.011719 37.238281 83.011719 83.015625l-5.992188 122.117188c-.179688 3.640624-3.179688 6.492187-6.820312 6.492187zm-12.519532-13.652344h6.019532l5.664062-115.292969c-.003906-37.914062-31.117188-69.027343-69.363281-69.027343h-4.960938c-19.425781 0-35.96875-14.527344-38.480469-33.777344l-16.847656-129.179687c-.039062-.289063-.058594-.589844-.058594-.882813v-11.320313c0-8.8125-7.171874-15.984374-15.988281-15.984374h-61.164062c-8.96875 0-16.765625 6-18.148438 13.953124-.898437 5.164063.425781 10.167969 3.726563 14.09375 3.253906 3.863282 8.015625 6.085938 13.066406 6.085938h4.378906c3.113282 0 5.828125 2.097656 6.609375 5.113281 2.238281 8.632813 9.726563 14.757813 18.625 15.253907 3.734375.199218 6.605469 3.375 6.445313 7.105468l-5.347656 123.007813.011718 41.6875c0 24.597656 14.726563 46.539062 37.515625 55.898437 2.355469.964844 3.976563 3.160156 4.207031 5.6875l8.035157 87.578125h6.078125l4.8125-82.320312c.207031-3.605469 3.203125-6.425781 6.8125-6.425781h83.976562c3.523438 0 6.472656 2.6875 6.796875 6.199218zm0 0" fill="#4c241d"/><path d="m245.800781 47.785156h-13.652343c0-15.082031 12.222656-27.304687 27.304687-27.304687h13.652344c0 15.082031-12.222657 27.304687-27.304688 27.304687zm0 0" fill="#ffce56"/><path d="m245.800781 54.613281h-13.652343c-3.773438 0-6.828126-3.054687-6.828126-6.828125 0-18.816406 15.3125-34.132812 34.132813-34.132812h13.652344c3.773437 0 6.828125 3.054687 6.828125 6.828125 0 18.820312-15.3125 34.132812-34.132813 34.132812zm-5.660156-13.652343h5.660156c8.898438 0 16.492188-5.707032 19.3125-13.652344h-5.660156c-8.898437 0-16.492187 5.707031-19.3125 13.652344zm0 0" fill="#4c241d"/><path d="m389.160156 286.71875c-3.773437 0-6.828125-3.050781-6.828125-6.824219v-9.734375c0-9.6875-7.886719-17.574218-17.570312-17.574218h-23.386719c-3.773438 0-6.828125-3.050782-6.828125-6.824219 0-3.773438 3.054687-6.828125 6.828125-6.828125h23.386719c17.21875 0 31.226562 14.007812 31.226562 31.226562v9.734375c0 3.773438-3.054687 6.824219-6.828125 6.824219zm0 0" fill="#4c241d"/><path d="m285.664062 225.28125h-5.042968c-.445313 2.207031-.6875 4.488281-.6875 6.824219 0 18.851562 15.28125 34.132812 34.132812 34.132812 11.902344 0 22.359375-6.109375 28.46875-15.347656-13.957031-15.679687-34.230468-25.609375-56.871094-25.609375zm0 0" fill="#fc8c29"/><path d="m314.066406 273.066406c-22.585937 0-40.960937-18.375-40.960937-40.960937 0-2.734375.28125-5.484375.820312-8.179688.648438-3.183593 3.449219-5.472656 6.695313-5.472656h5.046875c23.597656 0 46.183593 10.167969 61.964843 27.902344 2.058594 2.3125 2.300782 5.722656.59375 8.304687-7.621093 11.527344-20.394531 18.40625-34.160156 18.40625zm-27.304687-40.953125c.003906 15.054688 12.253906 27.300781 27.304687 27.300781 7.359375 0 14.300782-2.960937 19.378906-8.105468-12.597656-12.015625-29.277343-18.914063-46.683593-19.195313zm0 0" fill="#4c241d"/><path d="m252.625 266.238281c0 15.082031-12.222656 27.308594-27.304688 27.308594-15.082031 0-27.308593-12.226563-27.308593-27.308594 0-15.078125 12.226562-27.304687 27.308593-27.304687 15.082032 0 27.304688 12.226562 27.304688 27.304687zm0 0" fill="#fc8c29"/><path d="m225.320312 300.375c-18.820312 0-34.132812-15.316406-34.132812-34.136719 0-18.816406 15.3125-34.132812 34.132812-34.132812 18.820313 0 34.132813 15.316406 34.132813 34.132812 0 18.820313-15.3125 34.136719-34.132813 34.136719zm0-54.613281c-11.292968 0-20.480468 9.183593-20.480468 20.476562s9.1875 20.480469 20.480468 20.480469c11.292969 0 20.480469-9.1875 20.480469-20.480469s-9.1875-20.476562-20.480469-20.476562zm0 0" fill="#4c241d"/><path d="m250.78125 211.125-7.03125-53.90625c-14.105469 1.066406-25.257812 12.722656-25.257812 27.101562 0 15.078126 12.226562 27.304688 27.308593 27.304688 1.707031 0 3.359375-.203125 4.980469-.5zm0 0" fill="#fc8c29"/><path d="m245.800781 218.453125c-18.820312 0-34.132812-15.3125-34.132812-34.132813 0-17.671874 13.867187-32.566406 31.566406-33.90625 3.539063-.320312 6.8125 2.324219 7.28125 5.925782l7.03125 53.90625c.472656 3.59375-1.953125 6.933594-5.527344 7.59375-2.226562.414062-4.265625.613281-6.21875.613281zm-7.855469-52.914063c-7.425781 3.09375-12.625 10.421876-12.625 18.78125 0 10.359376 7.734376 18.945313 17.726563 20.292969zm0 0" fill="#4c241d"/><path d="m204.839844 143.359375c0-15.082031-12.226563-27.304687-27.304688-27.304687-.71875 0-1.386718.15625-2.089844.207031l-2.347656 53.957031c1.453125.238281 2.917969.449219 4.433594.449219 15.082031 0 27.308594-12.226563 27.308594-27.308594zm0 0" fill="#fc8c29"/><g fill="#4c241d"><path d="m177.535156 177.492188c-1.902344 0-3.730468-.238282-5.546875-.539063-3.40625-.558594-5.863281-3.578125-5.707031-7.027344l2.34375-53.949219c.148438-3.453124 2.855469-6.253906 6.300781-6.515624 1.132813-.152344 1.859375-.234376 2.609375-.234376 18.816406 0 34.132813 15.3125 34.132813 34.132813s-15.316407 34.132813-34.132813 34.132813zm4.4375-54.125-1.75 40.296874c10.023438-1.316406 17.789063-9.925781 17.789063-20.304687 0-9.765625-6.871094-17.957031-16.039063-19.992187zm0 0"/><path d="m191.1875 34.132812c-3.773438 0-6.828125-3.050781-6.828125-6.824218v-20.480469c0-3.773437 3.054687-6.828125 6.828125-6.828125s6.824219 3.054688 6.824219 6.828125v20.480469c0 3.773437-3.050781 6.824218-6.824219 6.824218zm0 0"/><path d="m211.667969 34.132812c-3.773438 0-6.828125-3.050781-6.828125-6.824218v-20.480469c0-3.773437 3.054687-6.828125 6.828125-6.828125 3.773437 0 6.824219 3.054688 6.824219 6.828125v20.480469c0 3.773437-3.050782 6.824218-6.824219 6.824218zm0 0"/></g><path d="m402.8125 300.375c0 11.308594-13.652344 20.476562-13.652344 20.476562s-13.652344-9.167968-13.652344-20.476562c0-11.3125 6.113282-20.480469 13.652344-20.480469 7.539063 0 13.652344 9.167969 13.652344 20.480469zm0 0" fill="#fc8c29"/><path d="m389.160156 327.679688c-1.328125 0-2.652344-.386719-3.804687-1.160157-1.707031-1.148437-16.675781-11.613281-16.675781-26.144531 0-15.316406 8.996093-27.308594 20.480468-27.308594s20.480469 11.992188 20.480469 27.308594c0 14.53125-14.96875 24.996094-16.675781 26.144531-1.152344.773438-2.480469 1.160157-3.804688 1.160157zm0-40.960938c-2.789062 0-6.828125 5.320312-6.828125 13.65625 0 4.226562 3.695313 8.699219 6.835938 11.671875 3.191406-3.015625 6.820312-7.472656 6.820312-11.671875 0-8.335938-4.042969-13.65625-6.828125-13.65625zm0 0" fill="#4c241d"/><path d="m198.011719 61.441406c0 3.769532-3.054688 6.824219-6.824219 6.824219s-6.828125-3.054687-6.828125-6.824219c0-3.773437 3.058594-6.828125 6.828125-6.828125s6.824219 3.054688 6.824219 6.828125zm0 0" fill="#4c241d"/></svg>