<svg height="512" viewBox="0 0 128 128" width="512" xmlns="http://www.w3.org/2000/svg"><g><g><path d="m33.336 76.979c-1.41-11.568-1.125-23.11 8.95-22.241 9.966.86 9.136 14.276 8.565 18.854z" fill="#bdbdc6"/><path d="m107.12 85.39c0 15.92-10.95 18.42-26.12 18.42h-69.36a5.142 5.142 0 0 1 -3.56-8.85c3.83-3.65 9.51-9.07 16.11-14.76-1.41-11.56-1.11-23.09 8.95-22.22 5.24.45 7.49 4.36 8.37 8.64 9.17-6.35 18.58-11.31 26.49-12.1 20.17-2.02 39.12 7.87 39.12 30.87z" fill="#eaeaf0"/><circle cx="30.102" cy="87.667" fill="#bdbdc6" r="3"/></g><g fill="#072130"><path d="m123.25 70.67c0-7.177-2.893-13.135-5.69-18.9-3.745-7.714-7.618-15.691-4.858-27.173a1.751 1.751 0 0 0 -3.4-.819c-3.051 12.7 1.1 21.252 5.114 29.521 2.745 5.655 5.338 11 5.338 17.368 0 5.11-3.695 9.219-10.966 12.242a31.216 31.216 0 0 0 -6.491-17.986 1.75 1.75 0 0 0 -2.746 2.177c3.861 4.866 5.819 11.019 5.819 18.288 0 13.942-8.935 16.67-24.37 16.67h-43.75a1.75 1.75 0 0 0 0 3.5h43.75c13.168 0 27.187-1.5 27.839-18.9 11.873-4.515 14.411-11.149 14.411-15.988z"/><path d="m72.667 96.058a1.75 1.75 0 0 0 0 3.5h8.333a1.75 1.75 0 0 0 0-3.5z"/><path d="m93.685 61.707c.712.481 1.4.995 2.056 1.529a1.75 1.75 0 1 0 2.22-2.7c-.736-.6-1.516-1.184-2.319-1.726a1.75 1.75 0 0 0 -1.957 2.9z"/><path d="m29 102.06h-17.36a3.391 3.391 0 0 1 -2.354-5.831l.387-.37c3.724-3.54 9.351-8.89 15.73-14.394a1.752 1.752 0 0 0 .587-1.583c-.462-3.79-1.826-15.116 2.031-19.111a5.8 5.8 0 0 1 4.972-1.521 6.468 6.468 0 0 1 4.73 2.394c3.173 3.92 2.629 11.446 2.248 14.5a1.749 1.749 0 1 0 3.472.433 36.629 36.629 0 0 0 .054-9.2c9.893-6.724 18.2-10.47 24.677-11.119a41.9 41.9 0 0 1 20.408 2.7 1.75 1.75 0 0 0 1.364-3.223 45.361 45.361 0 0 0 -22.12-2.955c-4.836.484-10.507 2.489-16.931 5.963a10.045 10.045 0 0 0 -8.457-5.743c-3.5-.294-6.235.679-8.165 2.895-.32-.053-.645-.1-.98-.127a9.19 9.19 0 0 0 -7.793 2.572c-3.385 3.507-4.346 10.029-3.09 21.085-6.151 5.341-11.539 10.465-15.15 13.9l-.394.374a6.892 6.892 0 0 0 4.774 11.861h17.36a1.75 1.75 0 0 0 0-3.5zm13.141-45.577a6.624 6.624 0 0 1 5.714 3.979c-1.68.992-3.4 2.07-5.177 3.249a13.3 13.3 0 0 0 -2.234-4.269 9.807 9.807 0 0 0 -2.436-2.162 6.53 6.53 0 0 1 4.133-.797z"/><path d="m30.1 82.917a4.75 4.75 0 1 0 4.75 4.75 4.755 4.755 0 0 0 -4.75-4.75zm0 6a1.25 1.25 0 1 1 1.25-1.25 1.251 1.251 0 0 1 -1.25 1.25z"/></g></g></svg>