<svg id="Capa_1" enable-background="new 0 0 512 512" height="512" viewBox="0 0 512 512" width="512" xmlns="http://www.w3.org/2000/svg"><g><path d="m388.038 478.694h-71.391l-58.617-327.907c-.402-2.256-3.657-2.256-4.059 0l-58.617 327.907h-71.392l13.135-372.544 7.273-20.016-4.924-46.585h233.109l-9.416 30.576 11.765 36.025z" fill="#80b4fb"/><path d="m388.038 478.694h-25.002l-15.474-439.145h24.993l-9.416 30.575 11.764 36.026z" fill="#61a2f9"/><path d="m316.65 478.699 4.436 24.812c.878 4.912 5.151 8.489 10.141 8.489h47.306c5.832 0 10.501-4.836 10.295-10.665l-.798-22.636z" fill="#bed8fb"/><path d="m195.35 478.699-4.436 24.812c-.878 4.912-5.151 8.489-10.141 8.489h-47.306c-5.832 0-10.501-4.836-10.295-10.665l.798-22.636z" fill="#bed8fb"/><path d="m388.03 478.699h-24.993l1.174 33.301h14.322c5.832 0 10.501-4.836 10.295-10.665z" fill="#9dc6fb"/><path d="m372.55 10.3v29.24h-233.1v-29.24c0-5.69 4.61-10.3 10.3-10.3h80.53l25.72 11.29 25.72-11.29h80.53c5.69 0 10.3 4.61 10.3 10.3z" fill="#8b818e"/><path d="m230.281 0h51.438v39.545h-51.438z" fill="#ffe07d"/><path d="m372.553 39.545h-24.976v-39.545h14.674c5.69 0 10.302 4.612 10.302 10.302z" fill="#756e78"/><path d="m322.602 39.545 8.005 32.021c5.081 20.323 23.341 34.581 44.29 34.581h.003l-2.347-66.602z" fill="#bed8fb"/><path d="m374.897 106.146h.003l-2.347-66.602h-24.993l2.079 58.973c7.295 4.85 16.014 7.629 25.258 7.629z" fill="#9dc6fb"/><path d="m189.398 39.545-8.005 32.021c-5.081 20.323-23.341 34.581-44.29 34.581h-.003l2.347-66.602z" fill="#bed8fb"/><path d="m248.274 182.665 5.698-31.873c.405-2.264 3.652-2.264 4.056 0l5.698 31.873v-143.12h-15.453v143.12z" fill="#61a2f9"/><g><path d="m314.875 0h15.453v39.549h-15.453z" fill="#756e78"/></g><g><path d="m181.672 0h15.453v39.549h-15.453z" fill="#756e78"/></g></g></svg>