<?xml version="1.0"?>
<svg xmlns="http://www.w3.org/2000/svg" id="Filled" viewBox="0 0 512 512" width="512" height="512"><path d="M384,232v32a16,16,0,0,1-16,16h-8a365.066,365.066,0,0,0-12.59,56,342.754,342.754,0,0,0,7.06,132.12A16,16,0,0,1,338.95,488H109.05a16.015,16.015,0,0,1-15.5-19.94A342.439,342.439,0,0,0,100.59,336,364.8,364.8,0,0,0,88,280H80a16,16,0,0,1-16-16V232a16,16,0,0,1,16-16H368A16,16,0,0,1,384,232Z" style="fill:#2b70a8"/><path d="M192,232S88,200,88,144s64-96,120-96c72,0,112,72,128,184Z" style="fill:#efdece"/><path d="M168,152a16,16,0,1,1,16-16A16.019,16.019,0,0,1,168,152Zm0-16.01v0Z" style="fill:#2b70a8"/><rect x="413.064" y="22.417" width="32" height="336" transform="translate(-34.663 117.538) rotate(-15)" style="fill:#684436"/><rect x="382.006" y="26.506" width="32" height="96" transform="translate(-5.722 105.55) rotate(-15)" style="fill:#fcb442"/><path d="M456,432s-32,8-32,40c0-32-32-40-32-40s32-8,32-40C424,424,456,432,456,432Z" style="fill:#fde575"/><path d="M88,64s-32,8-32,40c0-32-32-40-32-40s32-8,32-40C56,56,88,64,88,64Z" style="fill:#fde575"/><rect x="64" y="216" width="320" height="64" rx="16" ry="16" style="fill:#2b70a8"/><path d="M360,280a365.066,365.066,0,0,0-12.59,56H100.59A364.8,364.8,0,0,0,88,280Z" style="fill:#ce3536"/><ellipse cx="240" cy="244" rx="32" ry="140" style="fill:#fae8d8"/><circle cx="168" cy="136" r="16"/><path d="M494.928,352.55a8.006,8.006,0,0,0,.8-6.071l-62.121-231.82v-.005L408.768,21.93a8,8,0,0,0-9.8-5.658l-30.91,8.281a8,8,0,0,0-5.658,9.8l24.84,92.73c.022.079.05.156.074.234L449.362,358.9a7.993,7.993,0,0,0,9.8,5.658l30.91-8.281A7.993,7.993,0,0,0,494.928,352.55ZM395.383,33.8l20.7,77.275-15.455,4.141-20.7-77.276Zm67.364,313.235L404.778,130.667l15.446-4.139L478.2,342.893Z"/><path d="M390.023,439.752C391.084,440.028,416,446.8,416,472a8,8,0,0,0,16,0c0-25.141,24.8-31.941,25.969-32.246a8.007,8.007,0,0,0,.008-15.506C456.916,423.972,432,417.2,432,392a8,8,0,0,0-16,0c0,25.2-24.916,31.972-25.94,32.239a8.006,8.006,0,0,0-.037,15.513ZM424,418.72A51.418,51.418,0,0,0,437.393,432,51.418,51.418,0,0,0,424,445.28,51.418,51.418,0,0,0,410.607,432,51.418,51.418,0,0,0,424,418.72Z"/><path d="M56,16a8,8,0,0,0-8,8c0,25.2-24.916,31.972-25.94,32.239a8.006,8.006,0,0,0-.037,15.513C23.084,72.028,48,78.8,48,104a8,8,0,0,0,16,0c0-25.141,24.8-31.941,25.969-32.246a8.007,8.007,0,0,0,.008-15.506C88.916,55.972,64,49.2,64,24A8,8,0,0,0,56,16Zm0,61.28A51.418,51.418,0,0,0,42.607,64,51.418,51.418,0,0,0,56,50.72,51.418,51.418,0,0,0,69.393,64,51.418,51.418,0,0,0,56,77.28Z"/><path d="M355.331,337.125A356.693,356.693,0,0,1,365.969,288H368a24.028,24.028,0,0,0,24-24V232a24.028,24.028,0,0,0-24-24H340.211c-9.317-51.192-24.032-91.268-43.783-119.175C273.5,56.427,243.747,40,208,40c-29.5,0-61.555,10.679-85.755,28.566C95,88.7,80,115.491,80,144c0,22.875,14.866,44.688,43.316,64H80a24.027,24.027,0,0,0-24,24v32a24.027,24.027,0,0,0,24,24h2.031a356.5,356.5,0,0,1,10.638,49.124l0,.011a336.068,336.068,0,0,1-6.885,128.994A24.016,24.016,0,0,0,109.05,496h229.9a24,24,0,0,0,23.283-29.812,336.35,336.35,0,0,1-6.9-129.062ZM340.535,328h-66.82c2.056-12.245,3.63-25.728,4.691-40H349.34A374.2,374.2,0,0,0,340.535,328ZM376,232v32a8.009,8.009,0,0,1-8,8H279.371c.416-9.128.629-18.5.629-28q0-10.125-.324-20H368A8.009,8.009,0,0,1,376,232ZM96,144c0-50.366,59.131-88,112-88,30.68,0,55.333,13.761,75.367,42.068,18.039,25.487,31.673,62.44,40.578,109.932h-45c-1.445-24.244-4.345-46.521-8.518-64.777C263.163,111.447,253.211,96,240,96s-23.163,15.447-30.426,47.223C205.4,161.479,202.5,183.756,201.056,208h-46.1C127.662,194.128,96,172,96,144ZM240,375.969c-.888-.451-8.434-5.24-15.387-37.264C219.059,313.124,216,279.49,216,244s3.059-69.124,8.613-94.705c6.953-32.024,14.5-36.813,15.387-37.264.888.451,8.434,5.24,15.387,37.264C260.941,174.876,264,208.51,264,244s-3.059,69.124-8.613,94.7C248.434,370.729,240.888,375.518,240,375.969ZM72,264V232a8.009,8.009,0,0,1,8-8H200.324q-.318,9.862-.324,20c0,9.5.213,18.872.629,28H80A8.009,8.009,0,0,1,72,264Zm129.594,24c1.061,14.272,2.635,27.755,4.691,40h-98.82a373.9,373.9,0,0,0-8.805-40ZM345.242,476.934A7.937,7.937,0,0,1,338.95,480H109.05a7.907,7.907,0,0,1-6.269-3.054,8.058,8.058,0,0,1-1.468-6.955A352.509,352.509,0,0,0,109.677,344h99.728c.057.256.111.523.169.777C216.837,376.553,226.789,392,240,392s23.163-15.447,30.426-47.223c.058-.254.112-.521.169-.777h67.729a352.821,352.821,0,0,0,8.382,126.05A7.98,7.98,0,0,1,345.242,476.934Z"/></svg>
