<svg id="Capa_1" enable-background="new 0 0 512 512" height="512" viewBox="0 0 512 512" width="512" xmlns="http://www.w3.org/2000/svg"><g><path d="m401.793 510.965c11.55 0 20.558-10.129 19.073-21.583-10.581-81.623-80.361-144.671-164.866-144.671s-154.285 63.048-164.866 144.671c-1.485 11.454 7.523 21.583 19.073 21.583z" fill="#b9e6ff"/><path d="m324.564 391.037c0-37.867-30.697-68.564-68.564-68.564s-68.564 30.697-68.564 68.564 30.697 57.197 68.564 57.197 68.564-19.33 68.564-57.197z" fill="#8daee1"/><ellipse cx="74.154" cy="238.006" fill="#ffd3bd" rx="71.34" ry="66.124"/><ellipse cx="437.881" cy="238.006" fill="#ffbe9d" rx="71.34" ry="66.124"/><path d="m453.257 238.006c0 102.116-88.315 167.168-197.257 167.168s-197.257-65.052-197.257-167.168 88.315-184.898 197.257-184.898 197.257 82.781 197.257 184.898z" fill="#ffd3bd"/><path d="m345.032 389.003c-238.641-5.376-235.091-247.684-166.758-320.978-70.293 28.278-119.531 93.736-119.531 169.98 0 102.116 88.315 167.168 197.257 167.168 32.036.001 62.284-5.631 89.032-16.17z" fill="#ffbe9d"/><g><g><path d="m182.058 260.243c.01 19.016-19.341 34.441-43.22 34.453s-43.245-15.394-43.254-34.41c-.01-19.016 19.341-34.442 43.22-34.454 23.878-.011 43.244 15.395 43.254 34.411z" fill="#eda1ab"/><path d="m329.943 260.169c.01 19.016 19.375 34.422 43.254 34.41s43.229-15.437 43.22-34.453c-.01-19.016-19.375-34.423-43.254-34.41-23.88.011-43.23 15.436-43.22 34.453z" fill="#eda1ab"/><path d="m298.375 244.618c-.013-26.193-18.989-28.645-42.397-28.633-23.407.012-42.381 2.482-42.368 28.675s18.999 47.416 42.406 47.404c23.407-.01 42.372-21.253 42.359-47.446z" fill="#fff"/></g><g fill="#4e5660"><path d="m143.42 230.294c-4.141 0-7.498-3.355-7.5-7.496-.004-7.5 2.913-14.553 8.214-19.859 5.301-5.307 12.351-8.231 19.851-8.235h.014c15.478 0 28.073 12.587 28.081 28.066.002 4.142-3.354 7.502-7.496 7.504-.002 0-.003 0-.004 0-4.141 0-7.498-3.355-7.5-7.496-.004-7.21-5.871-13.074-13.081-13.074-.002 0-.004 0-.006 0-3.493.002-6.777 1.364-9.247 3.836-2.469 2.472-3.828 5.757-3.826 9.251.002 4.142-3.354 7.502-7.496 7.504-.001-.001-.003-.001-.004-.001z"/><path d="m327.382 230.202c-4.141 0-7.498-3.355-7.5-7.497-.003-7.5 2.914-14.553 8.214-19.859 5.301-5.307 12.351-8.231 19.852-8.234h.015c15.477 0 28.071 12.587 28.079 28.065.002 4.142-3.354 7.502-7.496 7.504-.001 0-.003 0-.004 0-4.141 0-7.498-3.355-7.5-7.496-.004-7.21-5.871-13.073-13.08-13.073-.002 0-.004 0-.007 0-3.494.002-6.778 1.364-9.247 3.836s-3.828 5.757-3.827 9.251c.002 4.142-3.354 7.501-7.497 7.503.001 0-.001 0-.002 0z"/></g></g><path d="m332.469 288.888 5.244-12.514c2.88-6.872 12.615-6.872 15.495 0l5.244 12.514c.852 2.033 2.468 3.649 4.501 4.501l12.514 5.244c6.871 2.88 6.871 12.615 0 15.495l-12.514 5.244c-2.033.852-3.649 2.468-4.501 4.501l-5.244 12.514c-2.879 6.871-12.615 6.871-15.495 0l-5.244-12.514c-.852-2.033-2.468-3.649-4.501-4.501l-12.514-5.244c-6.871-2.879-6.871-12.615 0-15.495l12.514-5.244c2.033-.852 3.649-2.469 4.501-4.501z" fill="#6dc8dd"/><path d="m48.15 83.205-5.244 12.514c-2.88 6.872-12.615 6.872-15.495 0l-5.244-12.514c-.852-2.033-2.468-3.649-4.501-4.501l-12.512-5.244c-6.872-2.879-6.872-12.615 0-15.495l12.514-5.244c2.033-.852 3.649-2.468 4.501-4.501l5.244-12.514c2.879-6.871 12.615-6.871 15.495 0l5.244 12.514c.852 2.033 2.468 3.649 4.501 4.501l12.514 5.244c6.871 2.88 6.871 12.615 0 15.495l-12.514 5.244c-2.034.852-3.651 2.468-4.503 4.501z" fill="#81dcd9"/><path d="m244.718 5.254c6.478-5.625 16.085-5.625 22.563 0 31.697 27.525 86.071 38.19 119.777 63.321 48.974 36.514 67.951 91.593 70.243 132.561.532 9.512-9.582 15.885-18.017 11.457-32.076-16.84-65.142-50.92-90.49-93.525-22.729 11.561-67.15 14.23-92.794 14.23s-70.065-2.669-92.795-14.23c-25.348 42.606-58.413 76.685-90.489 93.525-8.435 4.428-18.549-1.945-18.017-11.457 2.292-40.968 21.269-96.047 70.243-132.561 33.706-25.131 88.079-35.797 119.776-63.321z" fill="#4e5660"/><path d="m169.963 44.465c-16.406 7.093-32.208 14.556-45.022 24.109-48.974 36.514-67.951 91.593-70.243 132.561-.532 9.511 9.582 15.885 18.017 11.457 32.076-16.84 65.142-50.919 90.489-93.525 6.197 3.152 14.012 5.638 22.613 7.594-17.705-19.564-23.392-59.267-15.854-82.196z" fill="#3a4351"/><path d="m463.85 77.024 5.244 12.514c2.879 6.871 12.615 6.871 15.495 0l5.244-12.514c.852-2.033 2.468-3.649 4.501-4.501l12.514-5.244c6.871-2.879 6.871-12.615 0-15.495l-12.514-5.244c-2.033-.852-3.649-2.468-4.501-4.501l-5.244-12.514c-2.879-6.872-12.615-6.872-15.495 0l-5.244 12.515c-.852 2.033-2.468 3.649-4.501 4.501l-12.514 5.244c-6.871 2.879-6.871 12.615 0 15.495l12.514 5.244c2.032.851 3.649 2.467 4.501 4.5z" fill="#8bd5fd"/><g fill="#8daee1"><path d="m123.971 409.925c-17.333 22.615-28.993 49.808-32.837 79.457-1.485 11.454 7.523 21.583 19.073 21.583h44.412c6.489-39.152-13.843-80.061-30.648-101.04z"/><path d="m388.03 409.925c17.333 22.615 28.993 49.808 32.837 79.457 1.485 11.454-7.523 21.583-19.073 21.583h-44.412c-6.49-39.152 13.842-80.061 30.648-101.04z"/></g></g></svg>