<svg id="Capa_1" enable-background="new 0 0 512 512" height="512" viewBox="0 0 512 512" width="512" xmlns="http://www.w3.org/2000/svg"><g><g><g fill="#fad6c6"><path d="m353.7 299.741c-4.864-7.575-14.948-9.773-22.523-4.909s-9.773 14.948-4.909 22.523c.787 1.226 1.735 2.341 2.818 3.315l-.864.906c-5.792 6.077-4.683 13.439-7.991 21.155-1.5-18.011-19.934-41.481-32.228-54.73.4 12.954 4.565 32.805.416 45.084 4.344 13.632 8.174 25.793 16.1 37.706 4.359 6.551 10.64 12.88 18.5 13.162 5.5.2 10.767-2.731 14.478-6.793s6.067-9.167 8.024-14.309c7.36-19.332 19.368-45.715 8.179-63.11z"/><path d="m189.059 377.462c2.857 18.474 20.2 32.9 38.8 34.8s37.321-7.424 49.208-21.851 17.432-33.34 18.126-52.02c.588-15.835-2.305-32.223-11.009-45.464-14.755-22.445-58.821-34.286-69.507-1.583-4.147 12.688-4.942 24.506-11.059 36.876-7.544 15.253-17.302 31.508-14.559 49.242z"/><path d="m316.307 468c-5.84-30.099-19.274-58.206-39.027-81.655-7.465-1.6-15.639-3.682-23.153-2.322s-14.886 6.442-16.552 13.9c-2.072 9.267 4.9 17.871 11.283 24.906 17.79 19.616 34.739 39.952 50.847 61.009-.366 2.89.272 6.963 2.956 8.094s5.724.982 8.614.612c11.808-1.537 22.934-6.404 32.078-14.031 2.059-1.579 3.795-3.54 5.111-5.776 1.314-2.276 1.525-5.024.575-7.474-2.016-4.487-8.065-5.307-12.927-4.556-7.419 1.145-14.2 2.303-19.805 7.293z"/></g><path d="m277.28 386.35c2.47 2.92 4.837 5.917 7.1 8.99-10.564 11.14-23.707 19.51-38.27 24.37-5.44-6.4-10.31-13.85-8.54-21.79 1.67-7.45 9.04-12.53 16.56-13.89s15.68.72 23.15 2.32z" fill="#35495e"/><path d="m348.46 472.74c-1.315 2.235-3.05 4.195-5.11 5.77-9.142 7.632-20.27 12.499-32.08 14.03-2.88.37-5.92.52-8.61-.61-2.29-.97-3.09-4.07-3.04-6.76 8.66.723 16.267-5.711 16.99-14.371.084-1.009.071-2.023-.04-3.029 5.55-4.8 12.23-5.94 19.54-7.06 4.86-.75 10.91.06 12.93 4.55.953 2.452.739 5.204-.58 7.48z" fill="#fcc200"/><path d="m294.774 338.388c-.019.686-.041 1.373-.064 2.062-.115 3.322-4.072 36.5-8.52 35.68-31.658-5.854-62.369-16.005-91.28-30.17 2.69-6.07 5.85-11.98 8.7-17.74 6.12-12.37 6.92-24.18 11.06-36.87 3.89-11.88 12.18-17.89 21.87-19.63 4.249 8.921 7.215 18.398 8.81 28.15 1.16 7.13 1.91 15.07 7.21 19.99 7.466 6.931 20.08 5.086 22.167-4.914 1.788-8.702 1.781-17.677-.023-26.376-.6-2.891-3.313-7.568-.5-9.194 2.847-1.646 9.335 4.2 10.852 6.037 3.376 4.1 5.066 9.309 6.35 14.461 3.183 12.79 3.73 25.464 3.368 38.514z" fill="#00a8e7"/><path d="m190.1 383.751c-3.46 9.265-1.4 23.47-.1 32.045-19.759 8.446-32.807 11.364-46.021 27.355-19.288 0-19.623 18.98-9.979 36.808 0 0 8 16.041 16 16.041 8.637 0 16-16.041 8-32.082 27.376-.742 50.98-9.811 64-32.081 4.693-8.027 17.044-34.7 15.566-43.716s-8.3-17.651-17.9-19.795c-9.079-2.028-22.338 4.107-27.586 11.583-.82 1.191-1.486 2.483-1.98 3.842z" fill="#fad6c6"/><path d="m158.41 464.77c7.33 15.75.08 31.23-8.41 31.23-8 0-16-16.04-16-16.04-9.36-17.3-9.32-35.69 8.32-36.75-.306 5.239 1.515 10.381 5.05 14.26 3.083 3.234 6.857 5.729 11.04 7.3z" fill="#fcc200"/><path d="m227.28 421.49c-10.329-9.458-24.298-13.888-38.19-12.11-1.03-8.21-1.68-18.41 1.01-25.63.496-1.358 1.161-2.648 1.98-3.84 5.25-7.48 18.51-13.61 27.59-11.58 9.59 2.14 16.42 10.77 17.9 19.79 1.06 6.49-5.04 22.12-10.29 33.37z" fill="#35495e"/><path d="m286.19 376.13c-2.477 5.099-5.541 9.892-9.13 14.28-11.88 14.43-30.61 23.76-49.21 21.86s-35.93-16.33-38.79-34.81c-1.7-11.03 1.43-21.49 5.85-31.5 28.911 14.165 59.622 24.316 91.28 30.17z" fill="#35495e"/><path d="m219.944 288.14c-25.262-.717-49.81 8.436-68.436 25.517 1.529 16.274 1.812 32.812 3.342 49.085-5.016 5.335-4.95 15.4.183 20.619s13.673 6.291 20.386 3.367 11.558-9.32 13.6-16.352 1.5-14.625-.438-21.686-5.224-13.673-8.682-20.128l.441 2.276c13.1-3.415 23.059-10.318 34.944-16.8 3.5-1.909 7-4 9.591-7.021s4.185-7.163 3.269-11.041-4.218-7.704-8.2-7.836z" fill="#fad6c6"/><circle cx="256" cy="160" fill="#fad6c6" r="136"/><path d="m226.04 115.13c5.44 30.74-.39 64.27-14.54 92.1-10.969 21.43-27.054 39.823-46.83 53.55-55.624-50.478-59.795-136.491-9.317-192.114s136.491-59.795 192.114-9.317c.326.296.65.593.973.891-48.531 25.989-102.758 39.518-157.81 39.37 10.71 9.52 21.19 13.81 35.41 15.52z" fill="#683b11"/><path d="m440 72c-26.183-7.722-52.7-15.931-80-16-25.512 22.064-62.488 41.936-88 64 56.031-3.268 119.564-19.643 168-48z" fill="#e22526"/><path d="m360 56c-69.831 58.983-154.786 119.078-232 168-8-16-16-32-16-48 76.707-38.2 155.745-91.51 215.882-152.556-.382-.861 29.512 32.671 32.118 32.556z" fill="#fcc200"/><path d="m213.855 145.404c-9.845-7.542-22.33-10.765-34.595-8.931-9.465 1.468-18.788 6.387-23.607 14.665-6.5 11.172-3.259 26.089 4.9 36.112s20.285 15.968 32.465 20.3c8.433 3 17.766 5.364 26.206 2.386 6.555-2.373 11.639-7.652 13.762-14.292 4.897-15.743-6.792-40.679-19.131-50.24z" fill="#fad6c6"/><circle cx="304" cy="200" fill="#f78663" r="32"/></g><g><path d="m447.941 71.031c-3.131-14.074-80.809-23.7-85.455-22.981-32.206-30.35-29.45-43.688-50.048-20.566-10.054-4.1-20.7-7.832-33.009-9.435-90.661-15.4-171.692 58.172-167.262 148.905-17.365 5.06-2.444 35.333 1.026 44.758 4.7 7.579 6.577 23.165 17.742 19.712 11.868 21.214 31.776 41.368 53.847 53.771-14.791 5.581-32.578 13.078-41.093 26.772.32 16.343 2 31.936 2.919 48.417-13.233 24.031 12.54 43.793 33.688 32.875-.205 5.86.1 11.727.91 17.534-15.177 6.117-28.956 10.921-41.083 24.58-7.262.673-15.715 5.305-18.689 13.838-6.489 17 8.258 48.94 25.317 54.472 16.417 2.993 25.345-17.082 22.056-32.481 35.049-3.8 56.071-21.319 67.711-50.713 17.81 20.974 38.271 43.465 55.129 65.985 1.154 27.856 50.862 9.109 62.242-7.748 12.2-17.514-5.744-33.166-32.134-22.988-6.332-24.609-17.55-47.692-32.988-67.876 2.106-3.309 3.972-6.766 5.583-10.342 13.133 25.438 37.709 30.944 53.211 7.539 11.407-23.728 25.011-54.78 15.268-77.264-12.036-26.744-49.063-15.98-46.975 10.99-4.834-7.565-10.204-14.775-16.068-21.573 52.45-16.799 90.759-61.997 98.736-116.491 1.232-8.646 1.687-17.384 1.357-26.111-.58-17.304-4.325-34.355-11.049-50.31 19.35-7.593 62.459-23.513 59.111-33.269zm-120.229-36.1c5.463 5.919 13.366 14.487 19.836 20.966-37.148 31.264-80.988 64.203-122.848 93.76-5.986-6.841-14.848-12.095-24.122-14.677 44.922-28.619 90.034-63.37 127.134-100.051zm-71.712-2.931c14.852-.016 29.594 2.558 43.562 7.606-18.715 17.075-38.301 33.17-58.68 48.221-17.026 2.915-35.061 3.421-52.394 4.074-16.459 7.628 4.467 20.433 11.914 24.134-23.142 15.061-47.617 29.417-72.386 42.736.663-70.014 57.815-126.771 127.984-126.771zm-135.729 148.8c7.013-3.535 16.428-8.466 24.008-12.591-.176 10.637 3.443 20.989 10.208 29.2-7.8 5.11-15.593 10.151-23.273 15.054-5.324-10.942-9.814-21.463-10.943-31.663zm35.536 58.867c-4.182-5.279-7.956-10.87-11.288-16.723 7.345-4.715 14.772-9.542 22.2-14.428 6.756 4.734 16.7 9.34 26.931 12.657-7.964 11.06-17.501 20.898-28.309 29.2-3.366-3.397-6.548-6.971-9.534-10.706zm169.727 231.786c3.885-1.471 10.191-3.326 15.981-2.725-4.361 5.961-12.346 10.3-20.485 13.331 1.871-3.067 3.048-6.507 3.449-10.077.267-.141.221-.128 1.055-.529zm-17.079-1.938c.032.169.087.329.13.5-.6 2.8-1.087 4.808-4.459 6.462-14.116-18.329-29.042-36.317-44.463-53.582 8.503-3.996 16.412-9.151 23.5-15.319 12.394 18.797 20.986 39.839 25.292 61.939zm-85.731-61.2c-8.062-4.584-17.129-7.11-26.4-7.354-.713-10.573 3.364-17.342.309-28.1 1.194-4.224 1.755-8.601 1.666-12.99.271-.943.17-.69.921-3 23.82 10.963 48.759 19.309 74.38 24.892-3.008 3.09-4.077 9.085.105 12.828-7.331 6.596-15.748 11.874-24.879 15.6-.219-.342-.388-.528-1.105-1.694-2.823-7.2-21.614-5.18-23.717.57-.213-.136-.279-.167-1.28-.753zm45.307-104.831c1.2 18.042-12.016 15.525-13.921.5 3.847.08 9.439-.123 13.921-.501zm-30.309-.637c2.344 37.854 48.058 39.969 46.324.666 3.983 19.916 5.308 43.185-2.606 63.543-26.175-5.333-51.642-13.689-75.888-24.9 2.836-5.8 6.162-11.562 8.587-18.312 8.085-4.226 19.607-10.493 21.752-21.24.606.085 1.216.165 1.831.242zm-65.494 76.553c-15.752 3.564-14.2-6.8-9.386-16.264-1.056-15.5-1.9-30.358-3.009-46.153 14.149-11.802 31.575-18.986 49.931-20.583 2.39 1.142 6.178 1.922 10.394 3.092-2.573 5.69-11.236 8.4-16.618 11.981-44.486 23.4-29.819 6.075-21.349 46.8-.942 3.897-1.472 7.882-1.581 11.89-1.513 4.036-4.512 7.34-8.382 9.237zm-18.828 99.7c-.114 2.826-.996 5.568-2.55 7.931-.246.318-.529.605-.844.855-7.331-5.762-16.245-22.6-13.612-32.993 2.805 6.565 8.018 12.061 15.8 15.859.898 2.688 1.307 5.516 1.206 8.348zm4.912-23.2c-3.15-1.815-6.226-4.081-7.564-8.348 15.879-20.223 46.142-20.044 47.152-30.475 6.927.523 13.6 2.831 19.369 6.7-10.062 20.572-29.736 31.156-58.959 32.123zm160.641-97.27c10.075 1.1 10.412-11.835 12.926-20 .928-3.292 5.06-5.154 5.2-10.3-2.772-7.785-10.483-14.345.351-19.6 22.282-2.474 10.268 35.363 4.246 49.956-13.147 41.172-28.532 26.083-40.244-4.023 1.573-8.602 2.131-17.36 1.66-26.092 11.308 16.484 6.57 28.509 15.859 30.057zm-31.979-74.4c-36.876 9.458-79 .95-109.442-23.084 10.4-8.761 51.227-46.1 31.344-52.816-21.447-2.814-52.82-20.385-48.413-41.518 1.175-5.635 4.91-10.4 9.876-13.31.69-.404 1.383-.811 2.078-1.221 2.094-1.235 4.395-2.098 6.783-2.553 20.083-3.827 31.149 6.319 42.233 21.713 6.476 3.359 12.486-.984 12.733-8.877 16.749-11.818 33.113-23.69 48.72-35.345 30.793-2.661 61.21-8.636 90.721-17.823 5.836 13.508 9.269 27.932 10.142 42.621-10.624.881-9.722 15.418-.011 15.975-.498 8.138-1.774 16.21-3.812 24.105-6.178 3.169-12.952-.1-20.02-1.25-19.1 8.311 2.69 20.861 14.174 18.6-15.637 37.255-47.915 64.965-87.108 74.78zm88.404-192.212c-21.959 7.249-44.49 12.637-67.353 16.107 19.226-14.837 37.1-29.186 54.853-44.085 18.8.469 37.653 4.941 56.151 10.171-14.122 6.936-28.707 12.885-43.651 17.807z"/><path d="m336 136c-11.787-.135-10.315 23.71-1.086 23.927 13.115 2.121 11.937-24.992 1.086-23.927z"/></g></g></svg>