<svg id="chicken" enable-background="new 0 0 300 300" height="512" viewBox="0 0 300 300" width="512" xmlns="http://www.w3.org/2000/svg"><g><circle cx="174" cy="124.164" fill="#ffded5" r="90"/><g fill="#4c241d"><path d="m82 74.164c-7.719 0-14-6.281-14-14s6.281-14 14-14 14 6.281 14 14-6.281 14-14 14zm0-20c-3.309 0-6 2.691-6 6s2.691 6 6 6 6-2.691 6-6-2.691-6-6-6z"/><circle cx="218.96" cy="230.112" r="4.276"/><circle cx="214.96" cy="34.112" r="4.276"/><path d="m48.652 251.512c-1.023 0-2.047-.391-2.828-1.172-1.562-1.562-1.562-4.094 0-5.656l14.695-14.695c1.562-1.562 4.094-1.562 5.656 0s1.562 4.094 0 5.656l-14.695 14.695c-.781.781-1.804 1.172-2.828 1.172z"/><path d="m63.348 251.512c-1.023 0-2.047-.391-2.828-1.172l-14.695-14.695c-1.562-1.562-1.562-4.094 0-5.656s4.094-1.562 5.656 0l14.695 14.695c1.562 1.562 1.562 4.094 0 5.656-.781.781-1.805 1.172-2.828 1.172z"/></g><g><path d="m76 134.164h-20c-8.837 0-16-7.163-16-16v-4h36z" fill="#fc8c29"/><path d="m76 138.164h-20c-11.027 0-20-8.973-20-20v-4c0-2.209 1.789-4 4-4h36c2.211 0 4 1.791 4 4v20c0 2.209-1.789 4-4 4zm-32-20c0 6.617 5.383 12 12 12h16v-12z" fill="#4c241d"/></g><g><path d="m84 134.164h-20c-8.837 0-16 7.163-16 16h36z" fill="#fc8c29"/><path d="m84 154.164h-36c-2.211 0-4-1.791-4-4 0-11.027 8.973-20 20-20h20c2.211 0 4 1.791 4 4v16c0 2.209-1.789 4-4 4zm-31.316-8h27.316v-8h-16c-5.215 0-9.664 3.344-11.316 8z" fill="#4c241d"/></g><path d="m240 62.164c-2.211 0-4-1.791-4-4v-8c0-2.209 1.789-4 4-4s4 1.791 4 4v8c0 2.209-1.789 4-4 4z" fill="#4c241d"/><path d="m240 86.164c-2.211 0-4-1.791-4-4v-8c0-2.209 1.789-4 4-4s4 1.791 4 4v8c0 2.209-1.789 4-4 4z" fill="#4c241d"/><path d="m232 70.164h-8c-2.211 0-4-1.791-4-4s1.789-4 4-4h8c2.211 0 4 1.791 4 4s-1.789 4-4 4z" fill="#4c241d"/><path d="m256 70.164h-8c-2.211 0-4-1.791-4-4s1.789-4 4-4h8c2.211 0 4 1.791 4 4s-1.789 4-4 4z" fill="#4c241d"/><g><path d="m247.749 163.564c-5.992 6.53-14.004 10.869-22.678 12.38 3.133-8.687 4.929-18.012 4.929-27.78 0-45.287-36.713-82-82-82s-82 36.713-82 82 36.713 82 82 82c22.349 0 42.585-8.966 57.375-23.466 17.548 1.115 34.377-9.478 40.354-26.913 1.847-5.384 2.458-10.889 2.02-16.221z" fill="#ffce56"/><path d="m148 234.164c-47.422 0-86-38.58-86-86s38.578-86 86-86 86 38.58 86 86c0 7.383-.98 14.752-2.922 21.992 5.215-1.994 9.945-5.18 13.723-9.299 1.078-1.17 2.738-1.598 4.246-1.078 1.504.516 2.559 1.871 2.691 3.457.496 6.078-.25 12.082-2.223 17.844-6.215 18.123-23.656 30.223-42.602 29.688-16.026 15.102-36.878 23.396-58.913 23.396zm0-164c-43.008 0-78 34.99-78 78s34.992 78 78 78c20.512 0 39.891-7.928 54.574-22.32.812-.797 1.926-1.217 3.055-1.137 16.074 1.002 31.074-8.934 36.316-24.219.66-1.93 1.152-3.891 1.477-5.877-5.258 3.652-11.309 6.164-17.664 7.273-1.426.23-2.836-.279-3.75-1.369-.918-1.092-1.184-2.588-.699-3.93 3.113-8.635 4.691-17.523 4.691-26.422 0-43.008-34.992-77.999-78-77.999z" fill="#4c241d"/></g><path d="m148 254.164c-2.211 0-4-1.791-4-4v-20c0-2.209 1.789-4 4-4s4 1.791 4 4v20c0 2.209-1.789 4-4 4z" fill="#4c241d"/><path d="m139.996 270.164c-.602 0-1.211-.135-1.785-.422-1.977-.988-2.777-3.391-1.789-5.367l5.105-10.211h-13.527c-2.211 0-4-1.791-4-4s1.789-4 4-4h20c1.387 0 2.672.719 3.402 1.896.73 1.18.797 2.652.176 3.893l-8 16c-.703 1.403-2.113 2.211-3.582 2.211z" fill="#4c241d"/><path d="" style="fill:#ffce56;stroke:#4c241d;stroke-width:8;stroke-linecap:round;stroke-linejoin:round;stroke-miterlimit:10"/><g><path d="m168 158.164v12c0 11.046-8.954 20-20 20-11.046 0-20-8.954-20-20v-12" fill="#ffce56"/><path d="m148 194.164c-13.234 0-24-10.766-24-24v-12c0-2.209 1.789-4 4-4s4 1.791 4 4v12c0 8.822 7.176 16 16 16s16-7.178 16-16v-12c0-2.209 1.789-4 4-4s4 1.791 4 4v12c0 13.235-10.766 24-24 24z" fill="#4c241d"/></g><path d="m140 70.166c-1.676 0-3.234-1.061-3.793-2.736l-8-24c-.699-2.096.434-4.361 2.527-5.061 2.117-.699 4.359.436 5.059 2.529l8 24c.699 2.096-.434 4.361-2.527 5.061-.422.141-.848.207-1.266.207z" fill="#4c241d"/><path d="m148 70.164c-2.211 0-4-1.791-4-4v-16c0-2.209 1.789-4 4-4s4 1.791 4 4v16c0 2.209-1.789 4-4 4z" fill="#4c241d"/><path d="m156.004 70.164c-1.176 0-2.336-.514-3.129-1.502-1.379-1.725-1.098-4.242.625-5.621l20-16c1.73-1.385 4.242-1.1 5.625.625 1.379 1.725 1.098 4.242-.625 5.621l-20 16c-.738.59-1.621.877-2.496.877z" fill="#4c241d"/><circle cx="104" cy="118.164" fill="#4c241d" r="8"/><g><path d="m220.427 186.647c2.117-3.977 3.917-8.148 5.364-12.481" fill="#ffce56"/><path d="m220.422 190.647c-.633 0-1.277-.15-1.875-.469-1.949-1.039-2.691-3.461-1.652-5.41 2.023-3.803 3.742-7.797 5.105-11.871.699-2.096 2.977-3.217 5.062-2.523 2.094.701 3.227 2.967 2.523 5.062-1.504 4.494-3.398 8.898-5.629 13.09-.718 1.351-2.104 2.121-3.534 2.121z" fill="#4c241d"/></g></g></svg>