<svg height="402pt" viewBox="0 -32 402.77124 402" width="402pt" xmlns="http://www.w3.org/2000/svg"><path d="m252.585938 198.679688c0 69.75-56.542969 126.292968-126.292969 126.292968s-126.292969-56.542968-126.292969-126.292968 56.542969-126.292969 126.292969-126.292969 126.292969 56.542969 126.292969 126.292969zm0 0" fill="#edebdc"/><g fill="#4c241d"><path d="m368.640625 73.457031c-11.886719 0-21.558594-9.664062-21.558594-21.550781s9.671875-21.554688 21.558594-21.554688 21.554687 9.667969 21.554687 21.554688-9.667968 21.550781-21.554687 21.550781zm0-29.453125c-4.359375 0-7.902344 3.546875-7.902344 7.902344 0 4.351562 3.542969 7.898438 7.902344 7.898438 4.355469 0 7.902344-3.546876 7.902344-7.898438 0-4.355469-3.546875-7.902344-7.902344-7.902344zm0 0"/><path d="m34.132812 305.566406c-11.886718 0-21.554687-9.667968-21.554687-21.554687s9.667969-21.554688 21.554687-21.554688c11.886719 0 21.558594 9.667969 21.558594 21.554688s-9.671875 21.554687-21.558594 21.554687zm0-29.457031c-4.355468 0-7.902343 3.546875-7.902343 7.902344 0 4.351562 3.546875 7.898437 7.902343 7.898437 4.359376 0 7.902344-3.546875 7.902344-7.898437 0-4.355469-3.542968-7.902344-7.902344-7.902344zm0 0"/><path d="m338.238281 10.945312c0 5.832032-4.726562 10.558594-10.558593 10.558594-5.832032 0-10.558594-4.726562-10.558594-10.558594 0-5.832031 4.726562-10.558593 10.558594-10.558593 5.832031 0 10.558593 4.726562 10.558593 10.558593zm0 0"/><path d="m92.480469 311.316406c0 5.832032-4.730469 10.5625-10.558594 10.5625-5.832031 0-10.5625-4.730468-10.5625-10.5625 0-5.828125 4.730469-10.558594 10.5625-10.558594 5.828125 0 10.558594 4.730469 10.558594 10.558594zm0 0"/><path d="m192.734375 87.867188c-1.746094 0-3.492187-.667969-4.828125-2-2.664062-2.667969-2.664062-6.988282 0-9.65625l24.136719-24.132813c2.664062-2.664063 6.984375-2.664063 9.652343 0 2.664063 2.667969 2.664063 6.988281 0 9.652344l-24.136718 24.136719c-1.332032 1.332031-3.078125 2-4.824219 2zm0 0"/><path d="m216.867188 87.867188c-1.746094 0-3.492188-.667969-4.824219-2l-24.136719-24.136719c-2.664062-2.664063-2.664062-6.984375 0-9.652344 2.667969-2.664063 6.988281-2.664063 9.652344 0l24.136718 24.132813c2.664063 2.667968 2.664063 6.988281 0 9.65625-1.332031 1.332031-3.082031 2-4.828124 2zm0 0"/><path d="m342.921875 333.625c-1.746094 0-3.496094-.667969-4.828125-2-2.664062-2.664062-2.664062-6.988281 0-9.652344l24.132812-24.132812c2.667969-2.667969 6.988282-2.667969 9.65625 0 2.664063 2.664062 2.664063 6.984375 0 9.652344l-24.136718 24.132812c-1.332032 1.332031-3.078125 2-4.824219 2zm0 0"/><path d="m367.054688 333.625c-1.746094 0-3.492188-.667969-4.828126-2l-24.132812-24.132812c-2.664062-2.667969-2.664062-6.988282 0-9.652344 2.667969-2.667969 6.988281-2.667969 9.652344 0l24.136718 24.132812c2.664063 2.664063 2.664063 6.988282 0 9.652344-1.335937 1.332031-3.082031 2-4.828124 2zm0 0"/></g><path d="m238.855469 253.613281c30.679687 0 59.492187-15.933593 77.480469-42.839843l38.652343-56.46875-204.800781-.207032c-33.898438.113282-61.441406-27.335937-61.441406-61.234375h-20.480469c-5.160156 18.027344-6.863281 37.136719-4.878906 56.882813 7.910156 78.683594 70.03125 142.433594 148.238281 151.371094v-20.277344c0-15.039063 12.191406-27.226563 27.230469-27.226563zm0 0" fill="#c1dbdc"/><path d="m211.625 307.945312c-.253906 0-.515625-.011718-.769531-.046874-81.148438-9.265626-146.019531-75.492188-154.261719-157.472657-2.054688-20.433593-.332031-40.433593 5.109375-59.441406.839844-2.925781 3.515625-4.945313 6.5625-4.945313h20.480469c3.769531 0 6.828125 3.054688 6.828125 6.828126 0 14.566406 5.683593 28.253906 16 38.53125 10.273437 10.242187 23.90625 15.875 38.402343 15.875h.1875l204.828126.207031c2.53125 0 4.855468 1.40625 6.035156 3.648437 1.179687 2.238282 1.023437 4.945313-.40625 7.03125l-38.652344 56.464844c-19.160156 28.667969-50.242188 45.816406-83.113281 45.816406-11.25 0-20.402344 9.152344-20.402344 20.398438v20.28125c0 1.945312-.828125 3.800781-2.277344 5.09375-1.261719 1.117187-2.882812 1.730468-4.550781 1.730468zm-138.113281-208.253906c-3.910157 15.847656-5.035157 32.433594-3.332031 49.375 7.34375 73.046875 63.394531 132.539063 134.621093 144.210938v-12.4375c0-18.78125 15.277344-34.054688 34.054688-34.054688 28.300781 0 55.144531-14.878906 71.800781-39.804687l31.394531-45.859375-191.871093-.195313c-.074219 0-.15625 0-.230469 0-18.109375 0-35.164063-7.046875-48.015625-19.851562-11.277344-11.25-18.128906-25.742188-19.675782-41.382813zm0 0" fill="#4c241d"/><path d="m354.988281 154.304688-38.652343 56.46875c-17.988282 26.90625-46.800782 42.839843-77.480469 42.839843-15.039063 0-27.230469 12.191407-27.230469 27.226563v20.277344c1.390625.15625 2.746094.433593 4.144531.554687 92.488281 8.183594 171.566407-58.84375 180.175781-147.367187zm0 0" fill="#efefd2"/><path d="m230.671875 309.160156c-5.132813 0-10.296875-.226562-15.507813-.6875-.929687-.078125-1.863281-.214844-2.796874-.359375l-1.523438-.214843c-3.445312-.390626-6.046875-3.3125-6.046875-6.78125v-20.277344c0-18.78125 15.277344-34.054688 34.054687-34.054688 28.304688 0 55.144532-14.878906 71.800782-39.804687l38.699218-56.527344c1.273438-1.859375 3.378907-2.972656 5.632813-2.972656h40.960937c1.925782 0 3.757813.8125 5.054688 2.238281s1.925781 3.332031 1.738281 5.246094c-8.542969 87.867187-84.140625 154.195312-172.066406 154.195312zm-12.21875-14.113281c83.605469 6.296875 157.910156-52.855469 169.785156-133.914063h-29.652343l-36.617188 53.492188c-19.160156 28.667969-50.242188 45.8125-83.113281 45.8125-11.25 0-20.402344 9.15625-20.402344 20.402344zm0 0" fill="#4c241d"/><path d="m302.867188 192.160156c0 4.679688-3.792969 8.476563-8.472657 8.476563-4.683593 0-8.476562-3.796875-8.476562-8.476563 0-4.679687 3.792969-8.476562 8.476562-8.476562 4.679688 0 8.472657 3.796875 8.472657 8.476562zm0 0" fill="#4c241d"/><path d="m127.5625 78.769531c-14.894531 14.894531-44.949219 8.988281-44.949219 8.988281s-5.90625-30.054687 8.988281-44.949218c14.894532-14.894532 44.949219-8.988282 44.949219-8.988282s5.90625 30.054688-8.988281 44.949219zm0 0" fill="#9dc1e4"/><path d="m96.207031 95.730469c-8.199219 0-14.328125-1.160157-14.910156-1.273438-2.71875-.53125-4.847656-2.660156-5.382813-5.382812-.269531-1.367188-6.410156-33.820313 10.863282-51.089844 17.257812-17.265625 49.707031-11.132813 51.089844-10.867187 2.722656.535156 4.847656 2.664062 5.382812 5.386718.265625 1.375 6.402344 33.820313-10.863281 51.09375-9.964844 9.96875-24.992188 12.132813-36.179688 12.132813zm-7.570312-14.003907c9.449219.925782 25.714843.597657 34.097656-7.78125 8.425781-8.429687 8.757813-24.652343 7.792969-34.089843-9.460938-.972657-25.71875-.597657-34.097656 7.78125-8.425782 8.429687-8.757813 24.65625-7.792969 34.089843zm38.925781-2.957031h.066406zm0 0" fill="#4c241d"/><path d="m30.625 78.769531c14.894531 14.894531 44.949219 8.988281 44.949219 8.988281s5.902343-30.054687-8.992188-44.949218c-14.890625-14.894532-44.945312-8.988282-44.945312-8.988282s-5.90625 30.054688 8.988281 44.949219zm0 0" fill="#9dc1e4"/><path d="m61.980469 95.730469c-11.191407 0-26.210938-2.164063-36.183594-12.132813-17.265625-17.273437-11.128906-49.71875-10.863281-51.09375.539062-2.726562 2.664062-4.851562 5.386718-5.386718 1.371094-.265626 33.824219-6.398438 51.089844 10.867187 17.269532 17.265625 11.132813 49.714844 10.863282 51.089844-.535157 2.71875-2.664063 4.851562-5.382813 5.382812-.582031.113281-6.714844 1.273438-14.910156 1.273438zm-26.53125-21.785157c8.429687 8.421876 24.65625 8.738282 34.089843 7.792969.941407-9.453125.601563-25.71875-7.78125-34.101562-8.425781-8.425781-24.644531-8.738281-34.085937-7.796875-.945313 9.457031-.601563 25.71875 7.777344 34.105468zm0 0" fill="#4c241d"/><path d="m211.625 331.796875c-11.308594 0-20.476562-9.167969-20.476562-20.480469v-40.957031c0-11.3125 9.167968-20.480469 20.476562-20.480469 11.3125 0 20.480469 9.167969 20.480469 20.480469v40.957031c0 11.3125-9.167969 20.480469-20.480469 20.480469zm0 0" fill="#9dc1e4"/><path d="m211.625 338.625c-15.054688 0-27.304688-12.246094-27.304688-27.308594v-40.957031c0-15.0625 12.25-27.308594 27.304688-27.308594 15.058594 0 27.308594 12.246094 27.308594 27.308594v40.957031c0 15.0625-12.25 27.308594-27.308594 27.308594zm0-81.921875c-7.527344 0-13.652344 6.128906-13.652344 13.65625v40.957031c0 7.527344 6.125 13.65625 13.652344 13.65625 7.53125 0 13.65625-6.128906 13.65625-13.65625v-40.957031c0-7.527344-6.125-13.65625-13.65625-13.65625zm0 0" fill="#4c241d"/></svg>