<svg id="Capa_1" enable-background="new 0 0 512 512" height="512" viewBox="0 0 512 512" width="512" xmlns="http://www.w3.org/2000/svg"><g><g><path d="m504.5 337.724c0 65.02-52.71 117.73-117.72 117.73h-261.56c-65.01 0-117.72-52.71-117.72-117.73 0-63.89 50.89-115.88 114.35-117.67 26.33-53.96 81.44-91.29 145.35-91.99.62-.02 1.24-.02 1.86-.02 66.35 0 123.48 39.47 149.19 96.22 49.73 13.77 86.25 59.35 86.25 113.46z" fill="#9bd069"/><path d="m175.28 252.594s-88.2 22.83-88.2 88.2c0 65.36 30.86 97.5 72.56 114.66h-34.42c-65.01 0-117.72-52.71-117.72-117.73 0-63.89 50.89-115.88 114.35-117.67 26.33-53.96 81.44-91.29 145.35-91.99-71.54 1.4-98.38 83.38-91.92 124.53z" fill="#7dbe3b"/><g fill="#c17d4f"><path d="m220.5 455.454-39.93-58.55 16.44-40.72c3.1-7.69-.61-16.43-8.3-19.53-7.67-3.1-16.42.61-19.52 8.29l-8.95 22.17-22.09-32.39c-4.67-6.84-14-8.6-20.84-3.94-6.85 4.67-8.61 14-3.94 20.85l37.84 55.47c.01.02.02.03.03.05l32.95 48.3"/><path d="m325.3 455.454 41.53-91.53 32.96-5.98c8.15-1.48 13.56-9.29 12.08-17.44s-9.28-13.56-17.44-12.08l-12.52 2.27 10.32-22.75c3.43-7.55.09-16.44-7.46-19.86-7.54-3.42-16.43-.08-19.85 7.46l-22.22 48.96c-.01.01-.01.03-.02.05l-4.78 10.53-25.68-91.54c-2.24-7.98-10.52-12.63-18.49-10.39-7.98 2.24-12.63 10.52-10.4 18.49l35.32 125.87-26.3 57.94"/></g><circle cx="63.623" cy="243.544" fill="#da4a54" r="23.457"/><path d="m71.466 265.654c-2.46.88-5.1 1.35-7.85 1.35-12.95 0-23.45-10.51-23.45-23.46 0-12.96 10.5-23.46 23.45-23.46 2.75 0 5.39.47 7.85 1.35-9.1 3.22-15.62 11.9-15.62 22.11 0 10.2 6.52 18.89 15.62 22.11z" fill="#c32430"/><g fill="#da4a54"><circle cx="215.564" cy="268.288" r="23.457"/><circle cx="341.299" cy="150.858" r="23.457"/><circle cx="443.845" cy="304.723" r="23.457"/></g><path d="m223.407 290.398c-2.46.88-5.1 1.35-7.85 1.35-12.95 0-23.45-10.51-23.45-23.46 0-12.96 10.5-23.46 23.45-23.46 2.75 0 5.39.47 7.85 1.35-9.1 3.22-15.62 11.9-15.62 22.11 0 10.2 6.52 18.89 15.62 22.11z" fill="#c32430"/><path d="m349.142 172.968c-2.46.88-5.1 1.35-7.85 1.35-12.95 0-23.45-10.51-23.45-23.46 0-12.96 10.5-23.46 23.45-23.46 2.75 0 5.39.47 7.85 1.35-9.1 3.22-15.62 11.9-15.62 22.11 0 10.2 6.52 18.89 15.62 22.11z" fill="#c32430"/><path d="m451.688 326.833c-2.46.88-5.1 1.35-7.85 1.35-12.95 0-23.45-10.51-23.45-23.46 0-12.96 10.5-23.46 23.45-23.46 2.75 0 5.39.47 7.85 1.35-9.1 3.22-15.62 11.9-15.62 22.11 0 10.2 6.52 18.89 15.62 22.11z" fill="#c32430"/></g><g><path d="m423.616 218.017c-4.628-9.69-10.159-18.893-16.485-27.508 3.284-3.351 7.811-8.299 12.594-14.542 2.052.119 4.717.223 7.776.223 2.816 0 5.968-.088 9.282-.333 16.382-1.212 28.434-5.572 35.821-12.959 2.929-2.929 2.929-7.678-.001-10.607-2.928-2.929-7.677-2.929-10.606 0-4.672 4.673-13.692 7.643-26.086 8.589-2.15.164-4.226.249-6.177.285 5.441-9.238 10.249-19.921 12.787-31.519.886-4.046-1.677-8.045-5.723-8.93-4.046-.886-8.045 1.677-8.93 5.723-5.105 23.325-21.561 43.133-30.24 52.277-7.696-8.747-16.28-16.73-25.65-23.787.176-1.332.276-2.688.276-4.068 0-17.07-13.888-30.957-30.957-30.957-8.182 0-15.627 3.196-21.167 8.398-16.476-5.142-33.63-7.755-51.072-7.755-32.698 0-64.488 9.25-91.933 26.751-8.692 5.543-16.81 11.842-24.308 18.776.803-25.935 7.473-74.859 43.935-103.639 3.252-2.566 3.807-7.282 1.24-10.534-2.565-3.251-7.282-3.806-10.533-1.24-23.454 18.512-39.385 46.948-46.159 82.336-5.68-12.547-14.067-25.927-26.449-38.309-2.929-2.928-7.677-2.929-10.607 0-2.929 2.929-2.929 7.677 0 10.606 26.077 26.078 32.121 57.863 33.518 71.712.055 1.845.131 3.4.206 4.635-8.03 9.553-15.037 19.975-20.842 31.125-11.591.739-22.92 3.063-33.789 6.93-5.358-4.437-12.23-7.107-19.714-7.107-17.069 0-30.957 13.887-30.957 30.957 0 2.966.428 5.833 1.211 8.551-4.714 5.023-9.024 10.435-12.837 16.155-2.298 3.446-1.366 8.103 2.08 10.401 1.278.852 2.724 1.26 4.153 1.26 2.424 0 4.802-1.173 6.247-3.341 2.554-3.831 5.36-7.506 8.383-10.994 5.593 5.514 13.264 8.925 21.72 8.925 17.069 0 30.957-13.887 30.957-30.957 0-3.906-.734-7.641-2.06-11.085 9.531-2.965 19.43-4.624 29.541-4.908 2.79-.079 5.306-1.7 6.529-4.208 12.651-25.931 32.225-47.854 56.603-63.4 25.031-15.962 54.031-24.399 83.867-24.399 14.563 0 28.901 1.995 42.743 5.923-.946 2.964-1.46 6.118-1.46 9.391 0 17.07 13.888 30.957 30.957 30.957 10.139 0 19.156-4.9 24.806-12.456 19.476 15.46 35.058 35.35 45.313 57.995.918 2.026 2.688 3.541 4.831 4.134 47.544 13.165 80.75 56.849 80.75 106.232 0 60.781-49.444 110.23-110.22 110.23h-49.843l12.213-26.922c1.711-3.772.04-8.217-3.731-9.928-3.774-1.712-8.218-.04-9.929 3.732l-15.024 33.118h-16.476l21.489-47.34c.73-1.609.869-3.425.392-5.126l-35.318-125.865c-1.114-3.981 1.221-8.13 5.207-9.249 1.924-.541 3.945-.3 5.69.681 1.747.981 3.007 2.585 3.548 4.515l25.681 91.54c.852 3.034 3.509 5.212 6.65 5.452 3.125.24 6.098-1.508 7.4-4.379l4.779-10.53c.021-.046.041-.092.061-.137l22.181-48.874c.826-1.822 2.313-3.213 4.188-3.917s3.911-.637 5.736.191c1.825.826 3.218 2.313 3.922 4.186.704 1.875.636 3.914-.196 5.744l-10.32 22.75c-1.152 2.54-.8 5.51.915 7.709s4.511 3.267 7.253 2.769l12.521-2.27c4.063-.737 7.983 1.971 8.723 6.04.738 4.07-1.972 7.982-6.04 8.721l-32.96 5.98c-2.422.439-4.475 2.039-5.491 4.281l-13.021 28.7c-1.711 3.772-.041 8.217 3.731 9.929s8.217.04 9.929-3.731l11.396-25.121 29.094-5.279c12.207-2.217 20.336-13.952 18.119-26.16-2.124-11.693-12.99-19.643-24.624-18.344l4.434-9.774c2.488-5.478 2.694-11.594.578-17.222-2.114-5.626-6.296-10.091-11.769-12.57-5.471-2.481-11.581-2.685-17.206-.571-5.626 2.114-10.091 6.291-12.571 11.761l-18.523 40.815-20.127-71.742c-1.624-5.788-5.403-10.596-10.643-13.54-5.241-2.945-11.316-3.67-17.094-2.045-11.941 3.352-18.938 15.792-15.595 27.737l34.581 123.235-23.173 51.048h-63.057l-35.434-51.958 14.939-37.003c2.248-5.577 2.192-11.693-.156-17.223-2.351-5.533-6.718-9.819-12.289-12.065-5.568-2.25-11.683-2.196-17.215.152-5.534 2.35-9.821 6.712-12.07 12.284l-3.7 9.166-14.19-20.807c-6.991-10.239-21.014-12.889-31.26-5.908-10.251 6.989-12.902 21.017-5.91 31.273l37.749 55.338c.039.061.08.122.121.182l24.947 36.569h-44.772c-60.776.002-110.22-49.447-110.22-110.228 0-13.033 2.251-25.776 6.691-37.876 1.427-3.889-.568-8.198-4.457-9.625-3.889-1.426-8.197.569-9.625 4.457-5.048 13.761-7.609 28.243-7.609 43.044 0 69.052 56.173 125.23 125.22 125.23h261.56c69.047 0 125.22-56.178 125.22-125.23 0-54.93-36.167-103.654-88.384-119.705zm-359.993 41.487c-8.799 0-15.957-7.158-15.957-15.957s7.158-15.957 15.957-15.957 15.957 7.158 15.957 15.957c0 8.798-7.158 15.957-15.957 15.957zm277.676-92.687c-8.799 0-15.957-7.158-15.957-15.957s7.158-15.957 15.957-15.957 15.957 7.158 15.957 15.957-7.158 15.957-15.957 15.957zm-183.774 236.245c-.039-.061-.079-.122-.12-.182l-37.838-55.468c-2.332-3.42-1.45-8.099 1.965-10.427 3.416-2.328 8.094-1.444 10.422 1.967l22.09 32.39c1.559 2.285 4.254 3.529 7 3.231 2.751-.297 5.115-2.083 6.151-4.649l8.95-22.171c.748-1.855 2.177-3.308 4.021-4.091 1.843-.783 3.879-.802 5.739-.05 1.859.75 3.314 2.177 4.098 4.02.783 1.844.801 3.886.051 5.746l-16.439 40.72c-.938 2.324-.653 4.963.759 7.033l31.93 46.82h-18.154z"/><path d="m215.564 299.247c17.069 0 30.957-13.887 30.957-30.957s-13.888-30.957-30.957-30.957-30.957 13.887-30.957 30.957 13.888 30.957 30.957 30.957zm0-46.914c8.799 0 15.957 7.158 15.957 15.957s-7.158 15.957-15.957 15.957-15.957-7.158-15.957-15.957c0-8.798 7.159-15.957 15.957-15.957z"/><path d="m443.845 335.682c17.069 0 30.957-13.887 30.957-30.957s-13.888-30.957-30.957-30.957-30.957 13.887-30.957 30.957 13.887 30.957 30.957 30.957zm0-46.914c8.799 0 15.957 7.158 15.957 15.957s-7.158 15.957-15.957 15.957-15.957-7.158-15.957-15.957 7.158-15.957 15.957-15.957z"/></g></g></svg>