<svg height="512" viewBox="0 0 128 128" width="512" xmlns="http://www.w3.org/2000/svg"><g><g><path d="m93.566 49.66a70.208 70.208 0 0 0 14.26-1.808 3.985 3.985 0 0 1 4.341 5.8c-3.549 6.654-9.567 15.248-17.277 16.148z" fill="#f2ae27"/><path d="m34.434 49.66a70.208 70.208 0 0 1 -14.26-1.808 3.985 3.985 0 0 0 -4.341 5.8c3.549 6.654 9.567 15.248 17.277 16.148z" fill="#f2ae27"/><path d="m30.062 62.932c0-24.869 15.195-49.182 33.938-49.182s33.938 24.313 33.938 49.182-15.195 40.876-33.938 40.876-33.938-16.008-33.938-40.876z" fill="#fdd82e"/><g fill="#f2ae27"><path d="m68.562 63.186c0 3.758-2.042 9.2-4.562 9.2s-4.562-5.444-4.562-9.2 2.042-4.407 4.562-4.407 4.562.649 4.562 4.407z"/><circle cx="76.438" cy="40.938" r="3"/><circle cx="51.562" cy="40.938" r="3"/></g></g><g fill="#251333"><path d="m113.223 48.263a5.654 5.654 0 0 0 -5.763-2.123 82.231 82.231 0 0 1 -9.619 1.542 64.025 64.025 0 0 0 -4.633-13.075 1.75 1.75 0 1 0 -3.146 1.532 62.392 62.392 0 0 1 6.125 26.793c0 22.668-13.537 39.126-32.187 39.126s-32.188-16.458-32.188-39.126c0-24.825 15.342-47.432 32.188-47.432 5.421 0 10.858 2.271 15.724 6.566a1.75 1.75 0 0 0 2.316-2.624 28.609 28.609 0 0 0 -14.491-7.169 8.978 8.978 0 0 1 3.6-3.013 1.75 1.75 0 1 0 -1.547-3.14 13.014 13.014 0 0 0 -3.856 2.8v-2.42a1.75 1.75 0 0 0 -3.5 0v2.42a13.016 13.016 0 0 0 -3.846-2.8 1.75 1.75 0 0 0 -1.549 3.138 8.971 8.971 0 0 1 3.6 3.017c-13.869 2.16-25.951 16.765-30.351 35.401a82.155 82.155 0 0 1 -9.551-1.535 5.65 5.65 0 0 0 -5.768 2.122 5.728 5.728 0 0 0 -.491 6.211 51.435 51.435 0 0 0 6.584 9.767 1.75 1.75 0 0 0 2.626-2.313 47.9 47.9 0 0 1 -6.122-9.1 2.234 2.234 0 0 1 .191-2.451 2.159 2.159 0 0 1 2.234-.817 87.054 87.054 0 0 0 9.579 1.564 66.432 66.432 0 0 0 -1.067 11.807c0 19.483 9.344 34.744 23.438 40.324v11l-6.406 2.988a1.749 1.749 0 1 0 1.478 3.171l4.928-2.3v3.386a1.75 1.75 0 0 0 3.5 0v-3.249l3.362 1.741a1.751 1.751 0 0 0 1.61-3.109l-4.975-2.573v-9.9a34.006 34.006 0 0 0 17.5 0v9.9l-4.972 2.573a1.751 1.751 0 0 0 1.61 3.109l3.362-1.741v3.249a1.75 1.75 0 0 0 3.5 0v-3.378l4.928 2.3a1.749 1.749 0 1 0 1.478-3.171l-6.406-2.991v-11c12.24-4.846 20.889-17 22.954-32.871 6.465-2.847 11.431-10.139 14.511-15.914a5.725 5.725 0 0 0 -.492-6.212zm-2.6 4.563c-2.507 4.7-6.323 10.477-11.04 13.407.06-1.088.1-2.185.1-3.3a65.118 65.118 0 0 0 -1.117-11.8 87.045 87.045 0 0 0 9.635-1.57 2.154 2.154 0 0 1 2.229.818 2.232 2.232 0 0 1 .196 2.445z"/><path d="m86.7 30.224a1.75 1.75 0 1 0 2.921-1.924c-.892-1.353-1.845-2.655-2.83-3.87a1.75 1.75 0 0 0 -2.719 2.2c.913 1.127 1.797 2.336 2.628 3.594z"/><path d="m87.289 79.116a32.253 32.253 0 0 1 -2.869 5.575 1.75 1.75 0 1 0 2.935 1.909 35.808 35.808 0 0 0 3.184-6.181 1.75 1.75 0 0 0 -3.25-1.3z"/><path d="m57.687 63.187c0 3.93 2.11 10.951 6.313 10.951s6.312-7.021 6.312-10.951c0-4.086-2.124-6.158-6.312-6.158s-6.313 2.071-6.313 6.158zm9.125 0c0 3.816-2.046 7.445-2.812 7.451s-2.813-3.638-2.813-7.451c0-2.291.668-2.658 2.813-2.658s2.812.371 2.812 2.658z"/><path d="m76.437 36.188a4.75 4.75 0 1 0 4.75 4.75 4.755 4.755 0 0 0 -4.75-4.75zm0 6a1.25 1.25 0 1 1 1.25-1.25 1.252 1.252 0 0 1 -1.25 1.25z"/><path d="m46.812 40.938a4.75 4.75 0 1 0 4.75-4.75 4.756 4.756 0 0 0 -4.75 4.75zm6 0a1.25 1.25 0 1 1 -1.25-1.25 1.251 1.251 0 0 1 1.25 1.25z"/></g></g></svg>