<?xml version="1.0" encoding="iso-8859-1"?>
<!-- Generator: Adobe Illustrator 19.0.0, SVG Export Plug-In . SVG Version: 6.00 Build 0)  -->
<svg xmlns="http://www.w3.org/2000/svg" xmlns:xlink="http://www.w3.org/1999/xlink" version="1.1" id="Capa_1" x="0px" y="0px" viewBox="0 0 505 505" style="enable-background:new 0 0 505 505;" xml:space="preserve" width="512" height="512">
<g>
	<path style="fill:#85453D;" d="M245,200.25h-15c0-4.136-3.364-7.5-7.5-7.5h-55v-15h55C234.906,177.75,245,187.844,245,200.25z"/>
	<path style="fill:#FFB4A9;" d="M275,200.25h-15c0-12.406,10.094-22.5,22.5-22.5h55v15h-55C278.364,192.75,275,196.114,275,200.25z"/>
	<path style="fill:#353535;" d="M492.613,427.876l-9.972-29.915c0,0-0.028-0.085-0.031-0.084c-0.994-2.978-3.799-5.127-7.111-5.127   h-68c-4.136,0-7.5-3.364-7.5-7.5v-100h-15v100c0,12.406,10.093,22.5,22.5,22.5h62.593l8.29,24.871   c1.31,3.93,5.559,6.051,9.487,4.743C491.799,436.054,493.923,431.806,492.613,427.876z"/>
	<path style="fill:#A45E43;" d="M104.998,285.25v100c0,4.136-3.364,7.5-7.5,7.5h-68c-3.312,0-6.117,2.149-7.111,5.127   c-0.002-0.001-0.031,0.084-0.031,0.084l-9.972,29.915c-1.31,3.93,0.814,8.178,4.744,9.487c3.928,1.308,8.177-0.813,9.487-4.743   l8.29-24.871h62.593c12.407,0,22.5-10.094,22.5-22.5v-100H104.998z"/>
	<path style="fill:#85453D;" d="M181,285.25v196.592l24.87,8.29c3.93,1.31,6.053,5.557,4.744,9.487   c-1.31,3.93-5.559,6.054-9.487,4.744l-29.998-10c-3.063-1.021-5.128-3.887-5.128-7.115V285.25H181z"/>
	<path style="fill:#4F4F4F;" d="M325,285.25v196.592l-24.87,8.29c-3.93,1.31-6.053,5.557-4.744,9.487   c1.31,3.93,5.559,6.054,9.487,4.744l29.998-10c3.063-1.021,5.128-3.887,5.128-7.115V285.25H325z"/>
	<path style="fill:#FF8D7E;" d="M407.5,177.75c45.491,0,82.5-37.009,82.5-82.5c0-4.142,3.358-7.5,7.5-7.5s7.5,3.358,7.5,7.5   c0,53.762-43.738,97.5-97.5,97.5h-45v-15H407.5z"/>
	<path style="fill:#A45E43;" d="M97.5,192.75c-45.491,0-82.5,37.009-82.5,82.5c0,4.142-3.358,7.5-7.5,7.5s-7.5-3.358-7.5-7.5   c0-53.762,43.738-97.5,97.5-97.5h45v15H97.5z"/>
	<polygon style="fill:#FF4996;" points="142.5,273.782 172.5,345.25 202.5,345.25 202.5,315.25  "/>
	<polygon style="fill:#FF6B8A;" points="142.5,273.782 82.5,315.25 82.5,345.25 172.5,345.25 172.5,303.782  "/>
	<path style="fill:#FFA754;" d="M187.5,255.25v-70c0-11.046-8.954-20-20-20h-30v120l35,18.532c7.962,7.128,18.472,11.468,30,11.468   v-20.335C202.5,279.704,196.829,265.825,187.5,255.25z"/>
	<path style="fill:#FFCB63;" d="M157.5,255.25v-70c0-11.046-8.954-20-20-20h-20c-11.046,0-20,8.954-20,20v70   c-9.329,10.575-15,24.454-15,39.665v20.335c11.528,0,22.038-4.34,30-11.468c7.962,7.128,18.472,11.468,30,11.468   s22.038-4.34,30-11.468v-8.867C172.5,279.704,166.829,265.825,157.5,255.25z"/>
	<path style="fill:#85453D;" d="M143.5,45.25v90c24.853,0,45-20.147,45-45S168.353,45.25,143.5,45.25z"/>
	<path style="fill:#A45E43;" d="M158.5,90.25c0-24.853-6.716-45-15-45c-24.853,0-45,20.147-45,45s20.147,45,45,45   C151.784,135.25,158.5,115.103,158.5,90.25z"/>
	<path style="fill:#40211D;" d="M173.5,15.25c-0.858,0-1.693,0.088-2.511,0.227C170.99,15.4,171,15.327,171,15.25   c0-8.284-6.716-15-15-15c-5.22,0-9.813,2.67-12.5,6.715C140.813,2.92,136.22,0.25,131,0.25c-8.284,0-15,6.716-15,15   c0,0.077,0.01,0.15,0.011,0.227c-0.818-0.138-1.654-0.227-2.511-0.227c-8.284,0-15,6.716-15,15s6.716,15,15,15h60   c8.284,0,15-6.716,15-15S181.784,15.25,173.5,15.25z"/>
	<path style="fill:#85453D;" d="M222.5,222.75h-65c-4.143,0-7.5-3.357-7.5-7.5s3.357-7.5,7.5-7.5h65c4.136,0,7.5-3.364,7.5-7.5   c0-4.143,3.357-7.5,7.5-7.5s7.5,3.357,7.5,7.5C245,212.656,234.906,222.75,222.5,222.75z"/>
	<path style="fill:#FF8D7E;" d="M362.5,135.25v-90c24.853,0,45,20.147,45,45S387.353,135.25,362.5,135.25z"/>
	<path style="fill:#FFB4A9;" d="M377.5,90.25c0,24.853-6.716,45-15,45c-24.853,0-45-20.147-45-45s20.147-45,45-45   C370.784,45.25,377.5,65.397,377.5,90.25z"/>
	<path style="fill:#353535;" d="M362.5,255.25v75c24.853,0,45-20.147,45-45L362.5,255.25z"/>
	<path style="fill:#4F4F4F;" d="M377.5,285.25l-15-30l-45,30c0,24.853,20.147,45,45,45C370.784,330.25,377.5,310.103,377.5,285.25z"/>
	<path style="fill:#FFE2A8;" d="M387.5,165.25h-30l20,120h30v-100C407.5,174.204,398.546,165.25,387.5,165.25z"/>
	<path style="fill:#FFF0D3;" d="M357.5,165.25h-20c-11.046,0-20,8.954-20,20v100h60v-100C377.5,174.204,368.546,165.25,357.5,165.25   z"/>
	<path style="fill:#FFB4A9;" d="M347.5,222.75h-65c-12.406,0-22.5-10.094-22.5-22.5c0-4.143,3.357-7.5,7.5-7.5s7.5,3.357,7.5,7.5   c0,4.136,3.364,7.5,7.5,7.5h65c4.143,0,7.5,3.357,7.5,7.5S351.643,222.75,347.5,222.75z"/>
</g>















</svg>
