<svg height="512" viewBox="0 0 512 512" width="512" xmlns="http://www.w3.org/2000/svg"><g id="filled_outline" data-name="filled outline"><path d="m368 184 24 24 24 4.8 8-4.8 16 16-8 16-56-8-48-48 16-8z" fill="#e6a98d"/><path d="m360 176h-24v-24h-24v40l16.997-7.003 7.003 7.003z" fill="#961b20"/><path d="m148 212-44 20h-16l-16 32 16 8 24-16 64-24 16-8z" fill="#961b20"/><path d="m224 160-40 40-40-24-8-8h-48l8 16 24 8 49.741 35.53a24.005 24.005 0 0 0 13.95 4.47h.618a24.005 24.005 0 0 0 13.95-4.47l49.741-35.53h32v-32z" fill="#cf5252"/><path d="m312 184v24l16 24h16l8 24-16 8-24-8-32-40v-32z" fill="#e6a98d"/><path d="m352 112a24 24 0 0 1 24 24 0 0 0 0 1 0 0h-48a0 0 0 0 1 0 0 24 24 0 0 1 24-24z" fill="#cf5252"/><path d="m352 168a24 24 0 0 1 24 24 0 0 0 0 1 0 0h-48a0 0 0 0 1 0 0 24 24 0 0 1 24-24z" fill="#cf5252" transform="matrix(-1 0 0 -1 704 360)"/><path d="m280 160h32v32h-32z" fill="#cf5252"/><path d="m272 160h8v32h-8z" fill="#961b20" transform="matrix(-1 0 0 -1 552 352)"/><path d="m24.006 320a8 8 0 0 1 -3.584-15.157 99.953 99.953 0 0 0 44.423-44.423l16-32a8 8 0 0 1 14.31 7.156l-16 32a116.052 116.052 0 0 1 -51.577 51.577 7.973 7.973 0 0 1 -3.572.847z" fill="#961b20"/><path d="m24.006 192a8 8 0 0 1 -3.584-15.157 160.367 160.367 0 0 1 71.355-16.843h44.223a8 8 0 0 1 0 16h-44.223a144.292 144.292 0 0 0 -64.2 15.155 7.986 7.986 0 0 1 -3.571.845z" fill="#cf5252"/><g fill="#75c2d4"><path d="m248 56h16v16h-16z"/><path d="m272 80h16v16h-16z"/><path d="m368 296h16v16h-16z"/><path d="m392 272h16v16h-16z"/><path d="m392 424h16v16h-16z"/><path d="m16 336h16v16h-16z"/><path d="m40 360h16v16h-16z"/><path d="m368 448h16v16h-16z"/><path d="m352 64h16v16h-16z"/><path d="m160 16h16v16h-16z"/><path d="m182.89 32.017h16v16h-16z"/><path d="m160 56h16v16h-16z"/><path d="m320 32h16v16h-16z"/></g><path d="m416 392.226 1.689 3.378a51.778 51.778 0 0 0 46.311 28.622l-5.871-23.482a79.945 79.945 0 0 0 -6.056-16.373l-4.073-8.145.331-.332a79.989 79.989 0 0 0 21.043-37.165l2.626-10.5h-6.111a51.776 51.776 0 0 0 -41.422 20.711l-8.467 11.286-40.526-17.368a99.981 99.981 0 0 0 -32.266-7.832l-41.24-2.945a16.009 16.009 0 0 1 -14.587-12.967 72.138 72.138 0 0 1 1.423-33.07l1.7-6.027a38.624 38.624 0 0 0 -27.636 10.5l-1.414 1.333a38.622 38.622 0 0 0 -12.116 26.965l-.338 11.255a237.944 237.944 0 0 0 -30.563 3.531l-45.837 8.334a141.989 141.989 0 0 1 -25.4 2.291h-35.2a38.631 38.631 0 0 0 11.314 27.314 21.893 21.893 0 0 0 11.185 5.986l33.5 6.7 32.001 23.774z" fill="#0292c9"/><circle cx="176" cy="360.226" fill="#0a6fa2" r="8"/><path d="m34 496a8 8 0 0 1 -8-8c0-9.68 5.894-14.731 9.794-18.074 3.406-2.926 4.206-3.82 4.206-5.926s-.8-3-4.206-5.927c-3.9-3.344-9.794-8.396-9.794-18.073s5.894-14.731 9.794-18.073c3.406-2.927 4.206-3.821 4.206-5.927a8 8 0 0 1 16 0c0 9.679-5.894 14.731-9.794 18.073-3.406 2.927-4.206 3.819-4.206 5.927s.8 3 4.207 5.927c3.899 3.341 9.793 8.392 9.793 18.073s-5.894 14.731-9.794 18.074c-3.406 2.926-4.206 3.819-4.206 5.926a8 8 0 0 1 -8 8z" fill="#5f967c"/><path d="m74 496a8 8 0 0 1 -8-8c0-9.68 5.894-14.731 9.794-18.074 3.406-2.926 4.206-3.82 4.206-5.926s-.8-3-4.206-5.927c-3.9-3.344-9.794-8.396-9.794-18.073s5.894-14.731 9.794-18.073c3.406-2.927 4.206-3.821 4.206-5.927a8 8 0 0 1 16 0c0 9.679-5.894 14.731-9.794 18.073-3.406 2.927-4.206 3.819-4.206 5.927s.8 3 4.207 5.927c3.899 3.341 9.793 8.392 9.793 18.073s-5.894 14.731-9.794 18.074c-3.406 2.926-4.206 3.819-4.206 5.926a8 8 0 0 1 -8 8z" fill="#5f967c"/><path d="m114 496a8 8 0 0 1 -8-8c0-9.68 5.894-14.731 9.794-18.074 3.406-2.926 4.206-3.82 4.206-5.926s-.8-3-4.206-5.927c-3.9-3.344-9.794-8.396-9.794-18.073a8 8 0 0 1 16 0c0 2.106.8 3 4.207 5.927 3.9 3.343 9.793 8.394 9.793 18.074s-5.894 14.731-9.794 18.074c-3.406 2.925-4.206 3.818-4.206 5.925a8 8 0 0 1 -8 8z" fill="#5f967c"/><path d="m488 496h-464a8 8 0 0 1 0-16h464a8 8 0 0 1 0 16z" fill="#55876f"/><path d="m416 392.23-57.2 20.8a186.022 186.022 0 0 1 -63.57 11.2h-106.75a94.087 94.087 0 0 1 -52.16-15.79l-.32-.21 32-24 38.2 9.55a216.227 216.227 0 0 0 52.39 6.45h34.82a216.227 216.227 0 0 0 52.39-6.45l6.67-1.67a129.889 129.889 0 0 1 63.06 0z" fill="#eaeae8"/><path d="m240 392v24a38.628 38.628 0 0 0 11.314 27.314l1.372 1.372a38.628 38.628 0 0 0 27.314 11.314v-64z" fill="#0292c9"/><path d="m308 160h-12l-16-8-16 8h-48v-40h92a20 20 0 0 1 20 20 20 20 0 0 1 -20 20z" fill="#eaeae8"/><path d="m264 120h32v40h-32z" fill="#69a88c"/><path d="m328 136v32h16l8-8 8 8h16v-32z" fill="#8feaff"/><path d="m400 192h-40l8-16h32a8 8 0 0 0 0-16h-24v-16h24a24 24 0 0 1 0 48z" fill="#cbcbcb"/><path d="m336 168v14.111a16 16 0 0 0 8.845 14.311 15.993 15.993 0 0 0 14.31 0 16 16 0 0 0 8.845-14.311v-14.111l-16-8z" fill="#eaeae8"/><path d="m328 136h48v8h-48z" fill="#75c2d4"/><path d="m88 224a8 8 0 0 0 -7.155 4.422l-16 32a99.953 99.953 0 0 1 -44.423 44.423 8 8 0 1 0 7.156 14.31 116.123 116.123 0 0 0 47.729-44.555l9.115 4.557a8 8 0 0 0 8.016-.5l23.233-15.489 62.887-23.582a32.306 32.306 0 0 0 5.133.415h.618a31.827 31.827 0 0 0 18.6-5.96l47.654-34.041h21.437v16a8 8 0 0 0 1.753 5l32 40a8 8 0 0 0 3.717 2.591l24 8a8 8 0 0 0 6.108-.434l16-8a8 8 0 0 0 4.012-9.685l-8-24a8 8 0 0 0 -7.59-5.472h-11.719l-12.281-18.422v-8.221l7.113-2.931 43.23 43.231a7.994 7.994 0 0 0 4.525 2.262l56 8a7.994 7.994 0 0 0 8.287-4.341l8-16a8 8 0 0 0 -1.5-9.235l-16-16a8 8 0 0 0 -9.773-1.2l-5.348 3.209-18.592-3.719-8.63-8.63h12.688a24 24 0 0 0 0-48h-16v-8a31.992 31.992 0 0 0 -58.537-17.864 27.859 27.859 0 0 0 -17.463-6.139h-92a8 8 0 0 0 -8 8v40a7.955 7.955 0 0 0 .936 3.751l-26.176 26.175-33.8-20.279-7.3-7.3a8 8 0 0 0 -5.66-2.347s-48.735.029-49.095.079a160.448 160.448 0 0 0 -66.483 16.766 8 8 0 1 0 7.156 14.31 144.4 144.4 0 0 1 55.61-14.89l5.657 11.313a7.994 7.994 0 0 0 4.625 4.011l22.859 7.62 15.742 11.244-29.803 13.547zm272-41.889a7.956 7.956 0 0 1 -4.423 7.156 8.036 8.036 0 0 1 -7.154 0 7.956 7.956 0 0 1 -4.423-7.156v-6.111a8 8 0 0 0 5.657-2.343l2.343-2.344 2.343 2.344a8 8 0 0 0 5.657 2.343zm8-22.111h-4.687l-5.656-5.657a8 8 0 0 0 -11.314 0l-5.656 5.657h-4.687v-16h32zm-64 8v16h-16v-16zm17.344 68.438a8 8 0 0 0 6.656 3.562h10.234l3.983 11.947-6.831 3.416-18.615-6.205-28.771-35.964v-13.194h16v8a8 8 0 0 0 1.344 4.438zm-1.344-68.438a8 8 0 0 0 8 8v.755l-8 3.3zm94.431 52.645a8 8 0 0 0 5.685-.985l2.644-1.586 7.506 7.506-2.843 5.685-47.652-6.807-19.736-19.738a23.724 23.724 0 0 0 2.7-1.142 24.058 24.058 0 0 0 7.586-5.944l16.024 16.023a8 8 0 0 0 4.088 2.188zm-14.431-60.645a8 8 0 0 1 0 16h-24a8 8 0 0 0 8-8v-8zm-48-40a16.011 16.011 0 0 1 13.853 8h-27.706a16.011 16.011 0 0 1 13.853-8zm-32 20a12.013 12.013 0 0 1 -12 12h-4v-24h4a12.013 12.013 0 0 1 12 12zm-32-12v24h-16v-24zm-64 0h32v24h-32zm-101.47 56.411-20.856-6.953-.73-1.458h31.743l5.656 5.657a8.05 8.05 0 0 0 1.541 1.2l40 24a8 8 0 0 0 9.773-1.2l37.657-37.657h44.686v16h-24a8 8 0 0 0 -4.65 1.49l-49.741 35.53a15.918 15.918 0 0 1 -9.3 2.98h-.618a15.913 15.913 0 0 1 -9.3-2.98l-49.741-35.53a8.017 8.017 0 0 0 -2.12-1.079zm-15.219 54.872 39.8-18.09 12.024 8.589-49.94 18.727a7.98 7.98 0 0 0 -1.629.835l-20.141 13.425-4.692-2.347 10.211-20.422h11.056a8.013 8.013 0 0 0 3.311-.717z"/><path d="m248 56h16v16h-16z"/><path d="m272 80h16v16h-16z"/><path d="m392 272h16v16h-16z"/><path d="m16 336h16v16h-16z"/><path d="m40 360h16v16h-16z"/><path d="m368 448h16v16h-16z"/><path d="m352 64h16v16h-16z"/><path d="m160 16h16v16h-16z"/><path d="m182.89 32.017h16v16h-16z"/><path d="m160 56h16v16h-16z"/><path d="m320 32h16v16h-16z"/><path d="m368 296h16v16h-16z"/><path d="m392 424h16v16h-16z"/><path d="m488 480h-359.449c3.553-3.32 7.449-8.131 7.449-16 0-9.68-5.894-14.731-9.793-18.074-3.407-2.926-4.207-3.826-4.207-5.926a8 8 0 0 0 -16 0c0 9.679 5.894 14.731 9.794 18.074 3.406 2.926 4.206 3.818 4.206 5.926s-.8 3-4.206 5.927c-2.645 2.267-6.2 5.325-8.221 10.074h-19.022c3.549-3.321 7.449-8.132 7.449-16.001 0-9.68-5.894-14.731-9.793-18.074-3.407-2.926-4.207-3.826-4.207-5.926s.8-3 4.206-5.925c3.9-3.344 9.794-8.396 9.794-18.075a8 8 0 0 0 -16 0c0 2.106-.8 3-4.206 5.925-3.9 3.342-9.794 8.394-9.794 18.075s5.894 14.731 9.794 18.074c3.406 2.926 4.206 3.818 4.206 5.926s-.8 3-4.206 5.927c-2.645 2.267-6.2 5.325-8.221 10.074h-19.022c3.549-3.321 7.449-8.132 7.449-16.001 0-9.68-5.894-14.731-9.793-18.074-3.407-2.926-4.207-3.826-4.207-5.926s.8-3 4.206-5.925c3.9-3.344 9.794-8.396 9.794-18.075a8 8 0 0 0 -16 0c0 2.106-.8 3-4.206 5.925-3.9 3.342-9.794 8.394-9.794 18.075s5.894 14.731 9.794 18.074c3.406 2.926 4.206 3.818 4.206 5.926s-.8 3-4.206 5.927c-2.645 2.267-6.2 5.325-8.221 10.074h-3.573a8 8 0 0 0 0 16h464a8 8 0 0 0 0-16z"/><path d="m132.971 385.447 15.956 3.191-17.686 13.262a8 8 0 0 0 .363 13.056l.32.214a101.729 101.729 0 0 0 56.6 17.13h46.409a46.452 46.452 0 0 0 10.728 16.667l1.374 1.374a46.325 46.325 0 0 0 32.965 13.659 8 8 0 0 0 8-8v-23.7h7.271a193.442 193.442 0 0 0 66.3-11.68l50.591-18.4a59.419 59.419 0 0 0 51.879 30.08 8 8 0 0 0 7.761-9.941l-5.87-23.482a88.167 88.167 0 0 0 -6.663-18.009l-1.571-3.142a88.024 88.024 0 0 0 19.478-36.983l2.626-10.5a8 8 0 0 0 -7.761-9.94h-6.111a60.065 60.065 0 0 0 -47.823 23.911l-4.694 6.259-34.746-14.891a107.756 107.756 0 0 0 -34.848-8.458l-41.24-2.946a8.014 8.014 0 0 1 -7.3-6.484 64.486 64.486 0 0 1 1.265-29.4l1.7-6.027a8 8 0 0 0 -7.464-10.167 46.288 46.288 0 0 0 -33.361 12.675l-1.414 1.332a46.313 46.313 0 0 0 -14.625 32.55l-.119 3.987c-8.131.656-16.246 1.717-24.212 3.165l-45.843 8.335a134.329 134.329 0 0 1 -23.97 2.161h-35.195a8 8 0 0 0 -8 8 46.325 46.325 0 0 0 13.659 32.969 29.8 29.8 0 0 0 15.271 8.173zm55.548 30.853a85.756 85.756 0 0 1 -38.017-8.846l19.272-14.454 34.141 8.536a224.827 224.827 0 0 0 28.085 5.136v9.328c0 .1.007.2.007.3zm167.581-10.714a177.481 177.481 0 0 1 -60.829 10.714h-7.271v-8.077h5.409a224.162 224.162 0 0 0 54.327-6.688l6.675-1.668a121.9 121.9 0 0 1 27.3-3.6zm-208.864-53.286a150.388 150.388 0 0 0 26.832-2.419l45.843-8.335a230.811 230.811 0 0 1 29.534-3.412 8 8 0 0 0 7.593-7.752l.334-11.256a30.426 30.426 0 0 1 9.607-21.381l1.415-1.332a30.506 30.506 0 0 1 11.379-6.8 80.634 80.634 0 0 0 -.21 31.076 24.032 24.032 0 0 0 21.875 19.449l41.241 2.946a91.791 91.791 0 0 1 29.685 7.2l40.526 17.368a8 8 0 0 0 9.551-2.553l8.467-11.289a44.021 44.021 0 0 1 30.836-17.308l-.09.359a72.027 72.027 0 0 1 -18.939 33.45l-.331.331a8 8 0 0 0 -1.5 9.234l4.072 8.146a72.075 72.075 0 0 1 5.452 14.735l3.067 12.269a43.509 43.509 0 0 1 -28.589-22.926l-1.69-3.378a7.973 7.973 0 0 0 -4.466-3.949 11.32 11.32 0 0 0 -1.26-.429 138.48 138.48 0 0 0 -66.939 0l-6.675 1.668a208.153 208.153 0 0 1 -50.447 6.211h-13.409a8 8 0 0 0 -8 8v46.727a30.443 30.443 0 0 1 -13.656-7.92l-1.374-1.374a30.424 30.424 0 0 1 -8.97-21.656v-16.582a8 8 0 0 0 -8-8h-.02a208.487 208.487 0 0 1 -32.185-5.4l-37.795-9.451c-.133-.033-.259-.082-.394-.109l-33.5-6.7a13.844 13.844 0 0 1 -7.1-3.8 30.445 30.445 0 0 1 -7.921-13.657z"/><circle cx="176" cy="360.226" r="8"/></g></svg>