<svg height="512" viewBox="0 0 512 512" width="512" xmlns="http://www.w3.org/2000/svg"><g id="FilledOutline"><path d="m32 56h376v408h-376z" fill="#e3e4e2"/><path d="m440 400h-88v-192h-62.745a17.255 17.255 0 0 1 -17.255-17.255 17.257 17.257 0 0 1 14.564-17.045l116.452-18.387a24 24 0 0 1 26.82 17.113l10.164 35.574z" fill="#f5be9a"/><path d="m248 240-24-16 24-16h224a16 16 0 0 1 16 16 16 16 0 0 1 -16 16z" fill="#4e4e4f"/><path d="m488 224a16 16 0 0 0 -16-16h-16v32h16a16 16 0 0 0 16-16z" fill="#e3e4e2"/><path d="m352 304-17.717-7.087a35.448 35.448 0 0 1 -22.283-32.913l-27.029-27.029a16.972 16.972 0 0 1 -4.971-12 16.971 16.971 0 0 1 16.971-16.971h3.023a16.959 16.959 0 0 1 7.589 1.792l60.417 30.208 24 24z" fill="#f5be9a"/><path d="m456 496v-88l-16-32h-88l-16 32v88z" fill="#0093b9"/><path d="m456 408h-120l16-32h88z" fill="#067b98"/><path d="m472 200h-25.965l-8.507-29.771a32.037 32.037 0 0 0 -35.759-22.818l-116.453 18.389a25.239 25.239 0 0 0 -19.552 34.2h-17.764a8 8 0 0 0 -4.438 1.344l-21.984 14.656h-13.578v16h13.578l21.984 14.656a8 8 0 0 0 4.438 1.344h36.686l19.448 19.448a43.216 43.216 0 0 0 27.178 36.893l12.688 5.076v64.7l-15.155 30.31a7.977 7.977 0 0 0 -.83 3.578h-.015v88h16v-80.005h104v80h16v-88h-.015a7.977 7.977 0 0 0 -.83-3.578l-15.155-30.31v-126.112h24a24 24 0 0 0 0-48zm-192-9.255a9.211 9.211 0 0 1 7.812-9.142l116.452-18.388a16.013 16.013 0 0 1 17.88 11.409l7.25 25.376h-42.08l10.343-10.343-11.314-11.314-21.656 21.657h-75.432a9.265 9.265 0 0 1 -9.255-9.255zm-41.578 33.255 12-8h23.251a24.994 24.994 0 0 0 -.67 16h-22.581zm110.522 176 8-16h78.112l8 16zm83.056-32h-72v-64a8 8 0 0 0 -5.029-7.428l-17.716-7.086a27.318 27.318 0 0 1 -17.255-25.486 8 8 0 0 0 -2.343-5.657l-27.029-27.029a8.97 8.97 0 0 1 6.343-15.314h3.023a9.018 9.018 0 0 1 4.011.947l59.256 29.628 23.082 23.082 11.314-11.314-10.343-10.343h44.686zm-62.111-136-32-16h110.111v16zm102.111 0h-8v-16h8a8 8 0 0 1 0 16z"/><path d="m40 64h360v64h16v-72a8 8 0 0 0 -8-8h-376a8 8 0 0 0 -8 8v408a8 8 0 0 0 8 8h280v-16h-272z"/><path d="m183.559 168.779a119.9 119.9 0 0 1 69.267 7.88l6.348-14.686a135.977 135.977 0 1 0 74.8 168.594l-15.155-5.134a120.028 120.028 0 0 1 -82.413 77.232l59.128-59.128-11.314-11.314-74.45 74.454a121.01 121.01 0 0 1 -21.525-1.1l52.667-52.667-11.312-11.31-59.855 59.855a119.284 119.284 0 0 1 -16.284-6.34l52.823-52.832-11.314-11.312-55.97 55.976a119.6 119.6 0 0 1 -12.829-9.8l45.488-45.488-11.314-11.314-45.491 45.491a120.534 120.534 0 0 1 -9.815-12.817l51.994-51.985-11.312-11.314-48.878 48.864a118.455 118.455 0 0 1 -6.358-16.265l51.915-51.919-11.314-11.314-44.722 44.726a121.7 121.7 0 0 1 -1.192-16.984c0-1.518.037-3.03.093-4.539l50.512-50.512-11.314-11.314-35.225 35.225a120.186 120.186 0 0 1 94.321-86.909z"/><path d="m275.987 134c11.945 0 17.269-10.647 21.157-18.422 2.021-4.042 4.789-9.578 6.845-9.578s4.825 5.536 6.847 9.578c3.888 7.775 9.213 18.422 21.158 18.422s17.271-10.647 21.158-18.422c2.022-4.042 4.79-9.578 6.848-9.578v-16c-11.945 0-17.271 10.647-21.158 18.422-2.022 4.042-4.79 9.578-6.848 9.578s-4.826-5.536-6.848-9.579c-3.887-7.774-9.212-18.421-21.157-18.421s-17.268 10.647-21.156 18.422c-2.021 4.042-4.789 9.578-6.846 9.578s-4.823-5.536-6.844-9.578c-3.888-7.774-9.212-18.422-21.157-18.422s-17.268 10.647-21.155 18.422c-2.021 4.042-4.789 9.578-6.845 9.578s-4.823-5.536-6.844-9.578c-3.888-7.774-9.212-18.422-21.157-18.422s-17.266 10.647-21.153 18.422c-2.021 4.042-4.789 9.578-6.844 9.578s-4.822-5.536-6.842-9.577c-3.887-7.775-9.21-18.423-21.154-18.423s-17.265 10.648-21.151 18.423c-2.021 4.041-4.788 9.577-6.841 9.577s-4.822-5.536-6.844-9.577c-3.887-7.775-9.212-18.423-21.156-18.423v16c2.056 0 4.823 5.536 6.845 9.578 3.886 7.775 9.211 18.422 21.155 18.422s17.267-10.648 21.153-18.423c2.02-4.042 4.787-9.577 6.84-9.577s4.822 5.536 6.843 9.577c3.887 7.775 9.21 18.423 21.153 18.423s17.268-10.648 21.155-18.423c2.02-4.042 4.788-9.577 6.842-9.577s4.825 5.536 6.846 9.578c3.888 7.775 9.211 18.422 21.155 18.422s17.269-10.647 21.156-18.422c2.021-4.042 4.789-9.578 6.844-9.578s4.825 5.536 6.846 9.578c3.887 7.775 9.21 18.422 21.154 18.422z"/><path d="m88 16h224v16h-224z"/><path d="m328 16h16v16h-16z"/></g></svg>