<svg id="Layer_3" enable-background="new 0 0 64 64" height="512" viewBox="0 0 64 64" width="512" xmlns="http://www.w3.org/2000/svg"><g><path d="m22 62v-3.076c0-3.247-.681-6.457-2-9.424-1.319-2.967-2-6.178-2-9.424v-1.076c0-6.627 5.373-12 12-12 6.627 0 12 5.373 12 12l4 8h-4v9h-6v6" fill="#f2b9a1"/><path d="m36 28.618c-1.766-1.023-3.812-1.618-6-1.618-6.627 0-12 5.373-12 12v1.076c0 3.247.681 6.457 2 9.424.363.816.672 1.652.938 2.5h13.062c1.105 0 2-.895 2-2z" fill="#fbe1ca"/><path d="m22 41c-.552 0-1-.448-1-1v-5c0-.552.448-1 1-1 .552 0 1 .448 1 1v5c0 .552-.448 1-1 1z" fill="#f2b9a1"/><path d="m33 58h-8c-.552 0-1 .448-1 1 0 .552.448 1 1 1h8c.552 0 1-.448 1-1 0-.552-.448-1-1-1z" fill="#fbe1ca"/><g><path d="m35 36h-2v-19h-13v-2h14c.553 0 1 .447 1 1z" fill="#e1656e"/></g><circle cx="12" cy="12" fill="#ba4753" r="10"/><path d="m12 2c-5.523 0-10 4.477-10 10 0 2.254.755 4.327 2.014 6h11.986c1.105 0 2-.895 2-2v-11.986c-1.673-1.259-3.746-2.014-6-2.014z" fill="#e1656e"/><circle cx="52" cy="12" fill="#546ded" r="10"/><path d="m52 2c-5.523 0-10 4.477-10 10 0 2.254.755 4.327 2.014 6h11.986c1.105 0 2-.895 2-2v-11.986c-1.673-1.259-3.746-2.014-6-2.014z" fill="#7fa3f8"/><g><path d="m51 10h-2c0-.552-.448-1-1-1s-1 .448-1 1h-2c0-1.654 1.346-3 3-3s3 1.346 3 3z" fill="#4c506e"/></g><g><path d="m59 10h-2c0-.552-.448-1-1-1s-1 .448-1 1h-2c0-1.654 1.346-3 3-3s3 1.346 3 3z" fill="#4c506e"/></g><g><path d="m52 19c-3.859 0-7-3.141-7-7h2c0 2.757 2.243 5 5 5s5-2.243 5-5h2c0 3.859-3.141 7-7 7z" fill="#4c506e"/></g><g><path d="m16 11c-1.654 0-3-1.346-3-3h2c0 .552.448 1 1 1s1-.448 1-1h2c0 1.654-1.346 3-3 3z" fill="#4c506e"/></g><g><path d="m8 11c-1.654 0-3-1.346-3-3h2c0 .552.448 1 1 1s1-.448 1-1h2c0 1.654-1.346 3-3 3z" fill="#4c506e"/></g><g><path d="m17 17h-2c0-1.654-1.346-3-3-3s-3 1.346-3 3h-2c0-2.757 2.243-5 5-5s5 2.243 5 5z" fill="#4c506e"/></g><g><path d="m27 34h-2v-22c0-.553.447-1 1-1h16v2h-15z" fill="#546ded"/></g><g><path d="m29 19h2v19h-2z" fill="#f29b99"/></g><g><path d="m29 40h2v2h-2z" fill="#e1656e"/></g><path d="m52 1c-5.728 0-10.442 4.402-10.949 10h-15.051c-.553 0-1 .447-1 1v3h-2.426c.271-.955.426-1.959.426-3 0-6.065-4.935-11-11-11s-11 4.935-11 11 4.935 11 11 11c4.264 0 7.961-2.444 9.786-6h3.214v10.003c-4.693 1.963-8 6.6-8 11.997v1.075c0 3.408.702 6.716 2.086 9.831 1.27 2.858 1.914 5.892 1.914 9.019v4.075h2v-4.075c0-3.408-.702-6.716-2.086-9.831-1.27-2.858-1.914-5.892-1.914-9.019v-1.075c0-4.264 2.444-7.961 6-9.786v4.786h2v-5.574c.645-.183 1.312-.313 2-.376v9.95h2v-9.949c.687.062 1.355.192 2 .376v7.573h2v-6.786c3.556 1.825 6 5.521 6 9.786 0 .155.036.309.105.447l3.277 6.553h-2.382c-.553 0-1 .447-1 1v8h-8v2h2v6h2v-6h5c.553 0 1-.447 1-1v-8h3c.347 0 .668-.18.851-.475s.199-.663.044-.973l-3.896-7.793c-.098-5.294-3.375-9.825-7.999-11.759v-11c0-.553-.447-1-1-1h-7v-2h14.051c.507 5.598 5.221 10 10.949 10 6.065 0 11-4.935 11-11s-4.935-11-11-11zm-40 20c-4.963 0-9-4.037-9-9s4.037-9 9-9 9 4.037 9 9-4.037 9-9 9zm21-4v9.364c-.65-.154-1.317-.261-2-.314v-7.05h-2v7.051c-.683.052-1.35.158-2 .313v-9.364zm19 4c-4.963 0-9-4.037-9-9s4.037-9 9-9 9 4.037 9 9-4.037 9-9 9z"/><path d="m48 9c.552 0 1 .448 1 1h2c0-1.654-1.346-3-3-3s-3 1.346-3 3h2c0-.552.448-1 1-1z"/><path d="m56 7c-1.654 0-3 1.346-3 3h2c0-.552.448-1 1-1s1 .448 1 1h2c0-1.654-1.346-3-3-3z"/><path d="m52 17c-2.757 0-5-2.243-5-5h-2c0 3.859 3.141 7 7 7s7-3.141 7-7h-2c0 2.757-2.243 5-5 5z"/><path d="m17 8c0 .552-.448 1-1 1s-1-.448-1-1h-2c0 1.654 1.346 3 3 3s3-1.346 3-3z"/><path d="m11 8h-2c0 .552-.448 1-1 1s-1-.448-1-1h-2c0 1.654 1.346 3 3 3s3-1.346 3-3z"/><path d="m12 12c-2.757 0-5 2.243-5 5h2c0-1.654 1.346-3 3-3s3 1.346 3 3h2c0-2.757-2.243-5-5-5z"/><path d="m29 40h2v2h-2z"/></g></svg>