<svg id="Layer_5" enable-background="new 0 0 64 64" height="512" viewBox="0 0 64 64" width="512" xmlns="http://www.w3.org/2000/svg"><g><g><g><path d="m44 62h-24-8v-2.9c0-2.01.68-3.95 1.94-5.52 1.33-1.66 3.21-2.79 5.31-3.17l5.99-1.09 1.76 7.68 5-3 5 3 1.76-7.67 5.98 1.08c2.08.38 3.96 1.5 5.29 3.15l.01.01c1.27 1.57 1.96 3.53 1.96 5.55v2.88z" fill="#4fc1e9"/></g><g><path d="m37 49 1.76.33-1.76 7.67-5-3z" fill="#3bafda"/></g><g><path d="m32 54-5 3-1.76-7.68 1.76-.32z" fill="#3bafda"/></g><g><path d="m37 49-5 5-5-5 1-3h7.97l1 3z" fill="#f0d0b4"/></g><g><path d="m2 14h60v30c0 1.1-.9 2-2 2h-24.03-7.97-24c-1.1 0-2-.9-2-2z" fill="#e6e9ed"/></g><g><path d="m62 4v10h-60v-10c0-1.1.9-2 2-2h56c1.1 0 2 .9 2 2z" fill="#5cd6b3"/></g><g><path d="m17 10h-10c-.552 0-1-.448-1-1v-2c0-.552.448-1 1-1h10c.552 0 1 .448 1 1v2c0 .552-.448 1-1 1z" fill="#e6e9ed"/></g><g><path d="m36 34h-8v2h-1c-1.66 0-3-1.34-3-3 0-.83.34-1.58.88-2.12s1.29-.88 2.12-.88h10c1.66 0 3 1.34 3 3 0 .83-.34 1.58-.88 2.12s-1.29.88-2.12.88h-1z" fill="#fc6e51"/></g><g><path d="m32 42c-1.1 0-2.1-.45-2.83-1.17-.72-.73-1.17-1.73-1.17-2.83v-2-2h8v2 2c0 2.21-1.79 4-4 4z" fill="#ff826e"/></g><g><path d="m38 6h20v4h-20z" fill="#fcd770"/></g></g><g><path d="m60 1h-56c-1.654 0-3 1.346-3 3v40c0 1.654 1.346 3 3 3h22.613l-.374 1.122-7.165 1.303c-2.335.425-4.438 1.679-5.919 3.532-1.389 1.736-2.155 3.917-2.155 6.141v3.902h42v-3.883c0-2.237-.773-4.429-2.19-6.186-1.479-1.836-3.573-3.081-5.895-3.503l-7.185-1.306-.374-1.122h22.644c1.654 0 3-1.346 3-3v-40c0-1.654-1.346-3-3-3zm-56 2h56c.552 0 1 .449 1 1v9h-58v-9c0-.551.448-1 1-1zm23.667 52.434-1.219-5.317.215-.039 3.725 3.724zm21.599-1.233c1.118 1.388 1.734 3.133 1.734 4.916v1.883h-6v-6h-2v6h-22v-6h-2v6h-6v-1.902c0-1.771.609-3.509 1.717-4.893 1.18-1.476 2.854-2.475 4.714-2.813l5.048-.918 1.854 8.092 5.667-3.4 5.667 3.4 1.853-8.086 5.038.916c1.848.336 3.515 1.327 4.708 2.805zm-11.934-4.119.219.04-1.217 5.311-2.721-1.632zm-1.5-1.328-3.832 3.832-3.856-3.856.577-1.73h6.528zm24.168-3.754h-56c-.552 0-1-.449-1-1v-29h58v29c0 .551-.448 1-1 1z"/><path d="m7 11h10c1.103 0 2-.897 2-2v-2c0-1.103-.897-2-2-2h-10c-1.103 0-2 .897-2 2v2c0 1.103.897 2 2 2zm4-2v-2h2v2zm6.001 0h-2.001v-2h2zm-10.001-2h2v2h-2z"/><path d="m59 5h-22v6h22zm-2 4h-18v-2h18z"/><path d="m37 29h-10c-2.206 0-4 1.794-4 4s1.794 4 4 4v1c0 2.757 2.243 5 5 5s5-2.243 5-5v-1c2.206 0 4-1.794 4-4s-1.794-4-4-4zm-2 9c0 1.302-.839 2.402-2 2.816v-1.816h-2v1.816c-1.161-.414-2-1.514-2-2.816v-3h6zm2-3v-2h-10v2c-1.103 0-2-.897-2-2s.897-2 2-2h10c1.103 0 2 .897 2 2s-.897 2-2 2z"/><path d="m26.293 25.707 1.414-1.414-3.293-3.293 3.293-3.293-1.414-1.414-3.293 3.293-3.293-3.293-1.414 1.414 3.293 3.293-3.293 3.293 1.414 1.414 3.293-3.293z"/><path d="m44.293 16.293-3.293 3.293-3.293-3.293-1.414 1.414 3.293 3.293-3.293 3.293 1.414 1.414 3.293-3.293 3.293 3.293 1.414-1.414-3.293-3.293 3.293-3.293z"/></g></g></svg>