<?xml version="1.0" encoding="iso-8859-1"?>
<!-- Generator: Adobe Illustrator 19.0.0, SVG Export Plug-In . SVG Version: 6.00 Build 0)  -->
<svg version="1.1" id="Layer_1" xmlns="http://www.w3.org/2000/svg" xmlns:xlink="http://www.w3.org/1999/xlink" x="0px" y="0px"
	 viewBox="0 0 512.001 512.001" style="enable-background:new 0 0 512.001 512.001;" xml:space="preserve">
<polygon style="fill:#F94F79;" points="435.824,366.216 425.372,251.451 325.511,207.24 171.92,280.235 313.346,406.453 "/>
<path style="fill:#B5C1C6;" d="M339.197,174.57c0,0-37.282-77.556-106.843-106.843V174.57"/>
<path style="fill:#C3D1D8;" d="M488.875,240.485L302.7,272.634l4.694,49.71c1.693,17.976,15.806,32.261,33.751,34.177
	l117.445,12.541l-1.369,5.82l-8.699,36.955l-162.998,31.541c-15.989,3.102-32.474-2.007-43.91-13.606L198.15,385.72l-33.508-33.964
	l-75.056-76.08L7.606,351.715L56.119,227L7.606,108.389l88.054,66.185h408.737L488.875,240.485z"/>
<g>
	<path style="fill:#B5C1C6;" d="M457.222,374.882l-8.699,36.955l-162.998,31.541c-15.989,3.102-32.474-2.007-43.91-13.606
		L198.15,385.72l-33.508-33.964l-75.056-76.08L7.606,351.715L56.119,227L7.606,108.389l88.054,66.185
		c0,0,70.179,168.007,175.104,213.63C348.283,421.915,423.318,392.533,457.222,374.882z"/>
	<path style="fill:#B5C1C6;" d="M181.043,328.897l-50.184,69.953c0,0,72.233-5.323,95.805-28.894"/>
</g>
<path d="M383.652,229.546c1.376,0,2.768-0.373,4.021-1.156c3.563-2.224,4.647-6.916,2.422-10.477l-6.332-10.139
	c-2.225-3.563-6.917-4.645-10.477-2.422c-3.563,2.224-4.647,6.916-2.422,10.477l6.332,10.139
	C378.639,228.279,381.116,229.546,383.652,229.546z"/>
<path d="M431.954,229.546c2.536,0,5.015-1.267,6.456-3.577l6.332-10.139c2.224-3.562,1.141-8.253-2.422-10.477
	c-3.561-2.225-8.254-1.141-10.477,2.422l-6.332,10.139c-2.224,3.562-1.141,8.253,2.422,10.477
	C429.186,229.173,430.578,229.546,431.954,229.546z"/>
<path d="M510.358,169.853c-1.443-1.822-3.639-2.883-5.961-2.883H343.838c-4.51-8.439-15.852-28.108-33.857-49.149
	c-2.729-3.19-7.531-3.566-10.721-0.833c-3.191,2.73-3.565,7.53-0.833,10.722c12.97,15.157,22.378,29.758,27.951,39.261H239.96
	V79.688c14.109,7.308,27.818,17.201,40.878,29.512c3.057,2.879,7.867,2.739,10.749-0.317c2.881-3.056,2.738-7.869-0.317-10.749
	c-17.621-16.611-36.449-29.199-55.963-37.414c-2.347-0.99-5.034-0.736-7.157,0.673c-2.123,1.409-3.398,3.787-3.398,6.335v99.243
	h-68.038c-4.2,0-7.604,3.405-7.604,7.604s3.404,7.604,7.604,7.604h338.081l-12.168,51.669l-181.22,31.294
	c-3.914,0.676-6.65,4.252-6.276,8.208l4.694,49.708c2.023,21.481,19.063,38.734,40.515,41.025l108.876,11.627l-6.965,29.598
	l-86.494,16.737c-4.122,0.798-6.819,4.786-6.02,8.91c0.703,3.636,3.887,6.161,7.457,6.161c0.479,0,0.964-0.046,1.453-0.14
	l91.323-17.672c2.939-0.569,5.271-2.809,5.957-5.723l10.068-42.775c0.5-2.124,0.064-4.36-1.198-6.14
	c-1.262-1.779-3.228-2.932-5.397-3.163l-16.527-1.765l-9.288-101.987l12.199-2.107l-0.133,12.344
	c-0.045,4.199,3.322,7.64,7.522,7.686c0.028,0,0.056,0,0.084,0c4.161,0,7.556-3.351,7.602-7.522l0.163-15.14l29.149-5.034
	c3.004-0.519,5.409-2.782,6.106-5.75l15.524-65.911C512.33,174.056,511.801,171.674,510.358,169.853z M427.45,358.089l-11.736-1.253
	L417.709,341c0.525-4.166-2.428-7.97-6.594-8.494c-4.172-0.535-7.97,2.427-8.495,6.593l-2.032,16.122l-21.338-2.279l1.459-11.974
	c0.508-4.169-2.461-7.96-6.629-8.468c-4.172-0.507-7.961,2.46-8.469,6.629l-1.486,12.198l-15.923-1.7l0.12-13.057
	c0.038-4.199-3.336-7.634-7.535-7.673c-0.023,0-0.047,0-0.07,0c-4.167,0-7.564,3.359-7.603,7.535l-0.092,10.149
	c-9.871-4.341-17.007-13.789-18.059-24.951l-4.032-42.7l12.732-2.198l1.897,16.536c0.444,3.878,3.733,6.738,7.544,6.738
	c0.289,0,0.582-0.016,0.876-0.05c4.172-0.479,7.166-4.248,6.688-8.421l-1.995-17.396l17-2.936l2.356,16.209
	c0.551,3.785,3.8,6.511,7.515,6.511c0.364,0,0.733-0.026,1.104-0.08c4.156-0.604,7.034-4.463,6.431-8.619l-2.415-16.609
	l24.231-4.184l1.087,17.296c0.253,4.029,3.6,7.127,7.583,7.127c0.16,0,0.321-0.005,0.485-0.015c4.191-0.264,7.375-3.875,7.112-8.066
	l-1.191-18.945l8.575-1.48L427.45,358.089z"/>
<path d="M332.633,426.518l-48.557,9.395c-13.519,2.626-27.372-1.667-37.049-11.482l-35.439-35.919
	c8.124-3.65,15.277-8,20.456-13.179c2.97-2.97,2.97-7.784,0-10.753c-2.971-2.97-7.784-2.97-10.754,0
	c-8.559,8.56-26.79,15.884-52.72,21.178c-7.86,1.605-15.343,2.791-21.571,3.642l40.225-56.07c2.448-3.413,1.667-8.164-1.746-10.611
	c-3.412-2.446-8.162-1.667-10.611,1.746l-11.143,15.532l-68.724-69.661c-2.884-2.925-7.572-3.029-10.584-0.235l-57.732,53.55
	l36.523-93.894c0.706-1.815,0.688-3.832-0.05-5.635l-38.07-93.081l66.005,49.612c1.317,0.991,2.921,1.526,4.568,1.526h35.708
	c4.2,0,7.604-3.405,7.604-7.604c0-4.199-3.404-7.604-7.604-7.604h-33.17l-86.024-64.659c-2.734-2.056-6.507-2.032-9.214,0.059
	c-2.709,2.091-3.688,5.731-2.392,8.899l47.364,115.803L0.519,348.959c-1.285,3.302-0.118,7.053,2.812,9.045
	c2.931,1.992,6.848,1.695,9.445-0.714l76.574-71.025l65.378,66.269l-30.047,41.884c-1.721,2.399-1.898,5.576-0.454,8.151
	c1.351,2.411,3.896,3.885,6.631,3.885c0.187,0,0.373-0.007,0.561-0.021c2.058-0.151,35.314-2.723,64.6-12.048l40.181,40.725
	c10.695,10.846,25.109,16.769,40.009,16.769c3.573,0,7.177-0.341,10.761-1.036l48.553-9.395c4.122-0.798,6.819-4.786,6.02-8.91
	C340.746,428.416,336.766,425.716,332.633,426.518z"/>
<path d="M270.06,211.415c-2.97-2.97-7.783-2.97-10.754,0c-9.908,9.909-15.366,23.085-15.366,37.098s5.458,27.189,15.366,37.098
	c1.485,1.485,3.432,2.227,5.378,2.227c1.946,0,3.892-0.742,5.377-2.227c2.97-2.97,2.97-7.784-0.001-10.753
	c-7.036-7.037-10.912-16.393-10.912-26.344c0-9.952,3.875-19.308,10.912-26.345C273.03,219.199,273.03,214.385,270.06,211.415z"/>
<path d="M233.561,211.415c-2.969-2.97-7.783-2.97-10.753,0c-20.456,20.456-20.456,53.741,0,74.196
	c1.485,1.485,3.431,2.227,5.378,2.227c1.946,0,3.892-0.742,5.376-2.227c2.971-2.97,2.971-7.783,0.001-10.753
	c-14.527-14.527-14.527-38.163,0-52.689C236.532,219.199,236.532,214.384,233.561,211.415z"/>
<g>
</g>
<g>
</g>
<g>
</g>
<g>
</g>
<g>
</g>
<g>
</g>
<g>
</g>
<g>
</g>
<g>
</g>
<g>
</g>
<g>
</g>
<g>
</g>
<g>
</g>
<g>
</g>
<g>
</g>
</svg>
