<?xml version="1.0" encoding="iso-8859-1"?>
<!-- Generator: Adobe Illustrator 19.0.0, SVG Export Plug-In . SVG Version: 6.00 Build 0)  -->
<svg version="1.1" id="Capa_1" xmlns="http://www.w3.org/2000/svg" xmlns:xlink="http://www.w3.org/1999/xlink" x="0px" y="0px"
	 viewBox="0 0 468.293 468.293" style="enable-background:new 0 0 468.293 468.293;" xml:space="preserve">
<g>
	<path style="fill:#EBF0F3;" d="M291.145,281.1c19.924,7.553,77.703-34.988,77.703-34.988L353.353,211.7
		c0,0-70.151,15.063-77.703,34.988C272.302,255.523,282.311,277.751,291.145,281.1z"/>
	<path style="fill:#EBF0F3;" d="M250.807,332.079c21.306,8.022,83.147-37.439,83.147-37.439l-14.999-33.311
		c0,0-75.031,16.169-83.147,37.439C232.632,307.292,242.32,328.808,250.807,332.079z"/>
	<path style="fill:#EBF0F3;" d="M102.228,256.574c2.794,1.704,5.867,2.815,9.081,3.55l6.871,1.583l325.393-146.517
		c-33.255-13.788-63.308-18.729-88.032-8.376L107.592,218.46c-5.962,2.684-10.5,7.144-13.326,12.469
		C89.168,240.552,92.485,250.516,102.228,256.574z"/>
</g>
<g>
	<path style="fill:#27A2DB;" d="M362.8,116.025l8.644,19.198l57.225-25.767c-10.804-3.603-22.826-6.412-34.657-7.485L362.8,116.025z
		"/>
	<path style="fill:#27A2DB;" d="M335.199,130.935l6.792,15.084c0.608,1.351,2.181,1.947,3.532,1.339l10.868-4.894
		c1.33-0.599,1.947-2.181,1.339-3.532l-6.792-15.084c-0.608-1.351-2.211-1.958-3.541-1.359l-10.868,4.894
		C335.177,127.991,334.59,129.584,335.199,130.935z"/>
	<path style="fill:#27A2DB;" d="M312.515,141.149l6.792,15.084c0.608,1.351,2.181,1.947,3.532,1.339l10.868-4.894
		c1.33-0.599,1.947-2.181,1.339-3.532l-6.792-15.084c-0.608-1.351-2.211-1.958-3.541-1.359l-10.868,4.894
		C312.493,138.205,311.906,139.798,312.515,141.149z"/>
	<path style="fill:#27A2DB;" d="M289.831,151.363l6.792,15.084c0.608,1.351,2.181,1.947,3.532,1.339l10.868-4.894
		c1.33-0.599,1.947-2.181,1.339-3.532l-6.792-15.084c-0.608-1.351-2.211-1.958-3.541-1.359l-10.868,4.894
		C289.81,148.419,289.222,150.013,289.831,151.363z"/>
	<path style="fill:#27A2DB;" d="M267.147,161.577l6.792,15.084c0.608,1.351,2.181,1.947,3.532,1.339l10.868-4.894
		c1.33-0.599,1.947-2.181,1.339-3.532l-6.792-15.084c-0.608-1.351-2.211-1.958-3.541-1.359l-10.868,4.894
		C267.126,158.633,266.538,160.227,267.147,161.577z"/>
	<path style="fill:#27A2DB;" d="M244.463,171.792l6.792,15.084c0.608,1.351,2.181,1.947,3.532,1.339l10.868-4.894
		c1.33-0.599,1.947-2.181,1.339-3.532l-6.792-15.084c-0.608-1.351-2.211-1.958-3.541-1.359l-10.868,4.894
		C244.442,168.847,243.855,170.441,244.463,171.792z"/>
	<path style="fill:#27A2DB;" d="M221.779,182.006l6.792,15.084c0.608,1.351,2.181,1.947,3.532,1.339l10.868-4.894
		c1.33-0.599,1.947-2.181,1.339-3.532l-6.792-15.084c-0.608-1.351-2.211-1.958-3.541-1.359l-10.868,4.894
		C221.758,179.061,221.171,180.655,221.779,182.006z"/>
	<path style="fill:#27A2DB;" d="M199.095,192.22l6.792,15.084c0.608,1.351,2.181,1.947,3.532,1.339l10.868-4.894
		c1.33-0.599,1.947-2.181,1.339-3.532l-6.792-15.084c-0.608-1.351-2.211-1.958-3.541-1.359l-10.868,4.894
		C199.074,189.275,198.487,190.869,199.095,192.22z"/>
</g>
<path style="fill:#D5D6DB;" d="M118.18,261.706c15.327,10.325,43.094,11.228,69.611,7.629c20.28-2.74,39.839-8.117,52.671-13.895
	l209.26-94.225c12.702-5.719,18.857-13.168,18.56-22.31c-0.22-6.37-3.963-12.09-9.256-15.708c-4.547-3.175-9.95-5.653-15.453-8.007
	L118.18,261.706z"/>
<g>
	<path style="fill:#E1E6E9;" d="M209.87,366.874l13.514-3.008c16.831-3.788,31.41-14.217,40.385-28.942l92.576-151.941
		c2.087-3.401,0.902-7.89-2.596-9.81c-20.554-11.152-47.366,1.905-75.659,20.799c-13.392,8.91-23.553,21.88-28.94,37.032
		l-45.784,128.534C201.892,363.697,205.582,367.845,209.87,366.874z"/>
	<path style="fill:#E1E6E9;" d="M308.884,127.846l-108.211-17.542c0,0-37.368,1.748-46.943,30.369l79.822,28.983l81.176-38.398
		L308.884,127.846z"/>
</g>
<g>
	<path style="fill:#64798A;" d="M319.348,281.171c4.138,9.19,10.664,15.211,14.574,13.451c3.909-1.76,3.727-10.638-0.411-19.828
		c-4.129-9.169-10.656-15.19-14.565-13.43C315.037,263.124,315.219,272.002,319.348,281.171z"/>
	<path style="fill:#64798A;" d="M352.976,232.576c4.276,9.497,11.373,15.581,15.856,13.563c4.503-2.027,4.651-11.375,0.375-20.871
		c-4.276-9.496-11.364-15.561-15.866-13.533C348.857,213.753,348.7,223.079,352.976,232.576z"/>
</g>
<path style="fill:#FCD462;" d="M102.228,256.574c2.794,1.704,5.867,2.815,9.081,3.55l6.871,1.583
	c15.327,10.325,43.094,11.228,69.611,7.629l-32.566-72.324l-47.633,21.448c-5.962,2.684-10.5,7.144-13.326,12.469
	C89.168,240.552,92.485,250.516,102.228,256.574z"/>
<g>
	<path style="fill:#F7BE56;" d="M0.324,190.867c0.848,1.883,3.074,2.727,4.957,1.879l15.678-7.059
		c3.807-1.714,6.028-1.483,7.693-0.19l3.784,3.047l69.637,50.838c2.079,1.501,4.734,1.93,7.185,1.196
		c23.746-7.074,38.436-20.261,46.002-28.935c3.531-4.076,2.26-10.396-2.619-12.704l-80.404-38.285
		c-4.287-2.033-9.259-2.083-13.577-0.139L2.212,185.93C0.329,186.778-0.514,189.004,0.324,190.867z"/>
	<path style="fill:#F7BE56;" d="M112.944,305.297c12.863,5.199,32.525-16.048,53.416-41.667c3.048-3.789,0.574-9.456-4.283-9.686
		l-17.391-1.055c-3.84-0.22-7.366,1.991-8.813,5.527C130.961,270.527,119.459,297.609,112.944,305.297z"/>
</g>
<g>
</g>
<g>
</g>
<g>
</g>
<g>
</g>
<g>
</g>
<g>
</g>
<g>
</g>
<g>
</g>
<g>
</g>
<g>
</g>
<g>
</g>
<g>
</g>
<g>
</g>
<g>
</g>
<g>
</g>
</svg>
