<svg height="512" viewBox="0 0 59 58" width="512" xmlns="http://www.w3.org/2000/svg"><g id="Page-1" fill="none" fill-rule="evenodd"><g id="013---Grass" fill-rule="nonzero"><path id="Shape" d="m47.61 36.22c2.5938724.7242876 4.3883167 3.0869044 4.39 5.78 0 .04-.01.08-.01.11.3326187-.0673198.6706878-.1041392 1.01-.11 2.1933539-.0136035 4.1394894 1.4038803 4.7993697 3.4956605s-.1205829 4.3694063-1.9247022 5.6168597c-1.8041194 1.2474534-4.210616 1.1734418-5.9346675-.1825202-.4104661 3.5380973-3.1130273 6.3773775-6.6265801 6.9618101-3.5135528.5844325-6.9897146-1.2270998-8.5234199-4.4418101-1.1102498 2.1761768-3.3469691 3.5460366-5.79 3.5460366s-4.6797502-1.3698598-5.79-3.5460366c-1.5337053 3.2147103-5.0098671 5.0262426-8.5234199 4.4418101-3.5135528-.5844326-6.21611404-3.4237128-6.6265801-6.9618101-1.72304752 1.3423499-4.11869063 1.4086519-5.91334565.1636582-1.79465503-1.2449937-2.57152842-3.5121439-1.91761487-5.5961768.65391354-2.0840328 2.58674807-3.5009494 4.77096052-3.4974814 1.11813272.0000531 2.20217837.3849423 3.07 1.09z" fill="#cb8252"/><path id="Shape" d="m34 50c-1.6568542 0-3-1.3431458-3-3 0-.5522847.4477153-1 1-1s1 .4477153 1 1 .4477153 1 1 1 1-.4477153 1-1 .4477153-1 1-1 1 .4477153 1 1c0 1.6568542-1.3431458 3-3 3z" fill="#a56a43"/><path id="Shape" d="m18 53c-1.6568542 0-3-1.3431458-3-3 0-.5522847.4477153-1 1-1s1 .4477153 1 1 .4477153 1 1 1 1-.4477153 1-1 .4477153-1 1-1 1 .4477153 1 1c0 1.6568542-1.3431458 3-3 3z" fill="#a56a43"/><circle id="Oval" cx="23" cy="46" fill="#805333" r="1"/><circle id="Oval" cx="3" cy="38" fill="#cb8252" r="1"/><circle id="Oval" cx="28" cy="51" fill="#805333" r="1"/><circle id="Oval" cx="45" cy="49" fill="#805333" r="1"/><circle id="Oval" cx="56" cy="38" fill="#cb8252" r="1"/><circle id="Oval" cx="53" cy="34" fill="#cb8252" r="1"/><circle id="Oval" cx="41" cy="53" fill="#805333" r="1"/><path id="Shape" d="m53.82 17.06c-5.932297 3.6994109-10.5772946 9.1406938-13.3 15.58.94-5.63 9.29-21.93 12.36-27.79.39-.76-.55-1.52-1.4-1.12-3.6 1.71-10.43 5.86-16.34 14.76.95-4.35 4.12-12.95 5.8-17.35.32-.85-.86-1.5-1.62-.91-6.2811433 4.8176417-10.7325696 11.632345-12.62 19.32-2.3-6.17-7.83-13.87-11.67-18.8-.65-.84-2.14-.22-1.78.74 2.9291116 7.84221064 5.2722125 15.8909795 7.01 24.08-2.0719116-3.2493321-4.6984897-6.1094591-7.76-8.45-.79-.6-1.98.17-1.55 1.01 2.874185 5.7902939 4.4508275 12.1378159 4.62 18.6-2.515319-6.0340708-6.7780092-11.1778563-12.24-14.77-.83-.55-1.96.26-1.5 1.07 2.47 4.41 6.55 13.08 6.23 21.92 1.3054372-.2231841 2.6406469-.2062398 3.94.05.969643-2.0157069 3.1070683-3.1987096 5.33-2.95 1.268935.1028292 2.5105463.4242273 3.67.95 0 0 1.35-2.03 5.16-2.74 2.0359715-.3747245 4.1258656-.3441407 6.15.09v.01c3.45.78 4.69 2.64 4.69 2.64.4-.17.79-.32 1.15-.44 6.07-2 7.85 2.44 7.85 2.44.34-.05.66-.1.96-.12-.1957525-9.5513391 2.7171439-18.9077026 8.3-26.66.57-.81-.56-1.72-1.44-1.16z" fill="#14a085"/><path id="Shape" d="m55.26 18.22c-5.5828561 7.7522974-8.4957525 17.1086609-8.3 26.66-.3.02-.62.07-.96.12 0 0-1.78-4.44-7.85-2.44.8321225-10.5209741 6.6598461-20.0045064 15.67-25.5.88-.56 2.01.35 1.44 1.16z" fill="#26b99a"/><path id="Shape" d="m32.31 40.35c-2.0241344-.4341407-4.1140285-.4647245-6.15-.09-1.0054818-4.8508974-2.8028579-9.5031282-5.32-13.77-.19-.31-.38-.62-.58-.92-1.7377875-8.1890205-4.0808884-16.23778936-7.01-24.08-.36-.96 1.13-1.58 1.78-.74 3.84 4.93 9.37 12.63 11.67 18.8 1.1985991 3.0152712 2.2334401 6.0930887 3.1 9.22 1.0593506 3.8083488 1.8974184 7.6748126 2.51 11.58z" fill="#26b99a"/><path id="Shape" d="m40.94 1.14c-1.68 4.4-4.85 13-5.8 17.35v.01c-2.1291792 3.2301521-3.9186927 6.6717821-5.34 10.27-.8665599-3.1269113-1.9014009-6.2047288-3.1-9.22 1.8874304-7.687655 6.3388567-14.5023583 12.62-19.32.76-.59 1.94.06 1.62.91z" fill="#33907c"/><path id="Shape" d="m17.33 42.05c-2.2229317-.2487096-4.360357.9342931-5.33 2.95-1.2993531-.2562398-2.6345628-.2731841-3.94-.05.32-8.84-3.76-17.51-6.23-21.92-.46-.81.67-1.62 1.5-1.07 5.4619908 3.5921437 9.724681 8.7359292 12.24 14.77.7270378 1.7237719 1.3155669 3.5027348 1.76 5.32z" fill="#26b99a"/><path id="Shape" d="m53 48c-.4219119-.0000616-.7983938-.2649192-.941-.662-.053-.129-.982-2.172-5.894-1.352-.4636644.0779686-.9190225-.177598-1.094-.614-.4420339-.9112011-1.2084383-1.6244671-2.149-2-1.455-.59-3.315-.406-5.528.543-.4429848.1899958-.958467.0369488-1.226-.364-.068-.092-1.854-2.551-7.168-2.551s-7.1 2.459-7.174 2.564c-.2724516.390691-.7804641.5385143-1.22.355-2.23-.956-4.1-1.134-5.562-.529-.9228068.3811132-1.6748385 1.085854-2.115 1.982-.1749775.436402-.6303356.6919686-1.094.614-4.96-.827-5.859 1.266-5.9 1.356-.20060012.5051958-.76387667.7623534-1.277.583-.50757413-.1783226-.77917724-.7299747-.611-1.241.051-.15 1.258-3.54 7.407-2.773.6772579-1.0584186 1.6614387-1.8849072 2.821-2.369 2.1007106-.7429859 4.4070127-.6473526 6.439.267 1.013-.998 3.503-2.809 8.286-2.809s7.273 1.811 8.282 2.809c2.031745-.915377 4.3384461-1.0110268 6.439-.267 1.1595613.4840928 2.1437421 1.3105814 2.821 2.369 6.148-.769 7.356 2.623 7.407 2.773.1015762.3049726.0503565.6401819-.1376576.9009053-.1880141.2607235-.4898988.4151721-.8113424.4150947z" fill="#a56a43"/></g></g></svg>