<svg id="Layer_3" enable-background="new 0 0 64 64" height="512" viewBox="0 0 64 64" width="512" xmlns="http://www.w3.org/2000/svg"><g><path d="m2 7c3.201 3.201 7.544 5 12.071 5h13.858c4.528 0 8.87-1.799 12.071-5z" fill="#a8b0bc"/><path d="m2 12c3.201 3.201 7.544 5 12.071 5h13.858c4.528 0 8.87-1.799 12.071-5z" fill="#8892a0"/><path d="m2 17c3.201 3.201 7.544 5 12.071 5h13.858c4.528 0 8.87-1.799 12.071-5z" fill="#a8b0bc"/><path d="m2 22c3.201 3.201 7.544 5 12.071 5h13.858c4.528 0 8.87-1.799 12.071-5z" fill="#8892a0"/><path d="m2 27c3.201 3.201 7.544 5 12.071 5h13.858c4.528 0 8.87-1.799 12.071-5z" fill="#a8b0bc"/><path d="m2 32c3.201 3.201 7.544 5 12.071 5h13.858c4.528 0 8.87-1.799 12.071-5z" fill="#8892a0"/><path d="m2 37c3.201 3.201 7.544 5 12.071 5h13.858c4.528 0 8.87-1.799 12.071-5z" fill="#a8b0bc"/><path d="m2 42c3.201 3.201 7.544 5 12.071 5h13.858c4.528 0 8.87-1.799 12.071-5z" fill="#8892a0"/><path d="m2 47c3.201 3.201 7.544 5 12.071 5h13.858c4.528 0 8.87-1.799 12.071-5z" fill="#a8b0bc"/><circle cx="40" cy="40" fill="#c1c8d1" r="22"/><circle cx="40" cy="40" fill="#8892a0" r="14"/><path d="m2 2c3.201 3.201 7.544 5 12.071 5h13.858c4.527 0 8.87-1.799 12.071-5z" fill="#8892a0"/><path d="m50 25c3.314 0 6-2.686 6-6 0 3.314 2.686 6 6 6-3.314 0-6 2.686-6 6 0-3.314-2.686-6-6-6z" fill="#e7e4dd"/><path d="m26 40c0 1.745.334 3.408.917 4.949.332.019.661.05.998.05 9.389 0 17-7.611 17-17 0-.377-.032-.745-.056-1.116-1.516-.561-3.148-.883-4.859-.883-7.732 0-14 6.268-14 14z" fill="#a8b0bc"/><path d="m51.144 33.302c1.214 2.015 1.854 4.331 1.854 6.698 0 7.168-5.831 13-12.999 13-7.169 0-13-5.832-13-13s5.831-13 13-13c2.33 0 4.616.623 6.609 1.802l1.019-1.721c-2.302-1.362-4.94-2.081-7.628-2.081-8.271 0-15 6.729-15 15s6.729 15 15 15 14.999-6.729 14.999-15c0-2.73-.74-5.403-2.141-7.729z"/><path d="m1.075 11.617c-.155.374-.068.804.217 1.09 1.348 1.347 2.875 2.445 4.521 3.293h-3.813c-.405 0-.77.243-.925.617-.154.374-.068.804.217 1.09 1.348 1.347 2.875 2.445 4.521 3.293h-3.813c-.405 0-.77.243-.925.617-.154.374-.068.804.217 1.09 1.348 1.347 2.875 2.445 4.521 3.293h-3.813c-.405 0-.77.243-.925.617-.154.374-.068.804.217 1.09 1.348 1.347 2.875 2.445 4.521 3.293h-3.813c-.405 0-.77.243-.925.617-.154.374-.068.804.217 1.09 1.347 1.347 2.875 2.445 4.521 3.293h-3.814c-.404 0-.769.244-.924.617-.154.374-.068.804.217 1.09 1.347 1.347 2.875 2.445 4.521 3.293h-3.813c-.405 0-.77.243-.925.617-.154.374-.068.804.217 1.09 1.348 1.347 2.875 2.445 4.521 3.293h-3.813c-.405 0-.77.243-.925.617-.154.374-.068.804.217 1.09 3.414 3.413 7.951 5.293 12.777 5.293h6.969c4.15 6.034 11.099 10 18.96 10 12.682 0 22.999-10.317 22.999-23 0-4.678-1.397-9.133-4.018-12.96.841-.643 1.879-1.04 3.018-1.04h.001c.552 0 1-.448.999-1 0-.552-.447-1-1-1-1.335 0-2.591-.52-3.535-1.464s-1.465-2.2-1.465-3.535c0-.553-.447-1-.999-1-.553 0-1 .447-1 1 0 1.036-.321 2.019-.902 2.851-3.758-2.921-8.352-4.602-13.11-4.808.006-.143-.008-.288-.065-.426-.153-.375-.518-.618-.923-.618h-3.813c1.646-.848 3.174-1.946 4.521-3.293.285-.286.371-.716.217-1.09-.155-.374-.52-.617-.925-.617h-3.813c1.646-.848 3.174-1.946 4.521-3.293.285-.286.371-.716.217-1.09-.155-.374-.52-.617-.925-.617h-3.813c1.646-.848 3.174-1.946 4.521-3.293.285-.286.371-.716.217-1.09-.155-.374-.52-.617-.925-.617h-37.999c-.405 0-.77.243-.924.617-.155.374-.068.804.217 1.09 1.348 1.347 2.875 2.445 4.521 3.293h-3.814c-.405 0-.77.243-.924.617-.155.374-.068.804.217 1.09 1.348 1.347 2.875 2.445 4.521 3.293h-3.814c-.405 0-.77.243-.924.617zm32.216 6.383c-2.243.685-4.341 1.704-6.236 3h-12.985c-3.404 0-6.646-1.051-9.357-3zm-8.768 5c-1.005.915-1.924 1.921-2.754 3h-7.699c-3.403 0-6.646-1.051-9.356-3zm-4.137 5c-.587.956-1.107 1.958-1.552 3h-4.764c-3.404 0-6.646-1.051-9.357-3zm-2.294 5c-.312.973-.557 1.975-.737 3h-3.285c-3.404 0-6.646-1.051-9.357-3zm-4.022 5h3.021c-.057.66-.092 1.326-.092 2 0 .335.011.668.025 1h-2.955c-3.403 0-6.646-1.051-9.356-3zm3.131 5c.134 1.022.333 2.024.597 3h-3.728c-3.404 0-6.646-1.051-9.357-3zm-3.132 8c-3.403 0-6.646-1.051-9.356-3h13.724c.386 1.037.844 2.039 1.369 3zm25.93 9.999c-11.58 0-21-9.42-21-21s9.42-21 21-21c4.559 0 8.999 1.511 12.624 4.242-.782.486-1.68.759-2.624.759-.553 0-1 .447-1 1s.448 1 1 1h.001c1.335 0 2.591.52 3.534 1.464.944.944 1.465 2.2 1.465 3.535 0 .553.447 1 1 1 .552 0 .999-.447.999-1 0-.87.243-1.676.635-2.389 2.2 3.393 3.365 7.299 3.365 11.39 0 11.579-9.42 20.999-20.999 20.999zm16-38.388c.291.481.642.931 1.05 1.338.409.409.86.761 1.343 1.053-.979.591-1.803 1.415-2.393 2.395-.591-.979-1.414-1.804-2.394-2.395.483-.291.935-.644 1.344-1.053.407-.407.759-.857 1.05-1.338zm-18.715-19.611c-2.71 1.949-5.952 3-9.355 3h-13.859c-3.404 0-6.646-1.051-9.357-3zm0 5c-2.71 1.949-5.952 3-9.355 3h-13.859c-3.404 0-6.646-1.051-9.357-3zm0 5c-2.71 1.949-5.952 3-9.355 3h-13.859c-3.404 0-6.646-1.051-9.357-3z"/></g></svg>