<?xml version="1.0" encoding="iso-8859-1"?>
<!-- Generator: Adobe Illustrator 19.0.0, SVG Export Plug-In . SVG Version: 6.00 Build 0)  -->
<svg version="1.1" id="Layer_1" xmlns="http://www.w3.org/2000/svg" xmlns:xlink="http://www.w3.org/1999/xlink" x="0px" y="0px"
	 viewBox="0 0 512.002 512.002" style="enable-background:new 0 0 512.002 512.002;" xml:space="preserve">
<g transform="translate(0 -1)">
	<path style="fill:#805333;" d="M512.002,292.326c-2.763-16.534-26.483-26.509-26.483-26.509s-141.974-2.207-185.379-52.966
		s-88.276-61.793-88.276-61.793l-17.655,17.655C83.131,276.852,17.657,186.369,17.657,186.369
		c-33.439,51.447-8.872,114.635-8.828,114.741l76.615-0.088c12.774,0,25.538,1.227,38.02,3.919
		c271.457,58.492,388.537-12.747,388.537-12.747V292.326z"/>
	<path style="fill:#CB8252;" d="M211.864,151.055l-17.655,17.655C83.131,276.848,17.657,186.365,17.657,186.365
		C-15.782,237.812,8.785,301,8.829,301.115l76.615-0.088c12.774,0,25.538,1.218,38.02,3.911c6.073,1.306,11.97,2.472,17.894,3.655
		c1.439-36.829,69.87-47.537,116.418-50.547c23.852-1.545,42.364-21.301,42.364-45.197
		C256.734,162.089,211.864,151.055,211.864,151.055"/>
	<path style="fill:#805333;" d="M61.795,274.641c-4.873,0-8.828-3.955-8.828-8.828c0-3.602-6.877-8.828-17.655-8.828
		c-4.873,0-8.828-3.955-8.828-8.828c0-4.873,3.955-8.828,8.828-8.828c10.655,0,20.056,3.363,26.483,8.792
		c6.426-5.429,15.828-8.792,26.483-8.792c4.873,0,8.828,3.955,8.828,8.828c0,4.873-3.955,8.828-8.828,8.828
		c-10.778,0-17.655,5.226-17.655,8.828C70.622,270.686,66.668,274.641,61.795,274.641"/>
	<path style="fill:#6B4226;" d="M123.471,304.938C394.92,363.43,512,292.2,512,292.2v26.483
		c-141.056,87.605-377.785,18.211-379.586,17.752l-8.828,8.828H0v-44.138l85.442-0.097
		C98.216,301.028,110.98,302.246,123.471,304.938"/>
	<g>
		<path style="fill:#805333;" d="M229.519,195.193c-2.26,0-4.52-0.865-6.241-2.586c-3.452-3.452-3.452-9.031,0-12.482l17.655-17.655
			c3.452-3.452,9.031-3.452,12.482,0c3.452,3.452,3.452,9.031,0,12.482l-17.655,17.655
			C234.039,194.328,231.779,195.193,229.519,195.193"/>
		<path style="fill:#805333;" d="M256.002,221.662c-2.26,0-4.511-0.865-6.241-2.578c-3.443-3.452-3.452-9.039-0.009-12.491
			l22.334-22.36c3.443-3.46,9.031-3.46,12.482-0.009c3.452,3.443,3.452,9.031,0.009,12.482l-22.325,22.369
			C260.521,220.797,258.262,221.662,256.002,221.662"/>
	</g>
</g>
<g>
</g>
<g>
</g>
<g>
</g>
<g>
</g>
<g>
</g>
<g>
</g>
<g>
</g>
<g>
</g>
<g>
</g>
<g>
</g>
<g>
</g>
<g>
</g>
<g>
</g>
<g>
</g>
<g>
</g>
</svg>
