<svg height="512" viewBox="0 0 512 512" width="512" xmlns="http://www.w3.org/2000/svg"><path d="m136 288v-144a120 120 0 0 1 120-120 120 120 0 0 1 120 120v144z" fill="#4a4d4f"/><path d="m176 152h-24a16 16 0 0 0 -16 16 16 16 0 0 0 16 16h24z" fill="#e5b391"/><path d="m336 152h24a16 16 0 0 1 16 16 16 16 0 0 1 -16 16h-24z" fill="#e5b391"/><path d="m200 112h11.156a53.9 53.9 0 0 0 44.844-24 53.9 53.9 0 0 0 44.844 24h11.156a32 32 0 0 1 32 32v32a88 88 0 0 1 -88 88 88 88 0 0 1 -88-88v-32a32 32 0 0 1 32-32z" fill="#fccca7"/><path d="m259.021 92.058c-1.058-1.3-2.079-2.645-3.021-4.058-.191.286-.4.556-.6.838 1.167 1.125 2.367 2.208 3.621 3.22z" fill="#e5b391"/><path d="m330.268 117.732a31.85 31.85 0 0 1 5.732 18.268v32a88 88 0 0 1 -88 88 87.66 87.66 0 0 1 -58.094-21.906 87.787 87.787 0 0 0 66.094 29.906 88 88 0 0 0 88-88v-32a31.96 31.96 0 0 0 -13.732-26.268z" fill="#e5b391"/><path d="m120 488h272v-168a48 48 0 0 0 -48-48h-176a48 48 0 0 0 -48 48z" fill="#327449"/><path d="m344 272h-16a48 48 0 0 1 48 48v168h16v-168a48 48 0 0 0 -48-48z" fill="#20512d"/><path d="m184 272a72 72 0 0 0 72 72 72 72 0 0 0 72-72z" fill="#fccca7"/><path d="m248 392h16v96h-16z" fill="#888c8e"/><g fill="#fccd31"><path d="m424 200a24 24 0 1 1 24-24 24.028 24.028 0 0 1 -24 24zm0-32a8 8 0 1 0 8 8 8.009 8.009 0 0 0 -8-8z"/><path d="m472 232a24 24 0 1 1 24-24 24.028 24.028 0 0 1 -24 24zm0-32a8 8 0 1 0 8 8 8.009 8.009 0 0 0 -8-8z"/><path d="m496 208h-16v-83.056l-32-16v67.056h-16v-80a8 8 0 0 1 11.578-7.155l48 24a8 8 0 0 1 4.422 7.155z"/><path d="m40 232a24 24 0 1 1 24-24 24.028 24.028 0 0 1 -24 24zm0-32a8 8 0 1 0 8 8 8.009 8.009 0 0 0 -8-8z"/><path d="m64 208h-16v-80a8 8 0 0 1 11.578-7.155l48 24-7.156 14.31-36.422-18.211z"/></g><path d="m240 168h-16v-8a8 8 0 0 0 -16 0v8h-16v-8a24 24 0 0 1 48 0z" fill="#242526"/><path d="m320 168h-16v-8a8 8 0 0 0 -16 0v8h-16v-8a24 24 0 0 1 48 0z" fill="#242526"/><path d="m335.993 488v-80a71.556 71.556 0 0 0 0-64 79.877 79.877 0 0 1 -31.993 64v80z" fill="#20512d"/><path d="m176 488v-80a71.556 71.556 0 0 1 0-64c-16 8-24 34.886-24 56v88z" fill="#20512d"/><rect fill="#cd201c" height="32" rx="16" width="64" x="224" y="200"/><path d="m248 216h32a15.914 15.914 0 0 1 7.852 2.068 16.221 16.221 0 0 0 .148-2.068 16 16 0 0 0 -16-16h-32a16 16 0 0 0 -16 16 15.986 15.986 0 0 0 8.148 13.932 15.993 15.993 0 0 1 15.852-13.932z" fill="#a31111"/><path d="m240 288h32l-8 112h-16z" fill="#4a4d4f"/><path d="m269.562 322.133 2.438-34.133h-32l1.207 16.892a47.965 47.965 0 0 1 28.355 17.241z" fill="#37383a"/><circle cx="256" cy="272" fill="#f4f0ed" r="24"/><path d="m268.494 251.506a24 24 0 0 1 -32.988 32.988 24 24 0 1 0 32.988-32.988z" fill="#d3cbc2"/></svg>