<svg id="Capa_1" enable-background="new 0 0 512.002 512.002" height="512" viewBox="0 0 512.002 512.002" width="512" xmlns="http://www.w3.org/2000/svg"><g><path d="m360.998 221.716h-7.221v-124.216c0-53.762-43.738-97.5-97.5-97.5s-97.5 43.738-97.5 97.5v124.216h-7.773c-12.406 0-22.5 10.094-22.5 22.5s10.094 22.5 22.5 22.5h15.273c4.143 0 7.5-3.357 7.5-7.5v-22.5h29.727v49.759c-9.693 11.988-15 26.935-15 42.406l.001 35.335c0 4.143 3.358 7.5 7.5 7.5 8.021 0 15.772-2.203 22.499-6.191v31.14c0 8.505 2.932 16.842 8.255 23.473l21.745 27.093v28.985c0 4.143 3.357 7.5 7.5 7.5s7.5-3.357 7.5-7.5v-31.623c0-1.707-.582-3.363-1.651-4.694l-23.396-29.149c-3.193-3.979-4.952-8.98-4.952-14.084v-31.141c6.728 3.988 14.479 6.192 22.501 6.192 8.021 0 15.772-2.203 22.499-6.191v110.691c0 1.164.271 2.313.792 3.354l14.142 28.284c1.313 2.628 3.963 4.147 6.714 4.147 1.127 0 2.271-.256 3.348-.794 3.705-1.853 5.207-6.357 3.354-10.063l-13.35-26.7v-108.921c6.728 3.988 14.479 6.192 22.501 6.192 1.989 0 3.896-.79 5.304-2.196 1.406-1.407 2.196-3.314 2.196-5.304l-.001-35.335c0-15.471-5.307-30.416-15-42.406v-49.759h30.273v20.465c-.182.647-.279 1.33-.279 2.035 0 4.143 3.357 7.5 7.5 7.5h15c12.406 0 22.5-10.094 22.5-22.5s-10.095-22.5-22.501-22.5zm-202.221 30h-7.773c-4.136 0-7.5-3.364-7.5-7.5s3.364-7.5 7.5-7.5h7.773zm134.727-22.384v52.384h-75v-52.5c0-6.893 5.607-12.5 12.5-12.5h50c6.873 0 12.465 5.576 12.497 12.442 0 .02-.003.038-.003.058 0 .039.005.077.006.116zm15.001 126.397c-6.543-1.749-12.375-5.754-16.366-11.427-1.404-1.997-3.692-3.185-6.134-3.185s-4.729 1.188-6.134 3.185c-5.469 7.772-14.391 12.413-23.866 12.413s-18.397-4.641-23.866-12.413c-1.404-1.997-3.692-3.185-6.134-3.185s-4.729 1.188-6.134 3.185c-3.992 5.673-9.823 9.678-16.366 11.427l-.001-26.849c0-11.687 3.905-22.982 11.039-32.165h82.922c7.134 9.185 11.039 20.479 11.039 32.165zm30.272-134.013h-31.322c-3.274-11.528-13.889-20-26.452-20h-50c-12.563 0-23.178 8.472-26.452 20h-30.775v-124.216c0-45.49 37.01-82.5 82.5-82.5s82.5 37.01 82.5 82.5v124.216zm22.221 30h-7.221v-15h7.221c4.136 0 7.5 3.364 7.5 7.5s-3.364 7.5-7.5 7.5z"/><path d="m286.773 91.719c6.08-4.565 10.021-11.832 10.021-20.003 0-12.258-8.868-22.483-20.526-24.599-4.649-6.43-12.201-10.401-20.267-10.401s-15.617 3.972-20.267 10.401c-11.658 2.115-20.526 12.341-20.526 24.599 0 8.171 3.941 15.438 10.021 20.003-13.152 9.55-21.728 25.037-21.728 42.497 0 28.948 23.552 52.5 52.5 52.5s52.5-23.552 52.5-52.5c0-17.46-8.576-32.947-21.728-42.497zm-46.565-10.003c-5.514 0-10-4.486-10-10s4.486-10 10-10c2.894 0 5.529-1.665 6.772-4.277 1.68-3.53 5.136-5.723 9.021-5.723s7.341 2.192 9.021 5.723c1.243 2.612 3.879 4.277 6.772 4.277 5.514 0 10 4.486 10 10s-4.486 10-10 10zm15.793 90c-20.678 0-37.5-16.822-37.5-37.5s16.822-37.5 37.5-37.5 37.5 16.822 37.5 37.5-16.822 37.5-37.5 37.5z"/></g></svg>