<svg id="Capa_1" enable-background="new 0 0 512 512" height="512" viewBox="0 0 512 512" width="512" xmlns="http://www.w3.org/2000/svg"><g><path d="m421.464 87.415h-165.463-167.545s-64.538 195.63-66.553 414.168c-.053 5.733 4.572 10.417 10.306 10.417h316.783c3.639 0 7.008-1.92 8.863-5.05l24.988-42.167c2.395-4.041 8.244-4.04 10.637.003l24.955 42.16c1.854 3.133 5.225 5.054 8.865 5.054h52.491c5.735 0 10.362-4.686 10.307-10.421-2.08-218.537-68.634-414.164-68.634-414.164z" fill="#cbafea"/><path d="m421.464 87.415h-22.894s39.545 118.634 23.935 231.006c-10.92 78.608-75.968 179.716-167.994 193.579h94.481c3.639 0 7.008-1.92 8.863-5.05l24.988-42.167c2.395-4.041 8.244-4.04 10.637.003l24.955 42.16c1.854 3.133 5.225 5.054 8.865 5.054h52.491c5.735 0 10.362-4.686 10.307-10.421-2.08-218.537-68.634-414.164-68.634-414.164z" fill="#bc95e2"/><path d="m88.456 26.952v60.462h333.008v-60.462c0-5.69-4.612-10.302-10.302-10.302h-312.404c-5.69 0-10.302 4.613-10.302 10.302z" fill="#bed8fb"/><path d="m398.57 16.65v70.764h22.894v-60.462c0-5.69-4.612-10.302-10.302-10.302z" fill="#9dc6fb"/><path d="m221.659 66.602v-29.139c0-2.299 1.864-4.163 4.163-4.163h79.089c9.196 0 16.65-7.455 16.65-16.65 0-9.196-7.455-16.65-16.65-16.65h-97.821c-10.345 0-18.732 8.386-18.732 18.732v66.602c0 10.345 8.386 18.732 18.732 18.732h97.821c9.196 0 16.65-7.455 16.65-16.65 0-9.196-7.455-16.65-16.65-16.65h-79.089c-2.299-.002-4.163-1.865-4.163-4.164z" fill="#ffe07d"/><g fill="#756e78"><circle cx="354.863" cy="397.528" r="8.325"/><circle cx="354.863" cy="364.228" r="8.325"/><circle cx="354.863" cy="430.829" r="8.325"/></g><path d="m387.927 348.18c-4.229.126-7.49 3.816-7.49 8.046v112.616l2.405-4.059c2.395-4.041 8.244-4.04 10.637.003l2.411 4.073v-112.957c0-4.345-3.587-7.853-7.963-7.722z" fill="#ac80dd"/></g></svg>