<?xml version="1.0" encoding="iso-8859-1"?>
<!-- Generator: Adobe Illustrator 19.0.0, SVG Export Plug-In . SVG Version: 6.00 Build 0)  -->
<svg version="1.1" id="Layer_1" xmlns="http://www.w3.org/2000/svg" xmlns:xlink="http://www.w3.org/1999/xlink" x="0px" y="0px"
	 viewBox="0 0 512.467 512.467" style="enable-background:new 0 0 512.467 512.467;" xml:space="preserve">
<path style="fill:#BDBDBD;" d="M490.2,22.167c31.2,31.2,24.8,87.6-37.2,149.6c-26,26-65.2,30-96,12.4l-306.8,315.6
	c-10.4,10.4-28,10.8-38.4,0c-10.4-10.4-10.4-27.6,0-38.4l318.4-302.4c-20.4-30.8-17.2-72.8,10-100
	C402.6-2.633,459-8.633,490.2,22.167z"/>
<path d="M31,512.167c-8,0-16-3.2-22-8.8c-12-12-12-32,0-44l316.4-300c-20-32.8-14.8-75.2,12.4-102.4l0,0
	c58.4-58.4,119.6-73.2,155.2-37.2c36,36,21.2,96.8-37.2,155.2c-26,26-65.6,31.6-98,14.8L53,503.367
	C47,508.967,39,512.167,31,512.167z M343.4,62.567c-25.2,25.2-29.2,65.2-9.6,95.2c1.2,1.6,0.8,3.6-0.4,5.2L15,465.367
	c-8.8,8.8-9.2,23.6,0,32.4c8.8,8.8,23.6,8.8,32.8,0l306.8-315.6c1.2-1.2,3.2-1.6,4.8-0.8c29.6,17.2,66.8,12,90.8-12
	c55.2-55.2,69.6-111.6,37.2-144C455-7.433,398.6,7.367,343.4,62.567L343.4,62.567z"/>
<path d="M470.2,30.567c-0.8,0-1.6,0-2-0.4c-6.8-4-14.8-6-23.6-6.4c-2.4,0-4-2-4-4c0-2.4,2-4,4-4c10.4,0,19.6,2.4,27.6,7.6
	c2,1.2,2.4,3.6,1.2,5.6C472.6,29.767,471.4,30.567,470.2,30.567z"/>
<path d="M378.2,50.967c-1.2,0-2.4-0.4-3.2-1.6c-1.2-1.6-1.2-4.4,0.8-5.6c16.4-12.8,32.4-21.2,47.6-25.2c2-0.4,4.4,0.8,4.8,2.8
	c0.4,2-0.8,4.4-2.8,4.8c-14,4-29.2,12-44.8,24C380.2,50.967,379.4,50.967,378.2,50.967z"/>
<g>
</g>
<g>
</g>
<g>
</g>
<g>
</g>
<g>
</g>
<g>
</g>
<g>
</g>
<g>
</g>
<g>
</g>
<g>
</g>
<g>
</g>
<g>
</g>
<g>
</g>
<g>
</g>
<g>
</g>
</svg>
