<svg height="512pt" viewBox="0 0 512 512" width="512pt" xmlns="http://www.w3.org/2000/svg"><path d="m182.378906 245.269531c-28.449218 16.84375-108.226562 24.410157-171.101562 86.167969-6.519532 6.40625-4.273438 17.355469 4.207031 20.761719 44.464844 17.863281 99.394531 85.898437 139.359375 112.214843 7.171875 4.722657 16.5 4.851563 23.621094.054688 37.453125-25.203125 58.394531-94.644531 116.90625-120.660156zm0 0" fill="#e26e7e"/><path d="m295.371094 343.808594-112.992188-98.539063c-12.765625 7.558594-35.863281 13.25-63.132812 22.804688-12.097656 56.445312-3.824219 161.230469 65.230468 191.863281 33.84375-28.152344 55.585938-91.539062 110.894532-116.128906zm0 0" fill="#d9495d"/><path d="m239.265625 504.5c-7.664063 0-14.542969-5.359375-16.171875-13.160156-7.546875-36.121094 1.792969-96.667969 3.824219-106.308594 1.886719-8.9375 10.652343-14.65625 19.597656-12.769531 8.941406 1.882812 14.660156 10.660156 12.773437 19.597656-2.371093 11.242187-9.601562 65.011719-3.8125 92.710937 1.867188 8.945313-3.867187 17.707032-12.808593 19.578126-1.140625.238281-2.28125.351562-3.402344.351562zm0 0" fill="#efd176"/><path d="m339.574219 504.5c-1.125 0-2.261719-.113281-3.402344-.351562-8.941406-1.871094-14.675781-10.632813-12.808594-19.578126 5.785157-27.691406-1.441406-81.46875-3.8125-92.710937-1.882812-8.9375 3.835938-17.714844 12.773438-19.597656 8.945312-1.890625 17.714843 3.835937 19.597656 12.773437 2.035156 9.640625 11.371094 70.199219 3.824219 106.304688-1.628906 7.800781-8.507813 13.160156-16.171875 13.160156zm0 0" fill="#efd176"/><path d="m380.734375 328.378906c-6.023437 0-11.832031-3.300781-14.753906-9.035156-4.144531-8.140625-.910157-18.101562 7.230469-22.246094 25.46875-12.976562 57.691406-46.789062 101.402343-106.402344 5.402344-7.371093 15.753907-8.960937 23.121094-3.558593 7.367187 5.398437 8.960937 15.753906 3.558594 23.121093-47.527344 64.820313-82.398438 100.691407-113.0625 116.316407-2.40625 1.222656-4.96875 1.804687-7.496094 1.804687zm0 0" fill="#efd176"/><path d="m161.488281 397.832031c-17.027343.003907-32.179687-6.324219-43.128906-18.371093-14.53125-15.988282-18.902344-38.992188-11.414063-60.03125 8.660157-24.324219 31.203126-40.914063 61.847657-45.523438 9.039062-1.355469 17.460937 4.867188 18.816406 13.902344 1.359375 9.03125-4.863281 17.457031-13.898437 18.8125-18.457032 2.777344-31.097657 11.265625-35.597657 23.902344-3.335937 9.378906-1.480469 19.855468 4.726563 26.6875 6.441406 7.082031 16.816406 9.265624 29.222656 6.144531 8.859375-2.226563 17.851562 3.144531 20.078125 12.003906 2.226563 8.863281-3.148437 17.851563-12.007813 20.078125-6.378906 1.605469-12.628906 2.394531-18.644531 2.394531zm0 0" fill="#efd176"/><path d="m243.945312 74.148438c23.273438 23.273437 27.261719 59.503906 27.660157 78.101562.144531 6.757812-5.382813 12.28125-12.136719 12.136719-18.597656-.398438-54.828125-4.386719-78.105469-27.660157-23.269531-23.273437-27.257812-59.503906-27.65625-78.101562-.144531-6.757812 5.378907-12.28125 12.136719-12.136719 18.59375.398438 54.828125 4.382813 78.101562 27.660157zm0 0" fill="#8ee2cf"/><path d="m226.609375 126.894531c-1.917969 0-3.835937-.734375-5.300781-2.199219l-27.914063-27.910156c-2.929687-2.929687-2.929687-7.679687 0-10.605468 2.929688-2.929688 7.679688-2.929688 10.609375 0l27.910156 27.910156c2.929688 2.929687 2.929688 7.679687 0 10.605468-1.464843 1.464844-3.382812 2.199219-5.304687 2.199219zm0 0" fill="#6fce91"/><path d="m334.894531 74.148438c-23.269531 23.273437-27.257812 59.503906-27.65625 78.101562-.144531 6.757812 5.378907 12.28125 12.136719 12.136719 18.59375-.398438 54.828125-4.386719 78.101562-27.660157 23.273438-23.273437 27.261719-59.503906 27.660157-78.101562.144531-6.757812-5.382813-12.28125-12.136719-12.136719-18.597656.398438-54.828125 4.382813-78.105469 27.660157zm0 0" fill="#8ee2cf"/><path d="m352.230469 126.894531c-1.917969 0-3.839844-.734375-5.304688-2.199219-2.929687-2.929687-2.929687-7.675781 0-10.605468l27.914063-27.910156c2.929687-2.929688 7.675781-2.929688 10.605468 0 2.929688 2.925781 2.929688 7.675781 0 10.605468l-27.914062 27.910156c-1.460938 1.464844-3.382812 2.199219-5.300781 2.199219zm0 0" fill="#6fce91"/><path d="m333.671875 85.945312c0 32.914063-22.800781 61.351563-35.667969 74.78125-4.675781 4.882813-12.488281 4.882813-17.164062 0-12.867188-13.429687-35.667969-41.867187-35.667969-74.78125 0-32.914062 22.800781-61.355468 35.667969-74.785156 4.675781-4.878906 12.488281-4.878906 17.164062 0 12.867188 13.429688 35.667969 41.871094 35.667969 74.785156zm0 0" fill="#8ee2cf"/><path d="m289.421875 113.179688c-4.144531 0-7.5-3.355469-7.5-7.5v-39.472657c0-4.140625 3.355469-7.5 7.5-7.5 4.140625 0 7.5 3.359375 7.5 7.5v39.472657c0 4.144531-3.359375 7.5-7.5 7.5zm0 0" fill="#6fce91"/><path d="m289.421875 133.828125c68.273437 0 117.082031 53.773437 123.625 135.203125 6.804687 84.703125-25.058594 147.886719-123.625 147.886719-98.570313 0-130.429687-63.183594-123.625-147.886719 6.542969-81.429688 55.347656-135.203125 123.625-135.203125zm0 0" fill="#f7ef87"/><g fill="#efd176"><path d="m248.605469 140.925781c-46.359375 17.113281-77.664063 64.046875-82.808594 128.105469-6.785156 84.46875 24.886719 147.527344 122.808594 147.875-118.855469-72.71875-86.984375-203.921875-40-275.980469zm0 0"/><path d="m290.523438 238.238281c-1.921876 0-3.839844-.730469-5.304688-2.195312-2.929688-2.929688-2.929688-7.679688 0-10.605469l12.003906-12.003906c2.929688-2.929688 7.679688-2.929688 10.609375 0l12 12.003906c2.929688 2.925781 2.929688 7.675781 0 10.605469-2.929687 2.929687-7.675781 2.929687-10.605469 0l-6.699218-6.699219-6.703125 6.699219c-1.460938 1.464843-3.382813 2.195312-5.300781 2.195312zm0 0"/><path d="m359.148438 238.238281c-1.917969 0-3.839844-.730469-5.304688-2.195312-2.925781-2.929688-2.925781-7.679688.003906-10.605469l12.003906-12.003906c2.925782-2.929688 7.675782-2.929688 10.605469 0l12.003907 12.003906c2.929687 2.925781 2.929687 7.675781 0 10.605469-2.929688 2.929687-7.679688 2.929687-10.609376 0l-6.699218-6.699219-6.699219 6.699219c-1.464844 1.464843-3.386719 2.195312-5.304687 2.195312zm0 0"/><path d="m221.898438 238.238281c-1.921876 0-3.839844-.730469-5.304688-2.195312-2.929688-2.929688-2.929688-7.679688 0-10.605469l12.003906-12.003906c2.929688-2.929688 7.679688-2.929688 10.605469 0l12.003906 12.003906c2.929688 2.925781 2.929688 7.675781 0 10.605469-2.929687 2.929687-7.679687 2.929687-10.605469 0l-6.699218-6.699219-6.703125 6.699219c-1.464844 1.464843-3.382813 2.195312-5.300781 2.195312zm0 0"/><path d="m348.84375 378.925781c-1.917969 0-3.839844-.730469-5.304688-2.195312l-6.699218-6.699219-6.699219 6.699219c-2.929687 2.929687-7.679687 2.929687-10.605469 0-2.929687-2.929688-2.929687-7.679688-.003906-10.609375l12.003906-12.003906c1.40625-1.402344 3.316406-2.195313 5.304688-2.195313 1.988281 0 3.898437.789063 5.304687 2.195313l12.003907 12.003906c2.929687 2.929687 2.929687 7.679687 0 10.609375-1.464844 1.464843-3.386719 2.195312-5.304688 2.195312zm0 0"/><path d="m280.21875 378.925781c-1.917969 0-3.839844-.730469-5.304688-2.195312l-6.699218-6.699219-6.699219 6.699219c-2.929687 2.929687-7.679687 2.929687-10.605469 0-2.929687-2.929688-2.929687-7.679688-.003906-10.609375l12.003906-12.003906c1.40625-1.402344 3.316406-2.195313 5.304688-2.195313 1.988281 0 3.894531.789063 5.304687 2.195313l12.003907 12.003906c2.929687 2.929687 2.929687 7.679687 0 10.609375-1.464844 1.464843-3.386719 2.195312-5.304688 2.195312zm0 0"/></g><path d="m252.324219 302.054688c0-12.910157-13.140625-23.375-29.355469-23.375-16.210938 0-29.355469 10.464843-29.355469 23.375 0 12.910156 13.144531 23.378906 29.355469 23.378906 16.214844 0 29.355469-10.46875 29.355469-23.378906zm0 0" fill="#eda1ab"/><path d="m411.4375 302.054688c0-12.910157-13.140625-23.375-29.351562-23.375-16.214844 0-29.355469 10.464843-29.355469 23.375 0 12.910156 13.140625 23.378906 29.355469 23.378906 16.210937 0 29.351562-10.46875 29.351562-23.378906zm0 0" fill="#eda1ab"/><path d="m326.699219 333.441406 18.410156 14.195313c4.582031 3.53125 5.015625 10.28125.925781 14.371093l-32.214844 32.214844c-6.6875 6.6875-17.527343 6.6875-24.214843 0l-32.214844-32.214844c-4.089844-4.089843-3.652344-10.839843.925781-14.371093l18.410156-14.195313c2.996094-2.308594 6.671876-3.5625 10.457032-3.5625h29.0625c3.78125 0 7.457031 1.253906 10.453125 3.5625zm0 0" fill="#8eafe2"/><path d="m302.527344 358.46875c-17.855469 0-24.066406 14.410156-39.285156 9.390625l26.367187 26.363281c6.683594 6.6875 17.527344 6.6875 24.210937 0l25.75-25.746094c-13.632812 2.980469-20.089843-10.007812-37.042968-10.007812zm0 0" fill="#8ee2cf"/><path d="m502.171875 181.085938c-5.179687-3.796876-11.527344-5.351563-17.875-4.375-6.347656.976562-11.933594 4.367187-15.726563 9.546874-19.003906 25.914063-35.609374 46.648438-50.421874 62.945313-5.628907-33.382813-18.671876-61.9375-38.222657-83.363281-1.640625-1.796875-3.320312-3.527344-5.03125-5.207032 10.949219-4.789062 20.300781-11.015624 27.886719-18.605468 24.960938-24.960938 29.417969-62.867188 29.851562-83.242188.117188-5.332031-1.898437-10.347656-5.671874-14.121094-3.777344-3.773437-8.8125-5.804687-14.121094-5.675781-18.296875.390625-50.730469 4.035157-75.234375 22.851563-7.136719-24.558594-23.433594-44.648438-34.183594-55.871094-3.691406-3.847656-8.664063-5.96875-14-5.96875s-10.308594 2.121094-13.996094 5.972656c-10.753906 11.21875-27.050781 31.308594-34.1875 55.867188-24.503906-18.8125-56.9375-22.457032-75.234375-22.851563-5.300781-.125-10.347656 1.902344-14.121094 5.675781-3.773437 3.773438-5.789062 8.789063-5.671874 14.121094.433593 20.375 4.890624 58.285156 29.851562 83.246094 7.585938 7.585938 16.9375 13.816406 27.886719 18.605469-1.710938 1.675781-3.390625 3.40625-5.03125 5.203125-18.984375 20.804687-31.828125 48.332031-37.707031 80.46875-5.609376 1.980468-11.886719 3.992187-18.945313 6.253906-27.757813 8.878906-65.773437 21.039062-101.867187 45.464844-3.429688 2.324218-4.328126 6.984375-2.003907 10.414062 1.449219 2.144532 3.8125 3.296875 6.214844 3.296875 1.449219 0 2.910156-.417969 4.199219-1.289062 34.304687-23.214844 69.636718-34.519531 98.027344-43.601563 4.136718-1.324218 8.160156-2.613281 12-3.882812-.1875 1.769531-.359376 3.546875-.503907 5.339844-28.664062 6.832031-49.800781 24.316406-58.449219 48.609374-8.417968 23.652344-3.464843 49.550782 12.925782 67.589844 12.207031 13.433594 29.496094 20.832032 48.683594 20.832032 6.671874 0 13.5625-.882813 20.472656-2.621094 5.488281-1.382813 10.113281-4.566406 13.335937-8.835938 6.144531 5.59375 13 10.425782 20.554688 14.488282-.078125.636718-.152344 1.277343-.226563 1.9375l-1.652344 2.335937c-13.074218 18.511719-25.421874 36-39.695312 45.605469-4.554688 3.070312-10.566406 3.03125-15.3125-.09375-15.710938-10.347656-34.046875-27.585938-53.460938-45.832032-29.269531-27.511718-59.535156-55.957031-87.226562-67.082031-2.371094-.953125-3.011719-2.980469-3.179688-3.808593-.160156-.8125-.347656-2.894532 1.433594-4.644532 1.8125-1.773437 3.679688-3.550781 5.558594-5.273437 3.054688-2.800781 3.257812-7.542969.457031-10.597657-2.800781-3.050781-7.542969-3.253906-10.59375-.457031-2.007812 1.839844-4 3.734375-5.933593 5.628907-4.859376 4.773437-6.964844 11.609374-5.628907 18.28125 1.339844 6.707031 5.9375 12.234374 12.292969 14.789062 25.070312 10.074219 54.289062 37.535156 82.546875 64.09375 19.898437 18.703125 38.691406 36.371094 55.484375 47.429688 4.910156 3.230468 10.5 4.847656 16.0625 4.847656 5.554688 0 11.082031-1.613282 15.871094-4.835938 11.332031-7.625 21.046875-18.726562 30.503906-31.28125-.925781 18.019532-.699219 37.6875 2.597656 53.460938 2.3125 11.085937 12.203125 19.128906 23.511719 19.128906 1.648437 0 3.308594-.171875 4.933594-.511719 6.285156-1.3125 11.6875-4.996093 15.203125-10.371093 3.515625-5.371094 4.726562-11.792969 3.414062-18.078126-3.515625-16.835937-1.746094-43.960937-.15625-60.304687 8.445313 1.117187 17.367188 1.679687 26.761719 1.679687s18.3125-.5625 26.757813-1.679687c1.589843 16.34375 3.363281 43.46875-.15625 60.300781-1.3125 6.289063-.101563 12.710938 3.414062 18.082032 3.519531 5.375 8.914062 9.058593 15.207031 10.371093 1.621094.339844 3.28125.511719 4.929688.511719 8.027343 0 15.492187-3.988281 19.964843-10.667969 2.304688-3.441406 1.382813-8.101562-2.058593-10.40625-3.441407-2.304687-8.101563-1.382812-10.40625 2.058594-2.027344 3.03125-5.753907 4.574219-9.367188 3.820313-2.363281-.492188-4.394531-1.878907-5.714843-3.898438-1.324219-2.019531-1.777344-4.433594-1.285157-6.800781 3.929688-18.808594 2.179688-47.1875.289063-66.003907 6.179687-1.402343 12.054687-3.15625 17.632812-5.246093 1.386719 12.75 2.816406 30.566406 2.460938 47.597656-.085938 4.144531 3.199218 7.570313 7.339844 7.65625.054687.003906.109374.003906.160156.003906 4.070312 0 7.410156-3.257812 7.496094-7.34375.421874-20.117187-1.527344-41.136719-3.097657-54.398437 10.175781-5.476563 19.09375-12.339844 26.703125-20.585938 16.949219-18.363281 27.148438-43.0625 30.507813-73.730468 24.574219-20.230469 52.359375-51.921876 87.144531-99.363282 7.839844-10.691406 5.519531-25.765625-5.171875-33.605468zm-161-95.140626c0-2.398437-.117187-4.769531-.324219-7.113281 21.28125-20.699219 54.367188-24.464843 72.308594-24.847656 1.625-.03125 2.699219.792969 3.195312 1.285156.492188.496094 1.320313 1.570313 1.285157 3.195313-.386719 18.125-4.210938 51.707031-25.464844 72.957031-7.757813 7.757813-17.90625 13.859375-30.195313 18.179687-10.285156-7.613281-21.570312-13.414062-33.667968-17.320312 8.53125-15.667969 12.863281-31.21875 12.863281-46.335938zm-54.917969-69.597656c1.125-1.171875 2.46875-1.347656 3.167969-1.347656s2.042969.175781 3.167969 1.347656c29.21875 30.496094 33.582031 56.695313 33.582031 69.597656 0 13.625-4.359375 27.914063-12.9375 42.535157-7.683594-1.421875-15.632813-2.152344-23.8125-2.152344-8.183594 0-16.128906.730469-23.816406 2.152344-8.578125-14.621094-12.9375-28.910157-12.9375-42.535157.003906-12.902343 4.363281-39.101562 33.585937-69.597656zm-99.585937 115.074219c-21.25-21.25-25.074219-54.832031-25.460938-72.957031-.035156-1.625.789063-2.699219 1.285157-3.191406.492187-.496094 1.59375-1.335938 3.191406-1.285157 17.945312.382813 51.03125 4.144531 72.3125 24.84375-.207032 2.34375-.328125 4.714844-.328125 7.113281 0 15.117188 4.332031 30.667969 12.863281 46.339844-12.097656 3.90625-23.382812 9.703125-33.667969 17.316406-12.289062-4.320312-22.4375-10.421874-30.195312-18.179687zm-27.460938 187.226563c1.867188 13.847656 5.183594 26.421874 9.941407 37.691406-5.722657 1.277344-15.074219 2.078125-20.757813-4.175782-4.371094-4.8125-5.632813-12.316406-3.210937-19.125 2.511718-7.050781 8.128906-11.535156 14.027343-14.390624zm19.097657 69.515624c-5.71875 1.4375-11.375 2.167969-16.816407 2.167969-15.121093.003907-28.113281-5.503906-37.578125-15.917969-12.664062-13.933593-16.457031-34.042968-9.894531-52.472656 6.464844-18.164062 22.074219-31.640625 43.480469-37.898437-.164063 6.523437-.074219 12.835937.257812 18.9375-13.300781 4.984375-22.679687 13.71875-26.703125 25.027343-4.253906 11.949219-1.804687 25.390626 6.242188 34.246094 6 6.601563 14.359375 10.003906 24.203125 10.003906 3.914062 0 8.066406-.539062 12.398437-1.628906.757813-.191406 1.539063-.273437 2.320313-.257812 2.539062 4.273437 5.328125 8.316406 8.378906 12.117187-1 2.773438-3.3125 4.925781-6.289062 5.675781zm68.546874 104.742188c-1.324218 2.019531-3.355468 3.40625-5.71875 3.898438-.617187.128906-1.246093.195312-1.863281.195312-4.25 0-7.964843-3.027344-8.835937-7.195312-4.691406-22.464844-2.363282-55.191407-.21875-74.949219 5.578125 2.089843 11.453125 3.84375 17.632812 5.246093-1.890625 18.816407-3.640625 47.195313.285156 66.007813.496094 2.359375.039063 4.777344-1.28125 6.796875zm158.773438-183.902344c-.0625.382813-.101562.765625-.105469 1.152344-2.753906 28.460938-11.726562 51.066406-26.847656 67.453125-19.480469 21.105469-49.507813 31.804687-89.25 31.804687-39.746094 0-69.773437-10.699218-89.25-31.804687-.621094-.671875-1.230469-1.359375-1.828125-2.050781-.074219-.089844-.148438-.175782-.226562-.257813-3.871094-4.511719-7.308594-9.460937-10.308594-14.84375-.132813-.292969-.285156-.574219-.457032-.847656-7.726562-14.191406-12.472656-31.332031-14.199218-51.308594 0-.429687-.035156-.859375-.109375-1.289062-.917969-11.535157-.84375-24 .230469-37.382813 3.078124-38.328125 15.777343-70.722656 36.726562-93.679687 3.980469-4.363281 8.214844-8.324219 12.675781-11.882813.019531-.015625.039063-.03125.058594-.046875 12.152344-9.679687 26.011719-16.363281 41.152344-19.855469.035156-.007812.066406-.011718.097656-.023437 8.132813-1.863281 16.632813-2.8125 25.4375-2.8125 25.238281 0 47.984375 7.792969 66.683594 22.6875.023437.015625.042969.035156.0625.050781 4.464843 3.558594 8.695312 7.519532 12.675781 11.882813 20.949219 22.957031 33.648438 55.351562 36.726562 93.679687 1.136719 14.15625 1.148438 27.285156.054688 39.375zm89.621094-103.183594c-28.980469 39.527344-52.832032 67.734376-73.832032 87.226563.085938-7.832031-.203124-15.980469-.882812-24.457031 17.355469-17.925782 37.058594-41.992188 60.132812-73.464844 1.429688-1.945312 3.527344-3.222656 5.914063-3.589844 2.386719-.363281 4.777344.21875 6.722656 1.648438 4.019531 2.949218 4.894531 8.617187 1.945313 12.636718zm-192.71875 88.375c8.476562 0 16.539062-3.671874 22.117187-10.074218 2.722657-3.121094 2.394531-7.859375-.726562-10.582032-3.125-2.71875-7.863281-2.394531-10.582031.730469-2.730469 3.128907-6.667969 4.925781-10.808594 4.925781s-8.082032-1.796874-10.8125-4.929687c-2.71875-3.121094-7.457032-3.445313-10.582032-.726563-3.121093 2.722657-3.445312 7.460938-.726562 10.582032 5.582031 6.402344 13.644531 10.074218 22.121094 10.074218zm62.449218-33.328124c-4.144531 0-7.5 3.359374-7.5 7.5v10.367187c0 4.144531 3.355469 7.5 7.5 7.5 4.140626 0 7.5-3.355469 7.5-7.5v-10.367187c0-4.140626-3.359374-7.5-7.5-7.5zm-117.398437 7.5c0-4.140626-3.355469-7.5-7.5-7.5s-7.5 3.359374-7.5 7.5v10.367187c0 4.144531 3.355469 7.5 7.5 7.5s7.5-3.355469 7.5-7.5zm102.109375 73.332031-18.410156-14.195313c-4.28125-3.304687-9.621094-5.121094-15.03125-5.121094h-29.0625c-5.410156 0-10.75 1.816407-15.035156 5.121094l-18.410157 14.195313c-3.890625 3-6.304687 7.53125-6.617187 12.433593-.316406 4.902344 1.492187 9.707032 4.96875 13.179688l32.214844 32.214844c4.652343 4.648437 10.835937 7.210937 17.410156 7.210937 6.578125 0 12.761718-2.5625 17.410156-7.210937l32.214844-32.214844c3.472656-3.472656 5.285156-8.277344 4.96875-13.179688-.316406-4.902343-2.726563-9.433593-6.621094-12.433593zm-8.957031 15.003906-32.214844 32.21875c-3.75 3.75-9.855469 3.75-13.605469 0l-32.214844-32.21875c-.582031-.578125-.628906-1.257813-.605468-1.605469.019531-.355468.15625-1.019531.808594-1.519531l18.410156-14.195313c1.675781-1.292968 3.761718-2.003906 5.875-2.003906h29.0625c2.113281 0 4.199218.710938 5.875 2.003906l18.410156 14.191407c.652344.503906.785156 1.167969.808594 1.519531.023437.351562-.027344 1.03125-.609375 1.609375zm0 0"/></svg>