<?xml version="1.0" encoding="iso-8859-1"?>
<!-- Generator: Adobe Illustrator 19.0.0, SVG Export Plug-In . SVG Version: 6.00 Build 0)  -->
<svg version="1.1" id="Capa_1" xmlns="http://www.w3.org/2000/svg" xmlns:xlink="http://www.w3.org/1999/xlink" x="0px" y="0px"
	 viewBox="0 0 512 512" style="enable-background:new 0 0 512 512;" xml:space="preserve">
<circle style="fill:#F4D44E;" cx="255.968" cy="255.999" r="248.445"/>
<path style="fill:#E8C842;" d="M175.124,446.114C18.417,355.638,8.902,134.083,153.837,29.517
	C107.953,50.162,67.887,84.88,40.809,131.781C-27.797,250.61,12.917,402.555,131.745,471.16
	c87.447,50.487,192.827,41.765,269.731-13.718C331.108,489.102,247.052,487.641,175.124,446.114z"/>
<g>
	<circle style="fill:#656566;" cx="326.608" cy="258.643" r="21.673"/>
	<circle style="fill:#656566;" cx="185.329" cy="258.643" r="21.673"/>
</g>
<g>
	<path style="fill:#4F4F51;" d="M326.606,258.641c-4.008-6.943-3.721-15.173,0.01-21.656c-3.687-0.005-7.424,0.911-10.846,2.886
		c-10.366,5.985-13.917,19.239-7.933,29.605c5.985,10.366,19.239,13.917,29.605,7.932c3.422-1.977,6.084-4.754,7.923-7.95
		C337.886,269.449,330.615,265.584,326.606,258.641z"/>
	<path style="fill:#4F4F51;" d="M185.325,258.641c-4.008-6.943-3.721-15.173,0.01-21.656c-3.687-0.005-7.424,0.911-10.846,2.886
		c-10.366,5.985-13.917,19.239-7.933,29.605c5.985,10.366,19.239,13.917,29.605,7.932c3.422-1.977,6.084-4.754,7.924-7.95
		C196.606,269.449,189.333,265.584,185.325,258.641z"/>
</g>
<path style="fill:#ED694A;" d="M255.965,398.503c-17.888,0-32.389-14.502-32.389-32.389v-7.854
	c0-17.888,14.502-32.389,32.389-32.389s32.389,14.502,32.389,32.389v7.854C288.355,384.002,273.854,398.503,255.965,398.503z"/>
<path style="fill:#D8553A;" d="M248.622,366.49v-7.763c0-13.677,8.641-25.344,20.795-29.93c-4.099-1.874-8.651-2.926-13.451-2.926
	c-17.888,0-32.389,14.502-32.389,32.389v7.854c0,17.888,14.502,32.389,32.389,32.389c4.408,0,8.609-0.885,12.44-2.48
	C256.785,391.186,248.622,379.785,248.622,366.49z"/>
<path d="M297.42,258.641c0,16.092,13.093,29.186,29.186,29.186s29.186-13.093,29.186-29.186s-13.093-29.186-29.186-29.186
	S297.42,242.548,297.42,258.641z M340.766,258.641c0,7.807-6.352,14.159-14.159,14.159s-14.159-6.352-14.159-14.159
	c0-7.807,6.352-14.159,14.159-14.159S340.766,250.834,340.766,258.641z"/>
<path d="M156.139,258.641c0,16.092,13.093,29.186,29.186,29.186s29.186-13.093,29.186-29.186s-13.093-29.186-29.186-29.186
	S156.139,242.548,156.139,258.641z M199.484,258.641c0,7.807-6.352,14.159-14.159,14.159c-7.807,0-14.159-6.352-14.159-14.159
	c0-7.807,6.352-14.159,14.159-14.159C193.132,244.482,199.484,250.834,199.484,258.641z"/>
<path d="M216.062,358.26v7.854c0,22.002,17.901,39.903,39.903,39.903s39.903-17.901,39.903-39.903v-7.854
	c0-22.002-17.901-39.903-39.903-39.903S216.062,336.257,216.062,358.26z M280.841,358.26v7.854
	c0,13.716-11.159,24.876-24.876,24.876s-24.876-11.159-24.876-24.876v-7.854c0-13.716,11.159-24.876,24.876-24.876
	C269.681,333.384,280.841,344.544,280.841,358.26z"/>
<path d="M433.054,71.125c-2.996-2.871-7.753-2.771-10.623,0.224c-2.871,2.995-2.772,7.752,0.224,10.623
	c61.734,59.182,89.504,148.778,66.031,236.384c-44.553,166.271-243.898,232.994-379.658,128.638
	c-3.292-2.528-8.009-1.911-10.537,1.379c-2.529,3.289-1.911,8.007,1.379,10.536c144.339,110.953,356.078,39.688,403.332-136.663
	C528.073,229.42,498.82,134.173,433.054,71.125z"/>
<path d="M72.851,434.913c1.473,1.51,3.424,2.267,5.379,2.267c6.576,0,10.045-7.978,5.377-12.76
	C-26.297,311.77-0.629,125.946,135.501,47.35C219.952-1.407,321.817,6.701,396.482,60.218c3.37,2.415,8.066,1.646,10.484-1.73
	c2.417-3.372,1.644-8.067-1.73-10.484C325.745-8.974,217.514-17.354,127.987,34.336C-17.093,118.096-43.522,315.644,72.851,434.913z
	"/>
<g>
</g>
<g>
</g>
<g>
</g>
<g>
</g>
<g>
</g>
<g>
</g>
<g>
</g>
<g>
</g>
<g>
</g>
<g>
</g>
<g>
</g>
<g>
</g>
<g>
</g>
<g>
</g>
<g>
</g>
</svg>
